<svg version="1.2" xmlns="http://www.w3.org/2000/svg" viewBox="0 0 658 375" width="658" height="375">
	<title>behance-646e8e1edea7f (1)-ai</title>
	<style>
		.s0 { fill: #fcc1bb;stroke: #000000;stroke-miterlimit:10 } 
		.s1 { fill: #000000 } 
		.s2 { fill: #ff4148 } 
		.s3 { fill: none;stroke: #dfadb0;stroke-miterlimit:10;stroke-width: .4 } 
		.s4 { fill: none;stroke: #dfadb0;stroke-miterlimit:10;stroke-width: .7 } 
		.s5 { fill: #dfadb0 } 
		.s6 { fill: none;stroke: #000000;stroke-miterlimit:10 } 
		.s7 { fill: #ef983e;stroke: #000000;stroke-miterlimit:10;stroke-width: .7 } 
		.s8 { fill: #ef983e;stroke: #000000;stroke-miterlimit:10;stroke-width: .6 } 
		.s9 { fill: #f5c2bf;stroke: #000000;stroke-miterlimit:10 } 
		.s10 { fill: #dfa5a4 } 
		.s11 { fill: #e94244;stroke: #000000;stroke-miterlimit:10 } 
		.s12 { fill: #f7d1ce;stroke: #000000;stroke-miterlimit:10;stroke-width: 1 } 
		.s13 { fill: #f7d1ce;stroke: #000000;stroke-miterlimit:10 } 
		.s14 { fill: #000000;stroke: #000000;stroke-miterlimit:10 } 
		.s15 { fill: #fffdfd } 
		.s16 { fill: #fbc2b9 } 
		.s17 { fill: #645667;stroke: #000000;stroke-miterlimit:10 } 
		.s18 { fill: #ef983e;stroke: #000000;stroke-miterlimit:10 } 
		.s19 { fill: #ffc88e } 
		.s20 { fill: #c64041;stroke: #000000;stroke-miterlimit:10 } 
		.s21 { fill: #473f58 } 
		.s22 { fill: #ea4a4c;stroke: #000000;stroke-miterlimit:10 } 
		.s23 { fill: #6b5564 } 
		.s24 { fill: #e0c0a4;stroke: #000000;stroke-miterlimit:10;stroke-width: .6 } 
		.s25 { fill: none;stroke: #e0c0a4;stroke-miterlimit:10;stroke-width: .6 } 
		.s26 { fill: #fee0d4;stroke: #000000;stroke-miterlimit:10 } 
		.s27 { fill: #4e445e } 
		.s28 { fill: none;stroke: #bab8b6;stroke-miterlimit:10;stroke-width: .6 } 
		.s29 { fill: #ffffff } 
		.s30 { fill: #fbefd9;stroke: #000000;stroke-miterlimit:10;stroke-width: 1 } 
		.s31 { fill: #f3c905 } 
		.s32 { fill: none;stroke: #d8cd68;stroke-miterlimit:10;stroke-width: 2 } 
		.s33 { fill: #d777d1;stroke: #000000;stroke-miterlimit:10;stroke-width: 1 } 
		.s34 { fill: #8a95ee } 
		.s35 { fill: #fff4df } 
		.s36 { fill: #ff5980;stroke: #000000;stroke-miterlimit:10;stroke-width: 1 } 
		.s37 { fill: none;stroke: #000000;stroke-miterlimit:10;stroke-width: 1 } 
		.s38 { fill: none;stroke: #000000;stroke-miterlimit:10;stroke-width: 2 } 
		.s39 { fill: #080609 } 
		.s40 { fill: #ddd54c } 
		.s41 { fill: none;stroke: #ddd54c;stroke-miterlimit:10;stroke-width: 1.6 } 
		.s42 { fill: #ff5980 } 
		.s43 { fill: #6e88dc } 
		.s44 { fill: #e87f18;stroke: #000000;stroke-miterlimit:10;stroke-width: 2 } 
		.s45 { fill: #c1880a;stroke: #000000;stroke-miterlimit:10;stroke-width: 1 } 
		.s46 { fill: #c614ba;stroke: #050505;stroke-miterlimit:10;stroke-width: .4 } 
		.s47 { fill: #ff6f6e;stroke: #050505;stroke-miterlimit:10;stroke-width: 1 } 
		.s48 { fill: none;stroke: #050505;stroke-miterlimit:10;stroke-width: 1 } 
		.s49 { fill: #ff6f6e;stroke: #050505;stroke-miterlimit:10;stroke-width: 1.1 } 
		.s50 { fill: #181413;stroke: #171614;stroke-miterlimit:10;stroke-width: 1 } 
		.s51 { fill: #ffe4ba } 
		.s52 { fill: #ffb622 } 
		.s53 { fill: #fcaa9f;stroke: #000000;stroke-miterlimit:10 } 
		.s54 { fill: #ce96b3;stroke: #683a54;stroke-miterlimit:10;stroke-width: 1.6 } 
		.s55 { fill: #ffe0b9 } 
		.s56 { fill: #fcaa9f } 
		.s57 { fill: #dd7a97;stroke: #683a54;stroke-miterlimit:10 } 
		.s58 { fill: #d1af94;stroke: #000000;stroke-miterlimit:10 } 
		.s59 { fill: #13120d } 
		.s60 { fill: #ff7150;stroke: #000000;stroke-miterlimit:10 } 
		.s61 { fill: #cf89cf;stroke: #000000;stroke-miterlimit:10 } 
		.s62 { fill: #ce98d6;stroke: #000000;stroke-miterlimit:10 } 
		.s63 { fill: #000000;stroke: #000000;stroke-miterlimit:10;stroke-width: 2 } 
		.s64 { fill: #d9db88 } 
		.s65 { fill: none;stroke: #13120d;stroke-miterlimit:10 } 
		.s66 { fill: #ceca30;stroke: #000000;stroke-miterlimit:10 } 
		.s67 { fill: #fbb808;stroke: #000000;stroke-miterlimit:10;stroke-width: 1 } 
		.s68 { fill: #9493df;stroke: #000000;stroke-miterlimit:10;stroke-width: .9 } 
		.s69 { fill: #eb6866;stroke: #000000;stroke-miterlimit:10 } 
		.s70 { fill: #d7794b } 
		.s71 { fill: #ffca7e } 
		.s72 { fill: #ebca6b } 
		.s73 { fill: #ee8939;stroke: #000000;stroke-miterlimit:10;stroke-width: 1.1 } 
		.s74 { fill: #b24d57;stroke: #000000;stroke-miterlimit:10 } 
		.s75 { fill: #fbb808;stroke: #000000;stroke-miterlimit:10 } 
		.s76 { fill: #fac328;stroke: #000000;stroke-miterlimit:10 } 
		.s77 { fill: #5b59a2;stroke: #000000;stroke-miterlimit:10;stroke-width: .9 } 
		.s78 { fill: #f89d9c;stroke: #000000;stroke-miterlimit:10 } 
		.s79 { fill: #f0c43d;stroke: #000000;stroke-miterlimit:10 } 
		.s80 { fill: none;stroke: #000000;stroke-miterlimit:10;stroke-width: 5 } 
		.s81 { fill: #ffccaf } 
		.s82 { fill: #f8e9c0;stroke: #000000;stroke-miterlimit:10;stroke-width: 1 } 
		.s83 { fill: #ffc0c7;stroke: #000000;stroke-miterlimit:10 } 
		.s84 { fill: #050505 } 
		.s85 { fill: #fffd92;stroke: #050505;stroke-miterlimit:10 } 
		.s86 { fill: #ffe2bc } 
		.s87 { fill: #f6f0cc;stroke: #000000;stroke-miterlimit:10 } 
		.s88 { fill: #ef4b75 } 
		.s89 { opacity: .6;fill: #a42d4d } 
		.s90 { fill: #e4cdad } 
		.s91 { fill: #f9d452;stroke: #000000;stroke-miterlimit:10 } 
		.s92 { fill: #0d0000 } 
		.s93 { fill: #d93c67 } 
		.s94 { fill: #f9cb04 } 
		.s95 { fill: #ffebcc;stroke: #000000;stroke-miterlimit:10 } 
		.s96 { fill: #8b4c67;stroke: #000000;stroke-miterlimit:10;stroke-width: .9 } 
		.s97 { fill: none;stroke: #000000;stroke-miterlimit:10;stroke-width: .9 } 
		.s98 { fill: #02c6c2;stroke: #000000;stroke-miterlimit:10 } 
		.s99 { fill: #f699cf;stroke: #000000;stroke-miterlimit:10 } 
		.s100 { fill: #faf6d0;stroke: #000000;stroke-miterlimit:10 } 
		.s101 { fill: #138955;stroke: #000000;stroke-miterlimit:10 } 
		.s102 { fill: #f57dc5;stroke: #000000;stroke-miterlimit:10 } 
		.s103 { fill: #494099;stroke: #000000;stroke-miterlimit:10 } 
		.s104 { fill: #fec901;stroke: #000000;stroke-miterlimit:10;stroke-width: 1 } 
		.s105 { fill: #000b05 } 
		.s106 { fill: #ff4082;stroke: #000000;stroke-miterlimit:10 } 
		.s107 { fill: #3cb771;stroke: #000000;stroke-miterlimit:10 } 
		.s108 { fill: #b5af3c;stroke: #000000;stroke-miterlimit:10 } 
		.s109 { fill: #925da1;stroke: #000000;stroke-miterlimit:10 } 
		.s110 { fill: #fdeaec } 
		.s111 { fill: #efe0af } 
	</style>
	<g id="Layer 1">
		<g id="&lt;Group&gt;">
			<g id="&lt;Group&gt;">
				<path id="&lt;Path&gt;" class="s0" d="m840.1-412.6h-1080.7v-366.5h1080.7z"/>
				<path id="&lt;Path&gt;" class="s0" d="m2.5-779.1c0 0 5.6 22.7 5.2 29.2-0.5 6.5 61.4-19.5 61.4-19.5v-9.7z"/>
			</g>
			<path id="&lt;Path&gt;" class="s1" d="m19.9-664.4c0 0 8.4 26.8-14.9 50.1-23.3 23.3-8 172.7-8 172.7l-1.4 4.1-51.6-13-20.2 13c0 0-74.5-25-84.4-35.8 0 0 8.5 37.2 26.5 60.7h-106.5v-177l162.2 93.6c0 0 82.3-168.8 98.3-168.4z"/>
			<path id="&lt;Path&gt;" class="s1" d="m574.1-664.4c0 0-8.6 10.2 10.5 45.5 19.2 35.2 16.1 189.6 16.1 189.6h28.3l70 8.3 87.6-36.7-20.1 44.9h73.5l-0.2-183.9-152.4 120.3z"/>
			<g id="Fire">
				<path id="&lt;Path&gt;" class="s2" d="m43.5-630.9c0 0-17.3-63.9 0-93.9 17.3-30 13.8-53.8 13.8-53.8h38.8c0 0 1.1 46.8-4.9 64.8 0 0 15.2-57.8 30.1-64.8h82c0 0-21.7 41.5-28.7 46.8 0 0 33.7-15.8 54.1-46.8h96.5l-36.7 48.8c0 0 45.7-28.4 64.4-33.4 18.7-5 24.4-15.4 24.4-15.4h129.1c0 0-10.6 36.8-81.7 72.5-71.1 35.7-72.8 78.1-72.8 78.1l111.1-78.1c0 0 51.8-27.5 66.1-72.5 0 0 88.2 0 88.2 0-2.9 9.5-4.9 20.1-8.9 29.2-8.7 19.6-22.9 36.1-34.2 54.1-5.6 9-11.2 18.2-16 27.7-0.3 0.7-5.8 11.9-3.1 10.9 139.3-54.1 58.7 38.1 58.7 38.1l-189.1 91.2-259.8-35.1z"/>
				<path id="&lt;Path&gt;" class="s3" d="m229.7-660l3-3c1.6-1.6 4.1-1.6 5.7 0l13.6 13.6c1.6 1.5 1.6 4.1 0 5.7l-3.1 3c-1.5 1.6-4.1 1.6-5.7 0l-13.5-13.6c-1.6-1.5-1.6-4.1 0-5.7z"/>
				<path id="&lt;Path&gt;" class="s4" d="m113.8-723.1c4.6 2.2 10.2 0.2 12.4-4.4l14.8-30.9c2.2-4.6 0.3-10.2-4.3-12.4-4.7-2.3-10.3-0.3-12.5 4.3l-14.8 30.9c-2.2 4.6-0.3 10.2 4.4 12.5z"/>
				<path id="&lt;Path&gt;" class="s5" d="m43-715c-2.2 6.7-3 12.5-1.8 12.8 1.2 0.4 4-4.7 6.2-11.4 2.2-6.7 3-12.5 1.8-12.9-1.2-0.4-4 4.7-6.2 11.5z"/>
				<path id="&lt;Path&gt;" class="s5" d="m331.8-750.6c-3.2 1.5-5.6 3.1-5.4 3.7 0.3 0.6 3.1-0.2 6.3-1.7 3.2-1.5 5.6-3.1 5.4-3.7-0.3-0.6-3.1 0.2-6.3 1.7z"/>
				<path id="&lt;Path&gt;" class="s5" d="m306.6-736.9c-6.5 3-11.2 6.3-10.7 7.5 0.5 1.1 6.2-0.4 12.6-3.3 6.4-3 11.2-6.4 10.7-7.5-0.6-1.2-6.2 0.3-12.6 3.3z"/>
				<path id="&lt;Path&gt;" class="s5" d="m38-690.9c-0.3 3.9-0.2 7.1 0.2 7.1 0.4 0.1 0.9-3.1 1.2-7 0.3-3.9 0.2-7.1-0.2-7.1-0.4-0.1-0.9 3.1-1.2 7z"/>
			</g>
			<path id="&lt;Path&gt;" class="s1" d="m524.2-635.7l0.5 50.5h-14.1l-3.4-25 3.3-25.1z"/>
			<path id="&lt;Path&gt;" class="s6" d=""/>
			<g id="&lt;Group&gt;">
				<path id="&lt;Path&gt;" class="s7" d="m626.4-412.6c0 0 12.3-30.7 40.8-30.7 28.5 0 43 30.7 43 30.7z"/>
				<path id="&lt;Path&gt;" class="s8" d="m635.5-412.6c0 0 9.3-23 30.6-23 21.4 0 32.3 23 32.3 23z"/>
			</g>
			<g id="&lt;Group&gt;">
				<path id="&lt;Path&gt;" class="s9" d="m54.5-598.8v-52.3l47.2-28.3 20.4 21.3 119.3 59.3 51.9 53.1 66.7-53.7 31.3-4 41.9-66.6 43.4-14.7 34.6-32v32.7l-27.4 38.6 27.4-24 2 75.2 47.4 181.4h-506.1z"/>
				<path id="&lt;Path&gt;" class="s10" d="m451.9-554l-80.6 68.5 7.1 19.2 73.5-46.5z"/>
				<path id="&lt;Path&gt;" class="s10" d="m145-526.3l-5.8 36 93.7 24.5 7.9-38.2z"/>
				<path id="&lt;Path&gt;" class="s10" d="m127.2-413.3l7.2-30.4 73.1 18-3.6 12.4z"/>
				<path id="&lt;Path&gt;" class="s10" d="m451-459.8l9.2 37.3-9.2 9.2h-76.3z"/>
			</g>
			<g id="&lt;Group&gt;">
				<path id="&lt;Path&gt;" class="s11" d="m376.9-576.4c0 0 14.7-79.1 14.7-111.3 0 0-23.2-30.5 1.8-23.6 0 0 3.2-6.7-2.9-9.6 0 0-5.3-9.9 12.8-7.8 18.1 2 14.2 23 14.2 23 0 0-5.4 16.2-5.4 16.2q0.2 11.3 0.4 22.7 0.3 19 0.6 38.1c0.3 12.3 1.1 24.6 0.2 37.1-1 13.4-3.3 26.8-5.4 40.1-2 12.3-3.9 24.7-7.1 36.7-1.5 5.8-3.4 11.4-5.8 16.9-0.8 1.9-1.8 3.9-3.1 5.6-0.2 0.4-3.2 2.9-3.2 2.9z"/>
				<g id="&lt;Group&gt;">
					<g id="&lt;Group&gt;">
						<path id="&lt;Path&gt;" class="s12" d="m169.8-412.8c0 0 54.3-94.2 79.4-102.9 0 0 16.4 33.9 50.1 32.9 33.7-0.9 23.9-27.3 23.9-27.3l48.1 6.5c0 0-11.2 15.5-11 37.6 0.3 22.2 1.2 52.9 1.2 52.9z"/>
						<path id="&lt;Path&gt;" class="s13" d="m387.7-502.8c0 0 9.7 56.2 3.9 75 0 0-2.5 4.7-32.9 3l2.3-64.2c0 0 6.1-20.1 26.7-13.8z"/>
						<path id="&lt;Path&gt;" class="s11" d="m249.8-584c0 0-3.1 17.1 6.3 22l10.1-3-3.5-26.1z"/>
						<path id="&lt;Path&gt;" class="s5" d="m229.5-499l50.3 85.5 81.2-0.1-0.2-11.8c0 0 25.6 2 30.4-2.7 0 0 2.5-8.5 1.6-23.2l-66.4-45.3c0 0-0.6 15.8-19.4 15.3-18.7-0.5-28.9-2.9-39.1-8.1-10.2-5.2-18.7-26.3-18.7-26.3 0 0-9.5 4.8-19.7 16.7z"/>
						<path id="&lt;Path&gt;" class="s11" d="m266.2-539.2l-0.9 19.3h-10.8c0 0-6.3 37.8 44.5 38.6 0 0 35.4 4.3 25.9-27.2-9.4-31.5-58.7-30.7-58.7-30.7z"/>
						<path id="&lt;Path&gt;" class="s1" d="m226.9-491.2c-5.6 6.1-1.7 9.8 3.9 3.6 5.7-6.1 1.7-9.7-3.9-3.6z"/>
						<path id="&lt;Path&gt;" class="s1" d="m206.4-464.4c-3.1 4.3-0.9 5.8 2.2 1.5 3.1-4.3 0.9-5.9-2.2-1.5z"/>
						<path id="&lt;Path&gt;" class="s1" d="m212.2-471.6c-3.1 4.3-0.9 5.8 2.2 1.5 3.1-4.3 0.9-5.9-2.2-1.5z"/>
						<g id="&lt;Group&gt;">
							<path id="&lt;Path&gt;" class="s1" d="m218.3-481.1c3.3 3.3 6.6 8.2 5.9 13-0.8-4.8-3.7-8.8-5.9-13z"/>
						</g>
						<path id="&lt;Path&gt;" class="s1" d="m226.5-463.7c0 0 13.8 40.3 7.2 50.9l-9.5-0.1c0 0 4.7-32.6 2.3-50.8z"/>
						<g id="&lt;Group&gt;">
							<path id="&lt;Path&gt;" class="s1" d="m225.8-426.5c-5.3-2.6-9.7-7.3-11.6-12.9-0.7-1.8-0.9-3.8-0.9-5.8 1.4 7.7 6.3 14.1 12.5 18.7z"/>
						</g>
						<path id="&lt;Path&gt;" class="s6" d="m181.4-432.1c0 0 2.2 15.1 8.6 19.2"/>
						<path id="&lt;Path&gt;" class="s6" d="m175.5-422.5c0 0 0.3 8.9 3.4 9.6"/>
						<path id="&lt;Path&gt;" class="s6" d="m351.9-413.1l7.8-13"/>
						<path id="&lt;Path&gt;" class="s1" d="m359.1-425.3l15.6 0.8-15-30z"/>
						<path id="&lt;Path&gt;" class="s9" d="m371.3-500.1l3.4 75.6"/>
						<path id="&lt;Path&gt;" class="s6" d="m380-501.3c0 0 7.7 36.8 4.3 76"/>
						<g id="&lt;Group&gt;">
							<path id="&lt;Path&gt;" class="s14" d="m284.3-630.1c0 0-15.4-5.1-26 17.7 0 0-18.1 19.1-8.5 28.4 0 0 1.7 1.7 6.5 0q-0.9 6.1-1.1 12.4c-0.2 4.1 1.2 8.2 0.9 12.4-0.2 3.7-2.3 6.7-3.8 10-11.7 25.8-3.6 64.8 25.1 75.2 0 0-30.7-32.6-16.3-70.1 5 10.9 11.3 21.5 18.7 31 9.4 12.2 23.2 20.6 38 24.3 13 3.4 34 4.7 45.3-4.1-7.1-1.6-15.2-0.2-22.5-1.7-7.6-1.6-15.1-4.8-20.4-10.4 20.7 4.4 42.2 7.6 62.8 3.1 6.9-1.5 6.8-10.3 4.3-15.6-1.7-3.7-3.2-7.4-4.3-11.3-1.6-5.9-2.4-12-1.9-18 0.2-3.7 0.9-7.3 2.1-10.8q0.8-2.6 2-5.2c0.3-0.8 0.7-1.1 1.3-1.7 3.3-3.3 7-7.8 6.9-12.7q0-0.2 0-0.4c-0.4-8.5-18.6-2.9-22.2-1-11.7 6.2-35.3 20.1-47.8 8.5-6.3-5.9-8.1-16-9.8-24.2-6.8-33.4-29.3-35.8-29.3-35.8z"/>
							<g id="&lt;Group&gt;">
								<path id="&lt;Path&gt;" class="s15" d="m290.4-626.2c1.4 24.5 8.1 65.1 34.6 74.3 1.2 0.3 2.9 0.9 4.2 1.1 0.6 0.1 2.5 0.3 3.1 0.4 3.3 0.1 6.5 0.1 9.8 0.2 8.7 0 26.1 0.2 34.8 0.3-8.7 0.2-26.1 0.4-34.8 0.4-3.2 0.1-6.5 0.1-9.8 0-0.7-0.1-2.6-0.4-3.3-0.5-1.3-0.1-3-0.7-4.3-1-27.2-9.3-33.7-50.1-34.3-75.2z"/>
							</g>
							<g id="&lt;Group&gt;">
								<path id="&lt;Path&gt;" class="s15" d="m271.4-623.8c-1.3 23.6-0.3 69.6 23.7 81.7 3.2 1.7 7 2.4 10.6 2.7 7.4 0.9 14.8 2.2 22 4.3 5.4 1.6 10.8 3.7 15.4 7 1.5 1.2 2.8 2.5 4.4 3.5 9.5 5.9 21.8 5.4 32.5 3.7-10.8 2-23.1 2.7-32.9-3.2-1.6-1-3-2.3-4.4-3.4-10.9-7.2-24.4-9.3-37.1-10.9-3.7-0.3-7.6-1.1-11-2.8-24.7-12.9-25-58.3-23.2-82.6z"/>
							</g>
							<g id="&lt;Group&gt;">
								<path id="&lt;Path&gt;" class="s15" d="m295.3-521.8c7.4 2 14.1 6.1 19.2 11.6-7.3-2-14-6.1-19.2-11.6z"/>
							</g>
							<path id="&lt;Path&gt;" class="s15" d="m251.2-595.5c-0.7 2.1-1.7 3.6-2.2 3.4-0.5-0.2-0.4-2 0.3-4.1 0.6-2 1.6-3.5 2.2-3.4 0.5 0.2 0.4 2-0.3 4.1z"/>
							<path id="&lt;Path&gt;" class="s15" d="m302.3-617.4c1.1 1.8 1.6 3.6 1.1 3.9-0.5 0.3-1.8-1-2.8-2.9-1.1-1.9-1.6-3.7-1.1-3.9 0.5-0.3 1.7 1 2.8 2.9z"/>
							<path id="&lt;Path&gt;" class="s15" d="m377.2-579.6c2-0.8 3.9-0.8 4.3 0.1 0.3 0.9-1 2.3-3 3.1-2 0.9-3.9 0.8-4.3-0.1-0.4-0.9 1-2.3 3-3.1z"/>
							<path id="&lt;Path&gt;" class="s15" d="m256.9-605.3c-0.8 1.4-1.9 2.3-2.3 2-0.5-0.3-0.3-1.6 0.5-3.1 0.8-1.4 1.9-2.3 2.4-2 0.5 0.3 0.2 1.7-0.6 3.1z"/>
							<path id="&lt;Path&gt;" class="s15" d="m251.4-539.8c-0.2 1.1-0.6 2-0.9 1.9-0.3 0-0.4-1-0.1-2.2 0.2-1.1 0.7-2 0.9-1.9 0.3 0 0.4 1 0.1 2.2z"/>
							<path id="&lt;Path&gt;" class="s15" d="m256.9-549.3c-0.8 1.4-1.9 2.3-2.3 2-0.5-0.3-0.3-1.6 0.5-3 0.8-1.4 1.9-2.4 2.4-2.1 0.5 0.3 0.2 1.7-0.6 3.1z"/>
							<path id="&lt;Path&gt;" class="s15" d="m308-608.2c0.6 1.5 0.8 2.9 0.3 3.1-0.6 0.3-1.5-0.7-2.2-2.2-0.7-1.5-0.8-2.9-0.3-3.1 0.5-0.2 1.5 0.8 2.2 2.2z"/>
							<path id="&lt;Path&gt;" class="s15" d="m365.2-573.9c1.5-0.6 2.9-0.7 3.1-0.1 0.2 0.5-0.8 1.4-2.3 2-1.5 0.7-2.9 0.7-3.1 0.2-0.2-0.5 0.8-1.4 2.3-2.1z"/>
						</g>
					</g>
					<path id="&lt;Path&gt;" class="s6" d="m390.5-720.9c0 0-2.1 3.2-0.9 8.8l3.8 0.8c0 0 3.3-6.6-2.9-9.6z"/>
				</g>
			</g>
			<g id="&lt;Group&gt;">
				<path id="&lt;Path&gt;" class="s1" d="m395-729.1c2.2 1.9 3.9 4.6 4 7.5-0.1-0.7-0.3-1.4-0.6-2-0.8-1.9-2.3-3.5-4-4.6 0 0 0.6-0.9 0.6-0.9z"/>
			</g>
			<g id="&lt;Group&gt;">
				<path id="&lt;Path&gt;" class="s1" d="m403.7-729c1 2 1.7 4.5 1.2 6.7 0.1-1.1-0.1-2.2-0.5-3.3-0.4-1-0.9-2-1.5-2.9z"/>
			</g>
			<g id="&lt;Group&gt;">
				<path id="&lt;Path&gt;" class="s1" d="m410.3-727.1c1 1.9 1 4.2 0.5 6.2 0.2-1.5 0-3-0.6-4.4-0.2-0.4-0.5-0.8-0.7-1.1z"/>
			</g>
			<path id="&lt;Path&gt;" class="s16" d="m-162.2-682.6l61.8 63.6c0 0-28.5 8.2-43.7 6.8 0 0-16-35.1-18.1-70.4z"/>
			<path id="&lt;Path&gt;" class="s16" d="m667.5-595.9l99.5-79.1c0 0-23.3-10.8-39.5-27.9 0 0-16.6 23.8-21.4 38.5-4.8 14.6-22.9 15.2-22.9 15.2 0 0-33.2 6.5-37.7 31.6l5.3 6.1c5.2 6.1 11.4 11.5 12.2 12.2z"/>
			<g id="&lt;Group&gt;">
				<path id="&lt;Path&gt;" class="s17" d="m123.1-609.4c0 0-18.4 30.1-16.7 38.6 0 0 5.3-0.3 18.1-10 0 0-1.4 22.2 5 29.5 0 0 5.8-31.5 21-41.7z"/>
				<path id="&lt;Path&gt;" class="s17" d="m167.6-590.8l24.2 35c0 0 1.5-25.7 0-31.2 0 0 18.1 2.3 28.6-1.5l-28.6-37.9z"/>
				<g id="&lt;Group&gt;">
					<g id="&lt;Group&gt;">
						<path id="&lt;Path&gt;" class="s18" d="m194-637c0 27.6-18.1 50.1-40.4 50.1-22.3 0-40.3-22.5-40.3-50.1 0-27.7 18-50.2 40.3-50.2 22.3 0 40.4 22.5 40.4 50.2z"/>
						<path id="&lt;Path&gt;" class="s7" d="m183.8-636.1c0 20.7-13.5 37.5-30.2 37.5-16.6 0-30.1-16.8-30.1-37.5 0-20.7 13.5-37.4 30.1-37.4 16.7 0 30.2 16.7 30.2 37.4z"/>
					</g>
					<path id="&lt;Path&gt;" class="s19" d="m177.2-640.7c0 13.1-6 23.8-13.4 23.8-7.3 0-13.3-10.7-13.3-23.8 0-13.1 6-23.7 13.3-23.7 7.4 0 13.4 10.6 13.4 23.7z"/>
				</g>
			</g>
			<path id="&lt;Path&gt;" class="s19" d="m683.2-423c0 4.7-3.8 8.5-8.5 8.5-4.8 0-8.6-3.8-8.6-8.5 0-4.7 3.8-8.5 8.6-8.5 4.7 0 8.5 3.8 8.5 8.5z"/>
			<g id="&lt;Group&gt;">
				<g id="&lt;Group&gt;">
					<path id="&lt;Path&gt;" class="s20" d="m-83.6-483.7l80.6 42.1 45.9-169.4-35.5-37.2c0 0-84.7 123.9-91 164.5z"/>
					<path id="&lt;Path&gt;" class="s21" d="m-240.6-589.6l152.8 116.2c0 0 41.7-109.4 107.7-191l-92-114.7h-168.5z"/>
					<path id="&lt;Path&gt;" class="s22" d="m-5.7-412.6c0 0-12-29.8 6-41.1 0 0 27.1 36 34.5 41.1z"/>
					<path id="&lt;Path&gt;" class="s22" d="m7.4-507.8c-6.9-14.1-9-31-5.4-46 1.2-5.3 3.2-10.5 6.3-15 1.6-2.5 3.6-4.7 5.9-6.6 0.7-0.6 8.2-5.3 8.3-4.9 0 0 3.9 14.8 10.3 22.3 0 0 13.5 19.1 22.6 27.4l19.3 20.2c0 0 18.4 16 18.4 16 2.5 2.2 5.4 3.9 7.9 6.3 5.1 5.1 9.2 11.3 11 18.4 2.2 8.7 1.3 19.4-1.3 28-1.9 6.7-5.8 13.3-12.7 15.7-2 0.7-4.1 1-6.2 1-7.6 0-14.8-6.6-19.9-11.3-6.2-5.8-11.3-12.6-17.5-18.3q-6.4-6.1-12.8-12.4c-10.2-10.1-20.7-20.4-29-32.1q-2.9-4.1-5.2-8.7z"/>
					<path id="&lt;Path&gt;" class="s22" d="m54.5-637c0 0-33.9-2.8-33.1 46.8 0 0-2.2 16.8 19.3 43 0 0 52.1 61.8 63.4 56.9 0 0 15 2.4 16.6-31.8 0 0 1.9-18.3-23.7-37.3l-31-39.1z"/>
					<path id="&lt;Path&gt;" class="s22" d="m7.4-507.8c0 0-17.4 7-16.7 30.3 0.8 23.2 44.1 64.9 44.1 64.9h51.6v-13.4c0 0-8.9-1.7-32-28.6 0 0-45.9-44.2-47-53.2z"/>
					<path id="&lt;Path&gt;" class="s23" d="m-222.5-779.1l186.1 198.8c0 0 37.6-66.1 56.3-84.1l-92-114.7z"/>
					<g id="&lt;Group&gt;">
						<path id="&lt;Path&gt;" class="s24" d="m-93-512c2.7-3.1 2.6-7.6 1.8-12.1-1.6-8.6-7.8-15.6-14.5-20.9-5.1-4-10.6-7.9-16.6-10.4-3.5-1.4-7.7-2.6-10.8 0.2-3.8 3.5-6.7 9-6.7 14.2 0 7.5 5.7 13.4 11.5 17.4 6.4 4.5 12.4 9.8 19.1 13.8 3.6 2.1 8.1 2.1 11.9 0.7 1.9-0.7 3.3-1.7 4.3-2.9z"/>
						<path id="&lt;Path&gt;" class="s8" d="m-96.2-502.7c2.7-3.1 2.6-7.6 1.8-12.1-1.6-8.7-7.8-15.6-14.5-20.9-5.1-4-10.6-8-16.6-10.4-3.5-1.4-7.7-2.6-10.8 0.2-3.8 3.5-6.7 9-6.7 14.2 0 7.5 5.7 13.4 11.5 17.4 6.4 4.5 12.4 9.7 19.1 13.8 3.6 2.1 8.1 2.1 11.9 0.7 1.9-0.7 3.3-1.7 4.3-2.9z"/>
					</g>
					<g id="&lt;Group&gt;">
						<path id="&lt;Path&gt;" class="s24" d="m-157.8-569.3c2.6-3.1 2.6-7.6 1.7-12.1-1.6-8.7-7.7-15.6-14.4-20.9-5.1-4-10.6-7.9-16.6-10.4-3.5-1.4-7.7-2.6-10.8 0.2-3.8 3.5-6.7 9-6.7 14.2-0.1 7.5 5.7 13.4 11.5 17.4 6.4 4.5 12.4 9.8 19.1 13.8 3.6 2.1 8.1 2.1 11.9 0.7 1.9-0.7 3.3-1.7 4.3-2.9z"/>
						<path id="&lt;Path&gt;" class="s8" d="m-161-560c2.6-3.1 2.6-7.6 1.7-12.2-1.6-8.6-7.7-15.5-14.4-20.8-5.1-4-10.6-8-16.6-10.4-3.5-1.4-7.7-2.6-10.8 0.2-3.8 3.5-6.7 9-6.7 14.2-0.1 7.5 5.7 13.4 11.5 17.4 6.4 4.5 12.4 9.7 19.1 13.8 3.6 2.1 8.1 2 11.9 0.6 1.9-0.6 3.3-1.6 4.3-2.8z"/>
					</g>
					<path id="&lt;Path&gt;" class="s25" d="m-96.5-480c0 0 58-144.3 109.2-193.5"/>
					<g id="&lt;Group&gt;">
						<path id="&lt;Path&gt;" class="s9" d="m108.8-520.6l-7.2 24.6c0 0-19.2-7.2-19.2-24.6 0-17.3 25.2-10.5 26.4 0z"/>
						<path id="&lt;Path&gt;" class="s6" d="m83.8-512.8c0 0 13.6-6 6.2-18.1"/>
					</g>
					<g id="&lt;Group&gt;">
						<path id="&lt;Path&gt;" class="s9" d="m98.2-460.2c0 0-9.8 25.1-9.8 27.1 0 1.9-27.5-12.8-17.3-33.1 10.1-20.4 27.1 6 27.1 6z"/>
						<path id="&lt;Path&gt;" class="s6" d="m69.9-450.9c0 0 15.4 0.4 11.7-23"/>
					</g>
					<g id="&lt;Group&gt;">
						<path id="&lt;Path&gt;" class="s9" d="m74.1-419.8v7.2l-23.8-0.2c0 0-4.2-33.4 23.8-7z"/>
						<path id="&lt;Path&gt;" class="s6" d="m56.8-430c0 0 5 19.4-2.3 17.2"/>
					</g>
				</g>
				<path id="&lt;Path&gt;" class="s19" d="m-164.6-567.6c-1.3 0-2.3-1.1-2.3-2.4v-4.4c0-1.3 1-2.4 2.3-2.4 1.3 0 2.4 1.1 2.4 2.4v4.4c0 1.3-1.1 2.4-2.4 2.4z"/>
				<path id="&lt;Path&gt;" class="s19" d="m-101.7-512.8c-1.9 0-3.4-1.6-3.4-3.5v-3.5c0-1.9 1.5-3.4 3.4-3.4 1.9 0 3.5 1.5 3.5 3.4v3.5c0 1.9-1.6 3.5-3.5 3.5z"/>
			</g>
			<g id="&lt;Group&gt;">
				<path id="&lt;Path&gt;" class="s26" d="m-161.5-779.1c0 0-15.1 98.9 17.4 167.6 0 0 35.1 2.7 112.7-32.5 0 0-34.2-81.9-25-135.1z"/>
				<path id="&lt;Path&gt;" class="s16" d="m-77.6-702.2h-3.8c-5.1 0-9.3-4.2-9.3-9.3 0-5.2 4.2-9.4 9.3-9.4h3.8c5.2 0 9.4 4.2 9.4 9.4 0 5.1-4.2 9.3-9.4 9.3z"/>
				<path id="&lt;Path&gt;" class="s16" d="m-77-743.4h-33.8c-4.4 0-8-3.6-8-8v-7.7c0-4.5 3.6-8.1 8-8.1h33.8c4.4 0 8 3.6 8 8.1v7.7c0 4.4-3.6 8-8 8z"/>
			</g>
			<g id="&lt;Group&gt;">
				<g id="&lt;Group&gt;">
					<path id="&lt;Path&gt;" class="s20" d="m584.3-643.2l-34.8 36.6 45.3 166.6 82.3-60.8-73.3-150z"/>
					<path id="&lt;Path&gt;" class="s23" d="m574.1-664.4l104.2-114.7h161.8l-0.3 182.4-159.8 126.8c0 0-33-99-62.5-128.5-29.5-29.6-43.4-66-43.4-66z"/>
					<path id="&lt;Path&gt;" class="s22" d="m594-450.3c0 0 17.5-0.6 5.8 37.5h-42.8c0 0 36-32.9 37-37.5z"/>
					<path id="&lt;Path&gt;" class="s22" d="m524.7-635.3c0 0 44-7.4 48.9 45.9 0.6 6.2-0.8 12.5-4 17.9-9.6 16.2-36.6 57.7-68 78.3-5.6 3.7-12.9 3.7-18.5 0-10.3-6.7-19.3-25.6 0.6-53.1 0 0 12.4-11.2 16.5-14.7 2.8-2.5 15.4-31.2 24.5-32.9z"/>
					<path id="&lt;Path&gt;" class="s22" d="m587-508c0 0 16.1 4.1 15.8 31.9 0 0 3.2 17.4-22.2 41l-23.6 22.3h-49.6c0 0-0.9-11.1 0.9-12.8 1.8-1.7 13.2-13.6 26.3-24.4l13.1-10.8c0 0 24.3-23.1 39.3-47.2z"/>
					<path id="&lt;Path&gt;" class="s22" d="m573.1-580.4c-0.1 0.5 3.5 3.5 3.8 4 3.2 3.4 6 7.2 8.4 11.2 7.1 11.3 11.1 24.6 9 38-2.1 13.6-10.5 24.4-18.5 35.2-8.3 11.2-17.4 22.1-28.1 31.2-12.7 10.8-26.5 20.8-37.6 33.5-0.5 0.6-1.1 1.2-1.8 1.7-4.9 3.2-14.1-0.3-18.1-3.7-7.5-6.2-9.2-16.3-10.2-25.4 0 0-3-25.1 12.7-35.7 0 0 5.3 0.3 12.5-5.2 7.3-5.6 17.6-14.9 17.6-14.9l18-19.8 20.9-28.6c0 0 10.4-15.4 11.4-21.5z"/>
					<path id="&lt;Path&gt;" class="s27" d="m680-469.9c0 0-36.5-96.1-51.8-115.3l184.3-193.9h27.6l-0.3 182.4z"/>
					<g id="&lt;Group&gt;">
						<path id="&lt;Path&gt;" class="s24" d="m748-558.4c-2.7-3.1-2.6-7.6-1.8-12.2 1.6-8.6 7.8-15.6 14.5-20.8 5.1-4 10.6-8 16.6-10.4 3.5-1.4 7.7-2.6 10.8 0.2 3.8 3.4 6.7 8.9 6.7 14.1 0.1 7.6-5.7 13.5-11.5 17.5-6.4 4.4-12.4 9.7-19.1 13.7-3.6 2.2-8.1 2.1-11.9 0.7-1.9-0.7-3.3-1.6-4.3-2.8z"/>
						<path id="&lt;Path&gt;" class="s8" d="m752.6-553.7c-2.7-3.1-2.6-7.6-1.8-12.1 1.6-8.7 7.8-15.6 14.5-20.9 5.1-4 10.6-8 16.6-10.4 3.5-1.4 7.7-2.6 10.8 0.2 3.8 3.5 6.7 9 6.7 14.2 0.1 7.5-5.7 13.4-11.5 17.4-6.4 4.5-12.4 9.7-19.1 13.8-3.6 2.1-8.1 2.1-11.9 0.6-1.9-0.6-3.3-1.6-4.3-2.8z"/>
					</g>
					<g id="&lt;Group&gt;">
						<path id="&lt;Path&gt;" class="s24" d="m686.3-509.7c-2.6-3.1-2.6-7.6-1.7-12.1 1.6-8.6 7.8-15.6 14.5-20.9 5.1-4 10.5-7.9 16.6-10.4 3.5-1.4 7.6-2.6 10.7 0.2 3.8 3.5 6.7 9 6.8 14.2 0 7.5-5.7 13.4-11.5 17.4-6.5 4.5-12.5 9.8-19.2 13.8-3.5 2.1-8 2.1-11.9 0.7-1.9-0.7-3.3-1.7-4.3-2.9z"/>
						<path id="&lt;Path&gt;" class="s8" d="m689.5-500.4c-2.6-3.1-2.6-7.6-1.7-12.2 1.6-8.6 7.8-15.5 14.5-20.8 5.1-4 10.5-8 16.6-10.4 3.5-1.4 7.6-2.6 10.7 0.2 3.8 3.5 6.7 9 6.8 14.2 0 7.5-5.7 13.4-11.5 17.4-6.5 4.5-12.5 9.7-19.1 13.8-3.6 2.1-8.1 2.1-12 0.6-1.9-0.6-3.3-1.6-4.3-2.8z"/>
					</g>
					<g id="&lt;Group&gt;">
						<path id="&lt;Path&gt;" class="s9" d="m483.5-523.8q3.5 9.8 6.9 19.7c0.6 1.6 1 3.5 1.8 5.1 0.4 0.9 0.5 0.8 1.5 0.2 1-0.6 2-1.2 2.9-1.8 3-2 5.8-4.3 8.2-7 2.6-2.9 4.8-6.5 5.5-10.4 0.8-4.4 0-11.5-4.3-14-2.3-1.4-5.1-1.9-7.7-1.5-2.5 0.3-4.7 1.3-6.8 2.6-1.4 0.8-2.7 1.8-3.9 2.9-0.5 0.5-4.3 3.6-4.1 4.2z"/>
						<path id="&lt;Path&gt;" class="s6" d="m498.9-533.6c0 0-3.9 19.2 10 19.9"/>
					</g>
					<g id="&lt;Group&gt;">
						<path id="&lt;Path&gt;" class="s9" d="m495.4-460.4l10.3 27c0 0 29.1-15.4 17.1-34.3 0 0-10.1-16.5-27.4 7.3z"/>
						<path id="&lt;Path&gt;" class="s6" d="m512-473.3c0 0-2.6 20 12.3 21.5"/>
					</g>
					<g id="&lt;Group&gt;">
						<path id="&lt;Path&gt;" class="s9" d="m518.2-421.2l2.6 8.4h22.4c0 0 5.2-30.5-25-8.4z"/>
						<path id="&lt;Path&gt;" class="s6" d="m534.3-429.2c0 0-4 15.3 4.9 16.4"/>
					</g>
					<path id="&lt;Path&gt;" class="s19" d="m706.7-511.2c-2.8 0-5 2.2-5 4.9 0 2.8 2.2 5 5 5 2.7 0 4.9-2.2 4.9-5 0-2.7-2.2-4.9-4.9-4.9z"/>
					<path id="&lt;Path&gt;" class="s19" d="m770.1-564.8h-3.9c-2.6 0-4.8 2.2-4.8 4.9 0 2.6 2.2 4.8 4.8 4.8h3.9c2.6 0 4.8-2.2 4.8-4.8 0-2.7-2.2-4.9-4.8-4.9z"/>
				</g>
				<path id="&lt;Path&gt;" class="s28" d="m577.9-668.7c6.4 12.9 13.2 25.7 20.6 38 4.1 6.9 8.4 13.8 13.3 20.1 5 6.6 11.6 11.3 17.1 17.4 14.7 16 23.3 36.6 31.6 56.3 8.8 21 16.5 42.6 22.7 64.5"/>
			</g>
			<g id="&lt;Group&gt;">
				<path id="&lt;Path&gt;" class="s29" d="m632-441.8l-1.6-1-1.8 0.7 0.4-1.8-1.3-1.4 2-0.1 1-1.6 0.7 1.7 2 0.5-1.6 1.2z"/>
				<path id="&lt;Path&gt;" class="s29" d="m658.1-466.1l-1.7-1-1.8 0.7 0.5-1.8-1.3-1.4 2-0.1 1-1.6 0.7 1.7 1.9 0.5-1.5 1.1z"/>
				<path id="&lt;Path&gt;" class="s29" d="m-199.2-496l-1.7-1.1-1.8 0.8 0.5-1.9-1.3-1.4 2-0.1 1-1.6 0.7 1.8 1.9 0.4-1.5 1.2z"/>
				<path id="&lt;Path&gt;" class="s29" d="m697-447l-1.6-1-1.8 0.7 0.5-1.8-1.3-1.4 1.9-0.1 1-1.6 0.8 1.7 1.9 0.4-1.5 1.2z"/>
				<path id="&lt;Path&gt;" class="s29" d="m741.9-445l-1.7-1-1.8 0.7 0.5-1.8-1.3-1.5 2-0.1 1-1.6 0.7 1.8 1.9 0.4-1.5 1.2z"/>
				<path id="&lt;Path&gt;" class="s29" d="m-218.2-534.7l-1.7-1-1.8 0.7 0.5-1.8-1.3-1.4 2-0.1 1-1.6 0.7 1.7 1.9 0.4-1.5 1.2z"/>
				<path id="&lt;Path&gt;" class="s29" d="m788.3-421.5l-1.7-1-1.8 0.7 0.5-1.8-1.3-1.4 2-0.1 1-1.6 0.7 1.8 1.9 0.4-1.5 1.2z"/>
				<path id="&lt;Path&gt;" class="s29" d="m829.1-439.2l-1.7-1-1.8 0.7 0.5-1.8-1.3-1.4 1.9-0.1 1.1-1.6 0.7 1.8 1.9 0.4-1.5 1.2z"/>
				<path id="&lt;Path&gt;" class="s29" d="m788.3-468.7l-1.7-1-1.8 0.7 0.5-1.8-1.3-1.4 2-0.1 1-1.6 0.7 1.7 1.9 0.4-1.5 1.2z"/>
				<path id="&lt;Path&gt;" class="s29" d="m815.6-496l-1.6-1.1-1.9 0.8 0.5-1.9-1.3-1.4 2-0.1 1-1.6 0.7 1.8 2 0.4-1.6 1.2z"/>
				<path id="&lt;Path&gt;" class="s29" d="m830.9-520.9l-1.6-1-1.9 0.7 0.5-1.8-1.3-1.4 2-0.2 1-1.6 0.7 1.8 2 0.4-1.6 1.2z"/>
				<path id="&lt;Path&gt;" class="s29" d="m777.5-479.7l-1.6-1-1.8 0.7 0.5-1.8-1.3-1.4 1.9-0.1 1-1.6 0.8 1.7 1.9 0.4-1.5 1.2z"/>
				<path id="&lt;Path&gt;" class="s29" d="m-192.5-511.2l-1.7-1.1-1.8 0.8 0.5-1.8-1.3-1.5 2-0.1 1-1.6 0.7 1.8 1.9 0.4-1.5 1.2z"/>
				<path id="&lt;Path&gt;" class="s29" d="m781.7-518.3l-1.6-1-1.8 0.7 0.4-1.8-1.2-1.4 1.9-0.1 1-1.6 0.8 1.7 1.9 0.4-1.5 1.2z"/>
				<path id="&lt;Path&gt;" class="s29" d="m825.3-479.7l-1.7-1-1.8 0.7 0.5-1.8-1.3-1.4 2-0.1 1-1.6 0.7 1.7 1.9 0.4-1.5 1.2z"/>
				<path id="&lt;Path&gt;" class="s29" d="m805.2-440.7l-1.7-1-1.8 0.7 0.5-1.8-1.3-1.4 2-0.1 1-1.6 0.7 1.7 1.9 0.5-1.5 1.2z"/>
				<path id="&lt;Path&gt;" class="s29" d="m751.8-496l-1.7-1.1-1.8 0.8 0.5-1.9-1.3-1.4 2-0.1 1-1.6 0.7 1.8 1.9 0.4-1.5 1.2z"/>
				<path id="&lt;Path&gt;" class="s29" d="m-159.3-508.6l-1.7-1-1.8 0.7 0.5-1.8-1.3-1.4 2-0.2 1-1.5 0.7 1.7 1.9 0.4-1.5 1.2z"/>
				<path id="&lt;Path&gt;" class="s29" d="m-223.8-473.5l-1.7-1-1.8 0.7 0.5-1.8-1.3-1.4 2-0.1 1-1.6 0.7 1.7 1.9 0.5-1.5 1.2z"/>
				<path id="&lt;Path&gt;" class="s29" d="m-221-441.1l-1.7-1-1.8 0.7 0.5-1.8-1.3-1.4 2-0.1 1-1.6 0.7 1.7 1.9 0.5-1.5 1.1z"/>
				<path id="&lt;Path&gt;" class="s29" d="m809-537.3l-1.7-1-1.8 0.7 0.5-1.8-1.3-1.5 2-0.1 1-1.6 0.7 1.8 1.9 0.4-1.5 1.2z"/>
				<path id="&lt;Path&gt;" class="s29" d="m822.5-554.7l-1.7-1-1.8 0.7 0.5-1.8-1.3-1.4 2-0.1 1-1.6 0.7 1.7 1.9 0.4-1.5 1.2z"/>
				<path id="&lt;Path&gt;" class="s29" d="m737.8-467.3l-1.6-1-1.8 0.7 0.5-1.8-1.3-1.4 1.9-0.1 1-1.6 0.8 1.7 1.9 0.5-1.5 1.1z"/>
				<path id="&lt;Path&gt;" class="s29" d="m-179.3-473.5l-1.7-1-1.8 0.7 0.5-1.8-1.3-1.4 2-0.1 1-1.6 0.7 1.7 1.9 0.5-1.5 1.2z"/>
				<path id="&lt;Path&gt;" class="s29" d="m-176.5-428.9l-1.6-1-1.9 0.7 0.5-1.8-1.3-1.5 2-0.1 1-1.6 0.7 1.8 2 0.4-1.6 1.2z"/>
				<path id="&lt;Path&gt;" class="s29" d="m708.1-473.5l-1.6-1-1.8 0.7 0.5-1.8-1.3-1.4 1.9-0.1 1-1.6 0.8 1.7 1.9 0.5-1.5 1.2z"/>
				<path id="&lt;Path&gt;" class="s29" d="m-71.2-459.7l-1.7-1-1.8 0.7 0.5-1.8-1.3-1.4 2-0.1 1-1.6 0.7 1.7 1.9 0.5-1.5 1.1z"/>
				<path id="&lt;Path&gt;" class="s29" d="m-127.1-479.7l-1.6-1-1.8 0.7 0.5-1.8-1.3-1.4 1.9-0.1 1-1.6 0.8 1.7 1.9 0.4-1.5 1.2z"/>
			</g>
			<g id="&lt;Group&gt;">
				<path id="&lt;Path&gt;" class="s26" d="m601.1-757.5l27.3-21.6h59.9c0 0 8.4 70.3 79.7 104l-100.5 79.8c0.3 0.4-76.1-56.3-66.4-162.2z"/>
				<path id="&lt;Path&gt;" class="s16" d="m640.6-758.2l-26.5 17c-2.8 1.8-3.6 5.5-1.8 8.3 1.8 2.7 5.5 3.5 8.2 1.7l26.5-17c2.8-1.7 3.6-5.4 1.8-8.2-1.8-2.7-5.5-3.5-8.2-1.8z"/>
				<path id="&lt;Path&gt;" class="s16" d="m625.1-700.6c-4.4 0-8-3.7-8-8.1 0-4.4 3.6-8 8-8 4.4 0 8 3.6 8 8 0 4.4-3.6 8.1-8 8.1z"/>
			</g>
		</g>
		<g id="&lt;Group&gt;">
			<path id="&lt;Path&gt;" class="s30" d="m840.2-23.7h-1080.2v-366.1h1080.2z"/>
			<path id="&lt;Path&gt;" class="s31" d="m96-184.8c0 0-11.3 101.2 67.8 160.6h-403.3v-320.2l58.3-15 148.8 58.1z"/>
			<path id="&lt;Path&gt;" class="s1" d="m240-389.8h79.4c0 0-32 33.6-79.4 35.6-47.4 2.1-65.4 7.5-65.4 7.5 0 0 17.5-14.3 35.3-16.4 17.7-2 30.1-26.7 30.1-26.7z"/>
			<path id="&lt;Path&gt;" class="s1" d="m208-388.4c-6.9 9.8-21.9 12.4-33.7 13.9-13.6 1.7-27.5 2-40.2 7-60.4 23.7-70.1 113.3-49.3 166.5 1.2 3.1 2.7 6.1 4.6 8.9 0.6 0.9 5.4 8 6.5 7.6-11.4 4.1-26.3 1.5-37.6-1.4-16.1-3.9-31.3-11-45.5-19.3-8.7-5.1-18.9-10.5-26.2-17.2-9.1-8.1-17.6-16.8-26.4-25.2q-10.5-10.1-21.1-20.2c-16.5-15.8-33-31.7-51.1-45.7-12.9-10-29.6-17-45.1-22.1-17.6-5.8-36.2-8.8-54.8-9.1l-28.1 0.4c0 0 0.6-45.5 0.6-45.5q197 0 394.1 0c16.8 0 37.4-2.7 53.3 1.4z"/>
			<g id="&lt;Group&gt;">
				<path id="&lt;Path&gt;" class="s32" d="m234.9-218.8c0 98.2-68.8 177.9-153.8 177.9-84.9 0-153.8-79.7-153.8-177.9 0-81.1 46.9-149.5 111-171h85.6c64.2 21.5 111 89.9 111 171z"/>
				<path id="&lt;Path&gt;" class="s32" d="m287.8-218.8c0 80.5-35.1 151.6-88.5 193.9h-229.4c-53.4-42.3-88.5-113.4-88.5-193.9 0-67.4 24.5-128.1 63.8-171h278.8c39.3 42.9 63.8 103.6 63.8 171z"/>
				<path id="&lt;Path&gt;" class="s32" d="m359.9-224.9c0 75.2-21.7 144.5-58.3 200h-455.1c-36.6-55.5-58.3-124.8-58.3-200 0-60 13.9-116.3 38.1-164.9h495.5c24.2 48.6 38.1 104.9 38.1 164.9z"/>
			</g>
			<path id="&lt;Path&gt;" class="s1" d="m-239.5-39.8v15.6h54.1c0 0-33.3-19-54.1-15.6z"/>
			<g id="&lt;Group&gt;">
				<path id="&lt;Path&gt;" class="s33" d="m90.5-111.3v-89.3h23.7l-5.6 89.3z"/>
				<path id="&lt;Compound Path&gt;" fill-rule="evenodd" class="s33" d="m144.7-314.1c7.6 19.4 1.7 43.4 0.2 63.6 0 0-4.7 60.8-44.8 59-40.1-1.7-36.7-51.5-36.7-51.5l5.3-54.4c0 0 8.7-43.4 41.9-42.9 16.5 0.3 28.2 11.6 34.1 26.2zm-31.6 1.9c-2.1-0.2-4.2 0.3-6.3 1-9.1 3.2-15.6 11.6-18.9 20.7-3.2 9.2-3.7 19-4.1 28.7q-0.4 9.6-0.9 19.2c-0.2 4.9-1.2 10.4-0.2 15.2q0.1 1 0.5 1.9c2.6 7.9 6.7 16.5 16.6 15.5 18.9-2 20.6-22.9 22.5-37.7 0.2-1.5 0.4-3.1 0.7-4.6 1.9-11.2 5.9-22.1 6.4-33.5 0.5-10.3-3.9-25.1-16.3-26.4z"/>
				<path id="&lt;Path&gt;" class="s33" d="m77-171v21.3h48.8v-21.3z"/>
			</g>
			<path id="&lt;Path&gt;" class="s34" d="m-75.2-182.4c0 24-15.7 43.4-35.1 43.4-19.5 0-35.2-19.4-35.2-43.4 0-24 15.7-43.4 35.2-43.4 19.4 0 35.1 19.4 35.1 43.4z"/>
			<path id="&lt;Path&gt;" class="s35" d="m-137.2-271.5c0 8.3-5.6 15-12.5 15-6.9 0-12.5-6.7-12.5-15 0-8.3 5.6-15 12.5-15 6.9 0 12.5 6.7 12.5 15z"/>
			<path id="&lt;Path&gt;" class="s31" d="m839.7-389.3h-27.4c0 0-28.4 59.3-60.1 72.4-31.7 13.1-65.1 23.4-65.1 23.4-18.7 7.2-40.7 15.5-55.3 29.5 31.6-7.1 60-5.8 91.3 3.5 12 3.6 24.2 8 36.9 8.8 11.6 0.7 23.8-2.3 35-5 15.2-3.6 30.3-8.4 44.7-14.5z"/>
			<path id="&lt;Path&gt;" class="s31" d="m554.3-188c18-16.2 43-28.2 67.6-25.1l34 6.9c0 0 42 11.1 63.8 5.8-0.9 0.3-3.5 4.5-4.2 5.3-4.7 4.6-10.6 8-16.7 10.4-21.9 8.7-47.7 8.1-69.9 1-8.7-2.7-17.1-7.5-26.3-8.4-11.3-1-23.4 0.5-34.8 0.8-4.7 0.1-9.6 0.4-13.5 3.3z"/>
			<path id="&lt;Path&gt;" class="s31" d="m699.1-113.8c9-10.1 21.5-17.7 33.8-15.7l17 4.3c0 0 21 7 31.9 3.7-0.5 0.1-1.8 2.8-2.1 3.3-2.4 2.9-5.3 5-8.4 6.5-10.9 5.5-23.8 5.2-34.9 0.7-4.4-1.8-8.6-4.8-13.2-5.3-5.6-0.6-11.7 0.3-17.4 0.5-2.3 0-4.8 0.2-6.7 2z"/>
			<g id="&lt;Group&gt;">
				<g id="&lt;Group&gt;">
					<g id="&lt;Group&gt;">
						<path id="&lt;Path&gt;" class="s36" d="m274.9-256.8l-3.8 93.4c0 0-1.7 40.2 14.7 43.6 16.3 3.4 42.4-13.9 42.4-13.9 0 0-4.7 15.2 4.8 52.1 9.5 36.9 7.9 57.9 7.9 57.9h66.4c17.4-25.7 19.1-41.1 18.7-47.1q-0.1-1.5-0.2-3c-1.5-24.5-69.5-89.4-69.5-89.4 0 0 42.9-7.1 27.3-39.5-19.6-40.8-32.4-3.5-32.4-3.5 0 0-24.3-25.4-12.4-54 0 0-15-11.7-36.1-3.2 0 0-11.8 8.5-27.8 6.6z"/>
						<path id="&lt;Path&gt;" class="s1" d="m274-230c0 0 0 7.2 0 7.2 4.9-3.3 12.9-10.3 19.7-7.2-6.9-3.2-12.7-1.3-19.7 0z"/>
						<path id="&lt;Path&gt;" class="s1" d="m273.2-213.4c0 0 3.1-11.5 21.4-4.2 0 0-12.1-0.6-13.8 0.9 0 0 4.4 6.1-2.6 10.2 0 0-6.2 0.7-5-6.9z"/>
						<path id="&lt;Path&gt;" class="s1" d="m272.1-178.8l-0.7 18.6c0 0 12.1-5.5 12.6-16.1 0 0-0.3-5.1-11.9-2.5z"/>
						<path id="&lt;Path&gt;" class="s36" d="m272.8-204.6c0 0-1.4 25.3-1.4 25.3 0 0-8.1-2.6-11.3-8-2.4-4 1.2-7.5 4.1-9.9 1.5-1.4 3-2.4 4.5-3.7 0.6-0.5 4.1-3 4.1-3.7z"/>
						<g id="&lt;Group&gt;">
							<path id="&lt;Path&gt;" class="s37" d="m310.7-220c0 15.5-10.8 28.2-24.1 28.2-13.3 0-24.1-12.7-24.1-28.2 0-15.6 10.8-28.2 24.1-28.2 13.3 0 24.1 12.6 24.1 28.2z"/>
							<path id="&lt;Path&gt;" class="s38" d="m346.6-218.9l-35.9 0.7"/>
						</g>
					</g>
					<path id="&lt;Path&gt;" class="s39" d="m252.1-279.1c0 0 0.8 28.4 27.9 27.3 0 0 16.2-1.5 22-7.4 5.9-5.8 15-4.6 15-4.6 0 0 13.9 0 20.3 8.1 0 0-16.4 39.6 13.3 55.1 0 0 6.4-20.5 17.9-15.5 12.6 5.4 14 20.9 10.1 32.3-1.8 5.2-4.4 10.4-8.7 14-2.2 1.9-4.7 3.3-7.5 4.1-1.4 0.4-9.7 1.8-10.4 0.3 0 0 7.4 16-7.3 32.4-14.7 16.4-12.1 39.5-12.1 39.5 0 0 4.4 25.1 25 22.5 20.5-2.6 23.5-11 23.5-11.1 0.9-2.4 3.4-4.3 5.9-3.8 2.7 0.6 4.3 3.7 6.1 5.5 7 6.5 18.8 8.6 28 9.6 0 0 18.5 2 25-16.3 0 0 7.4-13.4 17.1-13.2 9.7 0.3 19.1 5.3 19.1 5.3 0 0 22 7.3 23.8-19.9 0 0 0.3-9.9-2.1-14.6-2.3-4.7 8-12.9 8-12.9 0 0 17.9-14.6 17.6-38.6-0.1-10.2-1.5-20.6-5.3-30.1-3.7-9.4-10.3-16.4-17-23.8-5.6-5.2-10.4-11.3-14.6-17.6-3.6-5.5-6.7-11.3-8.6-17.5-2.1-6.8-2.1-14-5.1-20.5-2.8-6.2-7.4-11.7-12-16.6-5.1-5.5-10.9-13.7-18.5-15.9-8.2-2.5-16.7-0.3-24.9-1.7-6-1-10.4-6.7-13.1-11.7-5.4-10.2-21.1-17.2-32.4-16.5-11.1 0.7-25.3 8.2-33.4 15.3-12.1 10.5-25.9-7.6-25.9-7.6 0 0-5.3-5.9-16.2-4.1-10.8 1.8-15.3 9.1-15.3 9.1 0 0-3.8 5.5-3.5 20.5 0.1 6.6-4.1 11.7-9.6 14.9-5.2 3.2-11.4 3.8-15.8 8.5-4.3 4.7-6.5 10.9-6.3 17.2z"/>
				</g>
				<g id="&lt;Group&gt;">
					<path id="&lt;Path&gt;" class="s29" d="m308.1-322.2c10.1 4.5 21 6.8 31.9 5 2-0.7 4.3-1.7 6.4-2.3 2.9-0.8 6.2-0.8 9 0 0 0 3.7 0.9 3.7 0.9 2.4 0.7 4.9 1.4 7.3 2.1-2.6-0.1-5.1-0.4-7.6-0.6-3.6-0.5-7.2-1-10.8-0.1-0.5 0.1-1.1 0.4-1.6 0.5-1.8 0.8-3.6 1.6-5.5 2.3-11.3 2.3-23.7-0.7-32.8-7.8z"/>
				</g>
				<g id="&lt;Group&gt;">
					<path id="&lt;Path&gt;" class="s29" d="m293.2-306.8c9.8 9.5 16.4 11.7 29.8 9.5-10.1 10.2-27.4 4.6-29.8-9.5z"/>
				</g>
				<g id="&lt;Group&gt;">
					<path id="&lt;Path&gt;" class="s29" d="m435-288.8c5.8 3 8.9 9.1 12.1 14.4 6.7 10.7 12.3 22.9 12.7 35.9 0.1 2.8 0 5.7-0.4 8.5-0.6 3.7-1.9 7.3-3.1 10.6-2.2 5.9-5 11.4-6.5 17.4-1.4 5.9-1.4 12.1-0.4 18 1.1 6 3.6 11.9 6.3 17.4 2.7 5.5 6.3 10.9 11.8 14-6-2.4-10.3-7.7-13.5-13.1-3.3-5.6-6.1-11.3-7.6-17.6-4.5-19.5 4.3-29 9-46.2 2.6-15.4-2.8-30.4-10.1-43.9-2.7-5.7-5-11.7-10.3-15.4z"/>
				</g>
				<g id="&lt;Group&gt;">
					<path id="&lt;Path&gt;" class="s29" d="m423.5-234.1c-0.5 12.4-1.6 24.8-2.7 37.1-0.7 8.7-2.4 17.3-2.3 26.2 0 11.3 2.1 23.7 10.8 31.7 1.7 1.5 3.7 2.8 5.7 4-2.2-0.9-4.3-1.9-6.3-3.3-9.9-7.4-12.8-20.6-13.1-32.4-0.2-9.1 1.5-17.5 2.4-26.5 1.6-12.3 3.3-24.6 5.5-36.8z"/>
				</g>
				<g id="&lt;Group&gt;">
					<path id="&lt;Path&gt;" class="s40" d="m344.3-262.9c7.1-10.1 20.1-14.5 32-14.4 4.3 0.2 9.1 0.7 13.4 0.7 2.8-0.1 6-0.3 8.8-1 3.5-0.8 7.2-2.2 9.3-5.2 0.4-0.6 0.8-1.3 1-2-0.2 1.5-1.1 2.9-2.1 4-3.1 3.4-7.9 4.8-12.4 5.5-5.8 0.9-12.1 0.2-18 0-11.7-0.1-23.9 3.6-32 12.4z"/>
				</g>
				<g id="&lt;Group&gt;">
					<path id="&lt;Path&gt;" class="s40" d="m288.3-326c0.1 0-0.2 0 0.2 0 0 0 0 0.1 0 0.2 0.1 0.3 0.3 1 0.4 1.4 0.1 0.9 0.6 2.4 0.5 3.2-0.1 0.5-0.4 1.1-0.9 1.6h-0.2c-1-1-1.1-2-0.7-3.2 0.2-1.1 0.4-2.2 0.7-3.2 0.4 0 0.1 0 0.2 0 0 0-0.2 0-0.2 0z"/>
				</g>
				<g id="&lt;Group&gt;">
					<path id="&lt;Path&gt;" class="s40" d="m488-100.5q-5.8-0.2-11.7-0.8c-1.9-0.2-3.9 0-5.8-0.7-1.8-0.6-3.7-1.4-5.4-2.8l0.1-0.4c4.1-1.4 7.9-0.6 11.7 0.8q5.7 1.6 11.2 3.5c0 0-0.1 0.4-0.1 0.4z"/>
				</g>
				<g id="&lt;Group&gt;">
					<path id="&lt;Path&gt;" class="s40" d="m259.6-285.7c0.4 6.2 1.4 12.2 3.9 17.9 0.7 1.9 1.7 3.7 2.5 5.8-7.3-5-10.3-15.7-6.4-23.7z"/>
				</g>
				<path id="&lt;Path&gt;" class="s41" d="m434.1-321.1c0 0.1-0.9 0.2-2 0.2-1.1 0-2.1-0.1-2.1-0.2 0-0.1 1-0.2 2.1-0.2 1.1 0 2 0.1 2 0.2z"/>
				<path id="&lt;Path&gt;" class="s40" d="m448.8-319.5c-0.1 0.9-1.8 1.4-3.8 1.1-2-0.2-3.6-1.1-3.5-2 0.1-0.8 1.8-1.3 3.8-1.1 2 0.3 3.6 1.2 3.5 2z"/>
				<path id="&lt;Path&gt;" class="s42" d="m361.2-142.2c0 0 0.2 9.6-12.4 23.8-12.5 14.3 3.1 31.1 3.1 31.1 0 0 8.6 10.1 18.1-2.4 9.4-12.5 21.9-3.1 21.9-3.1 0 0 0.3-5.9-8.1-7.8 0 0-9.9-0.3-15.8-6.8-6-6.6-5.3-19.1-5.3-19.1 0 0 1.5-11.8-1.5-15.7z"/>
				<g id="&lt;Group&gt;">
					<path id="&lt;Path&gt;" class="s1" d="m241.8-257.3c11.9 5.8 22.1 7.9 35 4.4-9.9 9.3-27.2 6.2-35-4.4z"/>
				</g>
			</g>
			<path id="&lt;Path&gt;" class="s43" d="m8.1-313.5l5.8-23.2 1.8 23.2h15.2l-15.6 5.8-2.3 26.7-4.9-24.5-13.9-5.8z"/>
			<path id="&lt;Path&gt;" class="s44" d="m727.7-44.6l-18.6 6.9-1 13.2h-5.3l-2.1-10.5-16.5-7 16.5-2.6 6.9-27.9 2.1 27.9z"/>
			<path id="&lt;Path&gt;" class="s31" d="m296.8-36.7c-5.6 7.2-18.3 6.8-28.3-1-10.1-7.8-13.6-19.9-8-27.1 5.6-7.3 18.3-6.8 28.4 0.9 10 7.8 13.6 19.9 7.9 27.2z"/>
			<path id="&lt;Path&gt;" class="s45" d="m421.6-23.6h184.8c0 0-12.1-77.8-71.7-75.7 0 0-57.2 8.2-107.2 37.8z"/>
			<path id="&lt;Path&gt;" class="s1" d="m426-67.5c0 0 2.3 13.2-18.7 43.8h14.3c0 0 20.9-38.5 4.4-43.8z"/>
			<path id="&lt;Path&gt;" class="s1" d=""/>
			<path id="&lt;Path&gt;" class="s1" d="m534.7-99.3c0 0-10.8 47.2 0 75.7h71.7c0 0-10.7-76.7-71.7-75.7z"/>
			<path id="&lt;Path&gt;" class="s1" d="m340.6-38.4l0.3 14.7h-12c0 0 7.5-15.7 11.7-14.7z"/>
			<path id="&lt;Path&gt;" class="s46" d="m564.5-32.7l-7.1-8.5-7-8.6 6.8 1.6 6.8 1.5 0.3 7z"/>
			<path id="&lt;Path&gt;" class="s46" d="m511.3-27.6l-2.6-3.2-2.7-3.3 8-3.9 8.1-3.8-5.4 7.1z"/>
			<path id="&lt;Path&gt;" class="s46" d="m465.2-38.2l-1.3 4-1.2 4-7.7-4.5-7.7-4.6 8.9 0.6z"/>
			<g id="&lt;Group&gt;">
				<g id="&lt;Group&gt;">
					<path id="&lt;Path&gt;" class="s47" d="m35.7-23.7c0 0-0.3-38.1 22-49.8l32.9-25.9c2-1.5 4.9-1.1 6.3 1.1 1.7 2.8 3.1 6.9 1.1 11.8 0 0 12.2 5.4 1 19.5-11.2 14.1-26.4 35.8-26.4 35.8l31.2-24.3 8.7 17v14.8z"/>
					<path id="&lt;Path&gt;" class="s48" d="m98-86.5l-31.6 30.5"/>
					<path id="&lt;Path&gt;" class="s48" d="m112.5-38.5l-17.2 14.8"/>
				</g>
				<g id="&lt;Group&gt;">
					<path id="&lt;Path&gt;" class="s49" d="m109.8-23.7h138.9c0 0-23.4-59.5-79.4-64.8-2.3-0.2-4.4 1.9-4.3 4.5 0 4.5 1.7 11.3 10.1 16.1 0 0-47.9-13.1-67.7-12.8-3.2 0-5.7 2.9-5.7 6.4v1.5c0 4.1 2.5 7.6 6.1 8.3 10.7 2.4 32.7 7.8 42.8 14.9l-46-7.3c-1.9-0.3-3.3 1.7-2.8 3.7l4.1 15.1z"/>
					<path id="&lt;Path&gt;" class="s49" d="m175.1-67.9c0 0 32.9 12 36.2 16.1"/>
					<path id="&lt;Path&gt;" class="s49" d="m105.9-38.1l46.4 8.9"/>
				</g>
				<path id="&lt;Path&gt;" class="s47" d="m43.3-58c0 0 1.2-46 20.1-20 0 0-13.8 10.4-20.1 20z"/>
			</g>
		</g>
		<g id="&lt;Group&gt;">
			<path id="&lt;Path&gt;" class="s50" d="m839.2 378.1h-1080v-376.8h1080z"/>
			<path id="&lt;Path&gt;" class="s51" d="m-206 128.8c0 0-25.8 1.5-25.3 18.7 0.5 17.2 22.8 14.2 22.8 14.2 0 0 33.4 2.2 30.4-16.4-3.1-18.6-27.9-16.5-27.9-16.5z"/>
			<path id="&lt;Path&gt;" class="s51" d="m-42.9 53.4c-12.4-0.2-25.1 0.4-36.7 2.9-14.1 2.9-30.1 10.3-30.1 26.9 0 7.4 5.3 12.4 11.8 15.3 10.1 4.7 22.4 5 33.4 4.8 19.2-0.5 39.5 1.1 58.4-1.4 12.1-1.7 31.8-5.6 32-21.2 0.4-21.9-30.6-25.2-46.4-26.3-7.3-0.5-14.8-0.9-22.4-1z"/>
			<path id="&lt;Path&gt;" class="s51" d="m512.4 1.5h136.1c0 0 4.3 25.3-68.1 24.5-72.4-0.8-68-24.5-68-24.5z"/>
			<path id="&lt;Path&gt;" class="s51" d="m487 114.6c0 0 31.7-2.1 29 19.7-2.5 20.1-45 19.3-57.2 10.8-14-9.6-7.9-21.4 6.2-26.1 6.9-2.3 14.7-3.8 22-4.4z"/>
			<path id="&lt;Path&gt;" class="s51" d="m726.1 59.8c-18.1-0.5-39.3-0.2-55.3 9.3-8.7 5.2-16 15.3-13.7 25.9 5 22.7 43.4 22.8 60.8 22.8l122.1 2.4q0-26.2 0-52.5c0-7.7 0-20.1 0-27.9 0-2.3-1.3-2.6-2.6-3.1-3.6-1.3-12.8 2.4-16.6 3.2-10.4 2.3-20.8 5.1-31 8.4q-8 2.6-15.9 5.5c-10.3 3.8-20.7 6.5-31.8 6.4-5.4-0.1-10.7-0.3-16-0.4z"/>
			<path id="&lt;Path&gt;" class="s52" d="m12.4 194.1c0 7.7-1.3 13.9-9 13.9-7.6 0-10.9-6.2-10.9-13.9 0-7.6 3.3-13.8 10.9-13.8 7.7 0 9 6.2 9 13.8z"/>
			<path id="&lt;Path&gt;" class="s52" d="m513.6 64.5c0 7.6-1.3 13.8-9 13.8-7.6 0-10.9-6.2-10.9-13.8 0-7.6 3.3-13.8 10.9-13.8 7.7 0 9 6.2 9 13.8z"/>
			<path id="&lt;Path&gt;" class="s52" d="m191.4 64.5c0 7.6-1.4 13.8-9 13.8-7.7 0-11-6.2-11-13.8 0-7.6 3.3-13.8 11-13.8 7.6 0 9 6.2 9 13.8z"/>
			<path id="&lt;Path&gt;" class="s52" d="m658.3 163.8c0 11.5-1.8 20.8-11.6 20.8-9.8 0-14-9.3-14-20.8 0-11.4 4.2-20.7 14-20.7 9.8 0 11.6 9.3 11.6 20.7z"/>
			<path id="&lt;Path&gt;" class="s52" d="m816.5 163.8c0 7.7-1.4 13.9-9 13.9-7.6 0-11-6.2-11-13.9 0-7.6 3.4-13.8 11-13.8 7.6 0 9 6.2 9 13.8z"/>
			<path id="&lt;Path&gt;" class="s52" d="m-160.8 50.3c0 7.6-1.4 13.8-9 13.8-7.6 0-11-6.2-11-13.8 0-7.7 3.4-13.9 11-13.9 7.6 0 9 6.2 9 13.9z"/>
			<path id="&lt;Path&gt;" class="s53" d="m-240 376.7h1080v-114.1h-1080z"/>
			<path id="&lt;Path&gt;" class="s54" d="m840 262.6h-1080v-13.2h1080z"/>
			<path id="&lt;Path&gt;" class="s55" d="m-239.5 376.2v-70.5c0 0 36.6-11.3 63.1-6.6 26.5 4.7 70-5.7 70-5.7 0 0 60.1-23.2 64.9 34.6 4.7 57.7 52.3 40.4 52.3 40.4v8.4z"/>
			<path id="&lt;Path&gt;" class="s56" d="m-222.4 376.3h68.9l-1.2-30.8c0 0-65.2-20.9-67.7 30.8z"/>
			<path id="&lt;Path&gt;" class="s57" d="m-172.3 296.3c0 0-14.7 11.8-12 37.2 2.6 25.4 12 43.2 12 43.2h92.6c0 0 13.3-28.5 11.8-44.4-1.4-16-7.7-32.6-16.2-38.7l-88.6-2.4z"/>
			<path id="&lt;Path&gt;" class="s1" d="m-162.1 300.8c0 0 93.4 22.6 90.7 53.9 0 0 4.5-15.1 3.5-22.4 0 0-3-30.5-16.2-38.7l-80 0.8z"/>
			<path id="&lt;Path&gt;" class="s58" d="m-157.5 161.9c0 0 9.6 3.7 30.6 3.7 21 0.1 35.2-3.7 35.2-3.7l33.2 124.7c0 0-3.5 11.2-41.7 13.3h-61.9c0 0-31.1-2.8-31.9-6.3-0.7-3.5 36.5-131.7 36.5-131.7z"/>
			<path id="&lt;Path&gt;" class="s6" d="m-100.2 299.9l-9.5-135.1"/>
			<path id="&lt;Path&gt;" class="s6" d="m-139.7 165.1l-22.4 134.8"/>
			<path id="&lt;Path&gt;" class="s58" d="m-157.5 161.9c0 0-2.4-3.2 6.6-3.7 8.9-0.6 50.7-0.7 50.7-0.7 0 0 9.6-0.2 8.5 4.4 0 0-34 7.8-65.8 0z"/>
			<path id="&lt;Path&gt;" class="s58" d=""/>
			<path id="&lt;Path&gt;" class="s1" d="m-139.7 165.1c0 0 14.9-9.4 30-0.3z"/>
			<path id="&lt;Path&gt;" class="s1" d="m-122 234c0 1.6 1.4 3 3.1 3 1.6 0 3-1.4 3-3 0-1.7-1.4-3.1-3-3.1-1.7 0-3.1 1.4-3.1 3.1z"/>
			<path id="&lt;Path&gt;" class="s1" d="m-146.3 252.7c0 1.8 1.4 3.3 3.3 3.3 1.8 0 3.3-1.5 3.3-3.3 0-1.8-1.5-3.3-3.3-3.3-1.9 0-3.3 1.5-3.3 3.3z"/>
			<path id="&lt;Path&gt;" class="s1" d="m-124.7 273.1c0 2.4-0.3 4.4-0.8 4.4-0.4 0-0.7-2-0.7-4.4 0-2.5 0.3-4.5 0.7-4.5 0.5 0 0.8 2 0.8 4.5z"/>
			<path id="&lt;Path&gt;" class="s59" d=""/>
			<g id="&lt;Group&gt;">
				<path id="&lt;Path&gt;" class="s60" d="m259.7 0.1c0 0 90.9 0 91.9 0-0.1 0 3.6 6 4.2 6.5 2.6 2.4 6.3 3.5 9.4 5.3 2.7 1.6 5 3.9 7.2 6.2 12.7 13.8 20.7 32 22.5 50.7 2.9 31.7-19.6 87.6 19.9 104.2 14.6 6.1 30.5 16 36.8 31.2 1.9 4.4 2.7 9.2 2.5 13.9-1.2 23.9-3 48.7-18.1 68.4-7.9 10.3-19.1 16.7-29.9 23.6-5.6 3.6-11.3 7.6-17.4 10.3-0.3 0.1-0.7 0.3-1 0.4l-159.4 9.2c0 0-24 5.6-30.2-18.1-6.2-23.6 25.3-113.7 25.3-113.7 0 0-19.6 0.2-19.8-21.3-0.2-10.5 1.6-20.8 8.1-29.4 4.5-6.1 10.6-11.1 16.8-15.6 5.5-3.9 11.4-7.7 14.9-13.5 4.7-7.6 4.5-17.2 2.4-25.8-2-8.6-5.6-16.8-7.5-25.4-2.8-13-1.4-26.7 3.2-39.2 2.2-5.9 5-11.4 9-16.3 1.1-1.4 7.5-11.6 9.2-11.6z"/>
				<path id="&lt;Path&gt;" class="s6" d="m283.4 133.4c0 0-6.8 14.1-19.3 32-12.5 17.8 0 32.6 0 32.6"/>
			</g>
			<path id="&lt;Path&gt;" class="s59" d="m303 170.6l34.1 12c0 0 5.1-30.1 8.6-37.3l-42.7 19.9z"/>
			<path id="&lt;Path&gt;" class="s61" d="m303.3 166.3c1.5 0.7-1.9 14.5-2.3 15.7-1.2 4.4-3.1 8.7-5.7 12.5-4.7 6.6-10.6 11.2-18.8 11.3-3.7 0-7.4-0.6-11.1-1.5-4.2-1-8.8-1.9-12.8-3.8-7.1-3.4-14-6.2-22-5.2-6.4 0.7-12.3 3.7-17 8.1-16.6 15.6-36.2 27.8-57.2 36.4-3.9 1.6-51.2 14.5-50.9 16.6 0 0-6.8-64.9-6.8-64.9l4.4-31c0 0 9.9-59.8 25.5-88.5 0 0 17.1-34.4 11.5-55.2 0 0 0.9-19.3-3.7-14.4-0.2 0.2-1.2 0.4-1.5 0.5-1.3 0.6-2.5 1.4-3.7 2.3-1.7 1.5-3.1 3.2-4.3 5.2q-1.1 1.9-1.9 3.9c-0.6 1.5-1.4 2.9-1.6 4.5-0.5-3.4-0.9-6.8-1.6-10.2-0.2-1.2-1.3-8.6-3.2-8.6 0 0-21.2 0-21.2 0q-6 6.5-12.1 12.9-9 9.7-18.1 19.4c-3.7 3.9-5.9 8.4-6 13.9-0.1 6.3 3 11.7 7.8 15.5 14.3 11.1 22 11.6 27 6.4 1.7-1.8-5.8 10.1-7.9 12.5-20 24.2-27.5 53.5-37 83.2-8.1 25.5-19.1 53.6-19.8 80.7-0.9 35.1 35.3 73 35.3 73l76 4.9 27.9-3.8 50.1-36c0 0 18.3-4.7 25.3 6.3l25.9 6.7c0 0 10.3-4 38.3 29.3 0 0 16.5-23 21.5-22.5l34.4-20.4 16.7 16.2 7.4-14.5c0 0 40.9 76.9 63.5 93h146.4c0 0 3.8-63-3.3-91.7-7.2-28.7-13.3-111.6-13.3-111.6 0 0 40-66.6 14.5-87l-19.4-26c0 0-15.1-11.4-22.1 11.4 0 0-4.4-30.3-16.3 5.6 0 0-8 40.1 4.2 71.9l-1.9 159-87.8-35.8c0 0-32.9-52.8-40.2-53.2 0 0-18.6 23.2-38 21.7-19.4-1.4-35.9-26.5-35.9-26.5 0 0-4.3-16.7-3.5-33.9 0 0-33.7-14.2-33.7-14.3z"/>
			<g id="&lt;Group&gt;">
				<path id="&lt;Path&gt;" class="s62" d="m277.9 71.3c-1.3-14.6 1.2-28.7 15.3-37.4 6.1-3.8 10.9-5.9 18.1-5.5 6.6 0.4 13.5 2.6 17.4 8.3 0 0 8.1 12.4 8.1 12.4 1.6 2.4 2.7 5.2 4.5 7.6 4.2 5.7 12.5 10.2 14.4 17 0.8 2.8 0.9 5.7 0.9 8.6 1.7-1.2 3.4-2.3 5.4-2.9 2-0.5 4.3-0.2 5.7 1.2 6.4 6.3-0.1 23.4-4.3 29.2-2.9 4.1-8.5 7.3-10.8 11.4-2.8 4.8-1.9 12.4-3.8 17.7-4.1 10.9-16 22.5-27.4 25.6-5.8 1.6-11.9 0.4-17.9 0.8 0 0-7.5-24-20.1-31.9-0.2-0.1 2-11.2 2-12.3 0.1-6.2-0.8-12.4-1.9-18.5-1.8-9.4-4.7-20.5-5.6-31.3z"/>
				<g id="&lt;Group&gt;">
					<g id="&lt;Group&gt;">
						<path id="&lt;Path&gt;" class="s1" d="m351 89.3c0 11.5-7.9 20.9-17.7 20.9-9.8 0-17.7-9.4-17.7-20.9 0-11.6 7.9-20.9 17.7-20.9 9.8 0 17.7 9.3 17.7 20.9z"/>
						<path id="&lt;Path&gt;" class="s1" d="m300.6 92.6c0 11.6-8 20.9-17.8 20.9-9.7 0-17.7-9.3-17.7-20.9 0-11.5 8-20.9 17.7-20.9 9.8 0 17.8 9.4 17.8 20.9z"/>
						<path id="&lt;Path&gt;" class="s63" d="m300.3 89.3h15.3"/>
						<path id="&lt;Path&gt;" class="s63" d="m350.1 82.8l7-1.7"/>
					</g>
					<path id="&lt;Path&gt;" class="s64" d="m319.9 99.4l4.6 4.1 22.1-24.3-4.5-4.2z"/>
					<path id="&lt;Path&gt;" class="s64" d="m269.5 102.7l4.5 4.2 22.2-24.4-4.5-4.1z"/>
				</g>
				<path id="&lt;Path&gt;" class="s59" d="m299.2 127.8c0 0 8.9-18.1 17.5 0z"/>
				<g id="&lt;Group&gt;">
					<path id="&lt;Path&gt;" class="s59" d="m313.3 130c-0.2 2.8-2.1 5.2-4.8 6 0.2-2.8 2.1-5.2 4.8-6z"/>
				</g>
				<path id="&lt;Path&gt;" class="s65" d="m309.6 89.5v17"/>
				<path id="&lt;Path&gt;" class="s59" d="m303.3 113.5h10.4c0 0-2.6-11.1-10.4 0z"/>
				<path id="&lt;Path&gt;" class="s59" d="m320.4 66.6c-1.6 0.9-3 2.1-3.6 4.1-0.8 3.1 5 1.2 6.1 0.6 2.2-1 4-2.5 6-3.9 2-1.4 4.2-2.6 6.4-3.8 0.6-0.3 2.4-1.1 2.4-2 0-1.1-1.6-0.3-2.3-0.1q-5.6 1.4-11 3.4c-1.3 0.5-2.7 1-4 1.7z"/>
				<path id="&lt;Path&gt;" class="s59" d="m287.1 69.3c2 0.3 4 0.4 6 0.1 0.6-0.1 1.2-0.3 1.4-0.8 0.1-0.5-0.3-1-0.7-1.3-2.8-2.3-5.3-3.4-8.9-3.4-2.1 0-4.3 0.3-6.3 0.9q-1.9 0.5-3.6 1.4c-0.9 0.4-2.9 2.3-3.8 2.3q4.4-0.1 8.7 0.1c2.4 0.1 4.8 0.5 7.2 0.7z"/>
			</g>
			<path id="&lt;Path&gt;" class="s6" d="m308.5 204.5l2.4 11.3 8.5-11.3"/>
			<path id="&lt;Path&gt;" class="s14" d="m225.1 197.1c0 0 4.1-3 10.6-1.9 0 0 8.4 66.6 9.5 92.8l26 7.7 3.5-1.7c0 0 20.9 9.3 34.3 30.9 0 0 15.1-24.2 23-25.4 7.9-1.2 34-16.9 34-16.9l0.7-43.9 2 0.9c2.7 1.1 5.8 1.6 8.7 1.8h2.6l-4.5 49c0 0 12.1 5 13.2 19.3 1.1 14.3 0 21.7 0 21.7l-13.7 38.8v6.5h-151.8v-44.8l11.5-39.9z"/>
			<path id="&lt;Path&gt;" class="s6" d="m556.4 71.8c0 0-12.7 81 38.4 34.7"/>
			<path id="&lt;Path&gt;" class="s6" d="m96 68.1l27.4-48.7-0.8 3.5c0 0-18.5 39.9-5 51.7"/>
			<path id="&lt;Path&gt;" class="s61" d="m81.1 36.4l20.3 22.1"/>
			<path id="&lt;Path&gt;" class="s61" d="m96 19.4l16.5 19.5"/>
			<path id="&lt;Path&gt;" class="s61" d="m555.1 96.3l17-23.9"/>
			<path id="&lt;Path&gt;" class="s61" d="m563.6 119.7l24-30.4"/>
			<path id="&lt;Path&gt;" class="s1" d="m555.8 110.4c0 0-6 25.5 18.1 27.9 0 0 12.1 5.2 16.7-7.8 4.6-12.9 6.2-28.2 6.2-28.2 0 0-9.8 16.6-27.6 18.5 0 0-11.9-2-13.4-10.4z"/>
			<path id="&lt;Path&gt;" class="s66" d="m68.6 61.3l6 4.4c0 0-2.1 12.4 9.7 12.2 11.9-0.2 28.4-23.7 28.4-23.7v13.9c0 0-14.7 19.4-27.8 21.6-13.2 2.3-22.9-17.3-16.3-28.4z"/>
			<path id="&lt;Path&gt;" class="s66" d="m556.1 104.5c0 0-14.7 29.2 15.2 33.2 0 0 23.6 0.7 21.6-29.5l-8 6.4c0 0-2.3 15.7-12.8 14.7-10.4-1-11.4-12.6-11.4-12.6z"/>
			<path id="&lt;Path&gt;" class="s66" d="m106.1 75.7c0 0 56.2 136.6 193.1 173.7 136.8 37.1 255.8-120.3 255.8-120.3l3.2 3.6c0 0-115.8 154.2-258.2 123.3-142.4-30.9-197.1-177.2-197.1-177.2"/>
			<path id="&lt;Path&gt;" class="s66" d="m189.4 189.6c0 0-35.9 28.2-32.6 39.3 3.3 11 38.4-34.8 38.4-34.8l-2.4-1.8c0 0-30.6 35.3-31.8 34.1-1.3-1.3 29.8-35.3 29.8-35.3z"/>
			<path id="&lt;Path&gt;" class="s67" d="m10.8 376.8h-6.8v-112.9h6.8z"/>
			<path id="&lt;Path&gt;" class="s66" d="m183.2 193.9l12.6-23.5 12.8 16.8-17.9 14.1z"/>
			<path id="&lt;Path&gt;" class="s66" d="m248.6 237.1l6.5 2.8c0 0-8 52.2-14.6 47.9-6.5-4.2 8.1-50.7 8.1-50.7z"/>
			<path id="&lt;Path&gt;" class="s66" d="m247 237.8l2.1-29.3 15.4 4.8-9.1 28.3z"/>
			<g id="&lt;Group&gt;">
				<path id="&lt;Path&gt;" class="s68" d="m227.5 290.7c0 0-12.8-3.5-16-2.3-3.1 1.3-10-1-10.4 50l-6.4 38.3h36.3z"/>
				<path id="&lt;Path&gt;" class="s69" d="m225.4 290.3c0 0-9.8-2.7-13.9-1.9-4 0.9-10.5 6-10.4 50l30.9 2.6z"/>
				<path id="&lt;Path&gt;" class="s1" d="m201.1 338.4l-1.5 8.9 31.4 2.4 1-8.7z"/>
				<g id="&lt;Group&gt;">
					<path id="&lt;Path&gt;" class="s70" d="m201.1 299.4c0 0-0.8-7.8 4.9-11.1 0 0 1.6 8.3-4.9 11.1z"/>
					<path id="&lt;Path&gt;" class="s71" d="m206 288.3l5.2 0.6c0 0-1.5 9.4-6.3 14.6l-3.8-4.1c0 0 5.3-6.1 4.9-11.1z"/>
				</g>
				<g id="&lt;Group&gt;">
					<path id="&lt;Path&gt;" class="s70" d="m200.1 321.4c0 0-3.5-7.2 0.7-12.2 0 0 4.4 7.3-0.7 12.2z"/>
					<path id="&lt;Path&gt;" class="s71" d="m200.8 309.2l5.1-1.2c0 0 1.9 9.4-0.8 15.9l-5-2.5c0 0 2.9-7.6 0.7-12.2z"/>
				</g>
				<path id="&lt;Path&gt;" class="s72" d="m209.9 343.4c0 1.8-1.5 3.3-3.3 3.3-1.9 0-3.4-1.5-3.4-3.3 0-1.9 1.5-3.4 3.4-3.4 1.8 0 3.3 1.5 3.3 3.4z"/>
				<path id="&lt;Path&gt;" class="s72" d="m221.9 344.3c0 1.9-1.5 3.4-3.4 3.4-1.8 0-3.3-1.5-3.3-3.4 0-1.8 1.5-3.3 3.3-3.3 1.9 0 3.4 1.5 3.4 3.3z"/>
			</g>
			<path id="&lt;Path&gt;" class="s73" d="m225.4 290.3l32.3-13.8c0 0 11.6-7.6 18 12 6.3 19.5 23.5 80.5 23.5 80.5 0 0 0.5 6.1-2 7.3-2.5 1.3-62.2 0-62.2 0l-16.3-68.3c0 0-4.4-15.9 6.7-17.7z"/>
			<path id="&lt;Path&gt;" class="s71" d="m228.4 298.6l32.3-12.8c0 0 6.1-1.1 9.1 11.8l18.3 65.4c0 0 3.5 12.9-5.2 13.1-8.8 0.3-39.1-0.1-39.1-0.1l-15.4-68c0 0-2.5-8.4 0-9.4z"/>
			<path id="&lt;Path&gt;" class="s66" d="m352.8 259.1c-0.3-1.2-2.1-38.1-2.1-38.1l15.5 4.8-6.2 33.2z"/>
			<path id="&lt;Path&gt;" class="s74" d="m381.6 368.9l4.7-3.3 0.7 2.9-5 3.5z"/>
			<g id="&lt;Group&gt;">
				<path id="&lt;Path&gt;" class="s75" d="m394.3 346.7c0 13.5-9.7 24.4-21.8 24.4-12.1 0-21.8-10.9-21.8-24.4 0-13.4 9.7-24.4 21.8-24.4 12.1 0 21.8 11 21.8 24.4z"/>
				<path id="&lt;Path&gt;" class="s75" d="m415.1 378.1h-37.6c3.8-7.2 10.8-12 18.8-12 8 0 15 4.8 18.8 12z"/>
				<path id="&lt;Path&gt;" class="s75" d="m372.5 295.9c0 13.5-9.8 24.4-21.8 24.4-12.1 0-21.9-10.9-21.9-24.4 0-13.5 9.8-24.4 21.9-24.4 12 0 21.8 10.9 21.8 24.4z"/>
				<path id="&lt;Path&gt;" class="s74" d="m352.8 259.1l7.2-0.1-3.6 13.4-5.7-0.9z"/>
				<path id="&lt;Path&gt;" class="s74" d="m355.6 319.7l4.9-2 2.9 6.9-4.6 3.1z"/>
				<path id="&lt;Path&gt;" class="s74" d="m360.6 255.3l-1.6 7.3c0 0 9.2 2.3 9.1 7.7l0.8-8.6c0 0-2.4-5.4-8.3-6.4z"/>
				<path id="&lt;Path&gt;" class="s1" d="m346.3 312.2c0 1.1-0.9 2-2 2-1.1 0-2-0.9-2-2 0-1.1 0.9-2.1 2-2.1 1.1 0 2 1 2 2.1z"/>
				<path id="&lt;Path&gt;" class="s1" d="m357.8 311.3c0 1-0.9 1.9-1.9 1.9-1.1 0-1.9-0.9-1.9-1.9 0-1 0.8-1.9 1.9-1.9 1 0 1.9 0.9 1.9 1.9z"/>
				<path id="&lt;Path&gt;" class="s1" d="m374.4 363.6c0 1.1-0.8 2-2 2-1.1 0-2-0.9-2-2 0-1.1 0.9-2 2-2 1.2 0 2 0.9 2 2z"/>
			</g>
			<g id="&lt;Group&gt;">
				<path id="&lt;Path&gt;" class="s76" d="m450.2 261.2l76.6-23.5 34.9 138.4h-85.9z"/>
				<path id="&lt;Path&gt;" class="s77" d="m457.2 267.6l67-22.2 30.6 130.7h-75.3z"/>
				<path id="&lt;Path&gt;" class="s78" d="m492 358.8c0 0-24.4-87.6 0-92.6 24.4-5.1 34.1 77.5 34.1 77.5 0 0-13.6 13.5-34.1 15.1z"/>
				<path id="&lt;Path&gt;" class="s79" d="m495.1 376.1l-3.1-17.3c0 0 17.8 0.2 34.1-15.1l5.6 32.4z"/>
				<path id="&lt;Path&gt;" class="s79" d="m493.2 365.7c0 0 24.8-0.7 34.7-11.7"/>
				<path id="&lt;Path&gt;" class="s79" d="m494.4 372.2c0 0 26.6 2.8 35.9-4.4"/>
				<path id="&lt;Path&gt;" class="s79" d="m450.2 261.1c0-0.6 1.6-15.7 1.6-15.7l63.8-21.6 11.2 13.9z"/>
				<path id="&lt;Path&gt;" class="s80" d="m473.6 243.8c0 0 5-37.5 19.6-5.4"/>
			</g>
			<path id="&lt;Path&gt;" class="s66" d="m476.3 227.9l9.5-2.2-9.5-39.2-11.6 12.8z"/>
			<path id="&lt;Path&gt;" class="s66" d="m478.3 195h8.9l-1.4 30.7z"/>
			<path id="&lt;Path&gt;" class="s66" d="m365.3 230.6l3.4 9-8.7 19.4z"/>
			<path id="&lt;Path&gt;" class="s66" d="m248.7 213.5l-7 2.3 5.3 22z"/>
			<path id="&lt;Path&gt;" class="s81" d="m380.4 150.8c0 0 3.5-14.6 7 0 3.5 14.5-7 0-7 0z"/>
			<path id="&lt;Path&gt;" class="s81" d="m390.9 168.5c0 0 0.6 6.3 6.1 6.1 5.6-0.3-3-13.1-3-13.1 0 0-6.8-2.7-3.1 7z"/>
			<path id="&lt;Path&gt;" class="s81" d="m263 10.9c0 0 5.2-3.6 2.3-8.3-2.8-4.7-9.9 8.9-9.9 8.9 0 0 0.8 7.3 7.6-0.6z"/>
			<path id="&lt;Path&gt;" class="s81" d="m220.1 153.5c0 0 5.2-3.5 2.3-8.2-2.8-4.8-10 8.9-10 8.9 0 0 0.8 7.2 7.7-0.7z"/>
			<path id="&lt;Path&gt;" class="s81" d="m253.3 23.9c0 0 2.5-2.1-0.3-6.8-2.7-4.8-4.3 5.8-4.3 5.8 0 0 2 6.6 4.6 1z"/>
			<path id="&lt;Path&gt;" class="s1" d="m414.1 219c0 0 9-10.6 15.8-1.7 0 0-7.6 1.9-7.9 7.7 0 0-5.3-5.9-7.9-6z"/>
			<path id="&lt;Path&gt;" class="s67" d="m659.4 376.7h-6.7v-112.8h6.7z"/>
			<g id="&lt;Group&gt;">
				<path id="&lt;Path&gt;" class="s82" d="m120.3 147.5c0 0 10.1-6.3 17.6 32.4 0 0 57.8 52.9 59.7 89.2 0 0 16.5-5.5 11.7 10.7-4.9 16.2-18.1 11.1-18.1 11.1 0 0-31.9 66.7-58.5 85.2h-91.2c0 0-28.2-44.6-29.7-58.8 0 0-24 2-25.5-20.1-1.5-22.1 36.8-20.2 36.8-20.2 0 0 4.8-45 84.4-97.9 0 0 1.5-28 12.8-31.6z"/>
				<path id="&lt;Path&gt;" class="s83" d="m141.3 216.4c-4-4.9-8.7-9.5-10.1-15.8-0.7-2.5-0.7-5.2 0.4-7.6 4.4-10.5 34.5 23.1 34.5 23.1 0 0 24.8 31 14.7 42.9-4.8 5.6-22.8-19.7-24.9-22.5-4.3-5.7-8.5-11.5-12.6-17.4q-0.9-1.4-2-2.7z"/>
				<path id="&lt;Path&gt;" class="s6" d="m149.6 199.9l-12.7 11.2"/>
				<path id="&lt;Path&gt;" class="s6" d="m161.4 211.1l-15.8 11.2"/>
				<path id="&lt;Path&gt;" class="s6" d="m171.9 224.2l-16 12.3"/>
				<path id="&lt;Path&gt;" class="s6" d="m179.2 237.1l-13.2 12.3"/>
				<path id="&lt;Path&gt;" class="s6" d="m137.9 179.9l-7.2-2.2"/>
				<path id="&lt;Path&gt;" class="s6" d="m191.2 290.9l-6-2.6"/>
				<path id="&lt;Path&gt;" class="s1" d="m23.1 277l-3.8 12.6v-12.6z"/>
				<path id="&lt;Path&gt;" class="s6" d="m11.8 317.3l3.3-9.3z"/>
			</g>
			<path id="&lt;Path&gt;" class="s84" d="m809.9 345.1c0 10-6.1 18.2-13.5 18.2-7.5 0-13.5-8.2-13.5-18.2 0-10.1 6-18.3 13.5-18.3 7.4 0 13.5 8.2 13.5 18.3z"/>
			<path id="&lt;Path&gt;" class="s85" d="m805.1 338.6c0 10.1-6 18.2-13.5 18.2-7.4 0-13.5-8.1-13.5-18.2 0-10.1 6.1-18.3 13.5-18.3 7.5 0 13.5 8.2 13.5 18.3z"/>
			<path id="&lt;Path&gt;" class="s86" d="m839.5 280.8v26.3c0 0-6.9 1-19.9-10.5-12.9-11.4-27.4-15.6-27.4-15.6-7.8-2.3-17.7-1.7-25.1 1.4-19.7 8-24.6 41.3-11 56.4 6.7 7.4 15.3 13.2 21.7 20.6 4.1 4.8 7.2 11 9.4 16.9h-87.7c0 0-17.9-22.5-39.6-17.5 0 0 0-41.2 0-41.2 4.9-0.5 9.8-1.3 14.6-2.3 13.4-2.5 24-5.5 34.1-15.3 4.8-4.7 10.2-10.4 13.3-16.4 2.9-5.6-3.4-19.7 2.8-20.1 4-0.3 92.3-0.1 92.3-0.1 0 0 10.6 18.1 22.5 17.4z"/>
			<path id="&lt;Path&gt;" class="s84" d="m722.8 345.1c0 10-6 18.2-13.5 18.2-7.4 0-13.5-8.2-13.5-18.2 0-10.1 6.1-18.3 13.5-18.3 7.5 0 13.5 8.2 13.5 18.3z"/>
			<path id="&lt;Path&gt;" class="s85" d="m719.5 338.6c0 10.1-6.1 18.2-13.5 18.2-7.5 0-13.5-8.1-13.5-18.2 0-10.1 6-18.3 13.5-18.3 7.4 0 13.5 8.2 13.5 18.3z"/>
		</g>
		<g id="&lt;Group&gt;">
			<path id="&lt;Path&gt;" class="s50" d="m-240.8 765.8h1080.8v-364.9h-1080.8z"/>
			<path id="&lt;Path&gt;" class="s87" d="m-39.9 401l235.7-0.1c0 0 1.2 18.7-2.7 21.5 0 0 16.7-11.3 29-8.4 0 0 30.4-5.1 49.5 37.2 0 0 47.1-13.3 68.4 17.9 21.2 31.1 12.3 65.2 12.3 65.2 0 0 43.7-7.3 57.7 12.3l24.8 60.6v14l-4.3 7.5-492.2-227.8z"/>
			<path id="&lt;Path&gt;" class="s88" d="m723.4 765.4l-783-364-180.7 0.3v363.5z"/>
			<path id="&lt;Path&gt;" class="s89" d="m-107.5 400.9l20.5 23.4c0 0-85.1-20.5-91 24.7-9.9 77.3-62.9 113.5-62.9 113.5l0.6-160.8z"/>
			<path id="&lt;Path&gt;" class="s6" d="m13.4 435.4l-252.9 84.4"/>
			<path id="&lt;Path&gt;" class="s6" d="m385.2 608.2l-278.9 157.1"/>
			<path id="&lt;Path&gt;" class="s6" d="m596.8 706.5l-95.8 58.9"/>
			<path id="&lt;Path&gt;" class="s87" d="m490.7 656c0 0 29.4-35.4 80-8.9 0.9 0.5 18.6-17.8 20.8-19.4 20.9-15.5 44.8-7.7 63.6 7.6 13.7 11.1 20.3 27.7 23.5 44.7-0.9-4.8 15-19.1 18.5-22.2 7.8-6.9 17.3-12.6 27.8-13.5 16.9-1.6 35.9 4.5 51.4 10.7 0 0-6.8-53.5 28.4-74.1 0 0 21.1-15.5 35.3-16v200.5h-114.1z"/>
			<path id="&lt;Path&gt;" class="s90" d="m563.4 689.2c0 0 44.1-12.3 65-0.7 21 11.5 35.1 30.3 35.1 30.3 11.2-6.1 23-11.5 35.1-15.8 15.3-5.5 31.6-6 47.7-4.9 2.5 0.2 36 3.1 36.1 3 1.8-8.2 1.6-16 5.6-23.7 8.6-16.3 33.3-29.3 51.5-29.3v116.8h-115.8z"/>
			<path id="&lt;Path&gt;" class="s90" d="m110.6 401.4c0 0 28.5 25 37.9 51.7 0 0 43.8 8.5 89.2 33 45.3 24.4 52 76.9 52 76.9l-278.5-128.9 24.2-32.7z"/>
			<path id="&lt;Path&gt;" class="s91" d="m-107.5 400.9c0 0 28.9 57.9 100.9 59.3 72 1.4 99.1-59.3 99.1-59.3z"/>
			<path id="&lt;Path&gt;" class="s91" d="m-189 765.8c0 0-38.5-78.3 31.6-83.8 70-5.5 65.9 82.9 65.9 82.9z"/>
			<path id="&lt;Path&gt;" class="s92" d="m-27.4 499.5c0 0 5.9-18 20.1-16.3 14.2 1.7 19.6 16.3 19.6 16.3z"/>
			<path id="&lt;Path&gt;" class="s92" d="m427.5 722.9c0 0 5.8-17.9 20-16.3 14.2 1.7 19.6 16.3 19.6 16.3z"/>
			<path id="&lt;Path&gt;" class="s93" d="m-118.9 639.1c0 0-36.9 8.5-20.8 17.7 8.9 5.1 19.5 7.4 29.4 9.5 10.1 2.1 20.6 2.1 30.1 6.3q8.3 3.5 16.5 7.2c2.6 1.1 17.2 4.8 14.4 8.7-11.4 15.9-26.2 33.8-18.4 54.4 10.4 22.4 157.3 8.3 157.3 8.3l65.1-52.9-40.8-122.1-218.9 48.9z"/>
			<g id="&lt;Group&gt;">
				<path id="&lt;Path&gt;" class="s94" d="m1.9 606.7l-65 18.2-22.2-79.2 65-18.3z"/>
				<g id="&lt;Group&gt;">
					<g id="&lt;Group&gt;">
						<path id="&lt;Path&gt;" class="s95" d="m95.9 523.2c0 0-3.2-5-31.2 6.8-28 11.7-97 53.7-97 53.7 0 0-12.7 9.9-28 7.7-15.3-2.3-16.3-11.2-16.3-11.3-0.8-7.7 2.2-11.7 9.3-15.4 8.2-4.3 61.2-34.9 42.3-46.3-13.4-8.1-34.7 7.9-46.5 14-14.7 7.5-29.1 16.2-44.7 21.8-5.7 2.1-11.6 3.7-17.6 5-6.9 1.5-16.4 0.8-22.7 3.3 0 0-12.2 3.2-14.9 8.6 0.8-1.6 12.5 2 13.6 2.4 7.2 2.7 13.9 7 20.6 10.5 12 6.2 31 5.5 43.5 1.5-8.2 4.8-16.9 9.9-24.2 15.9-8.6 7.2-16.6 15.5-26.7 20.7-8 4.1-16.2 8.1-24.5 11.7 21.3 2.3 43.1 6.1 64.6 5.5 14.6-0.4 28.8-3.6 41.5-10.9 5.4 12.2 11.1 24.4 16.7 36.6 0.4 0.9 20.7-5.7 22-6.1 12.1-3.8 23.6-8.6 34.7-14.7 20.9-11.6 40.6-25 62-35.7 14.8-7.4 29.4-15.6 44.2-23z"/>
						<path id="&lt;Path&gt;" class="s95" d="m-63 628.4l-13.6-48.3"/>
					</g>
					<path id="&lt;Path&gt;" class="s95" d="m-21 523.9l12.7 45.5"/>
				</g>
			</g>
			<path id="&lt;Path&gt;" class="s96" d="m158.2 697.2l-3.5 1.1-58.5-175 3.6-1.2z"/>
			<g id="&lt;Group&gt;">
				<path id="&lt;Path&gt;" class="s96" d="m-40.3 598.2l8.8 46.1"/>
				<path id="&lt;Path&gt;" class="s96" d="m-47.9 617.5l31.3-14.3"/>
				<path id="&lt;Path&gt;" class="s96" d="m-26.4 592.2l9.8 46.4"/>
				<path id="&lt;Path&gt;" class="s96" d="m-40.3 635.2l28.4-14"/>
			</g>
			<g id="&lt;Group&gt;">
				<path id="&lt;Path&gt;" class="s97" d="m3.6 631.5l-7.1-45.8 19.3 34.2v-45.3l13.1 41.4"/>
				<path id="&lt;Path&gt;" class="s97" d="m44.7 609.2l-8.6 3.5-13.4-42.2 8-5.4"/>
				<path id="&lt;Path&gt;" class="s97" d="m38.7 561l16.7-9.6"/>
				<path id="&lt;Path&gt;" class="s97" d="m28.9 590.2l7.8-4.8"/>
				<path id="&lt;Path&gt;" class="s97" d="m48.3 556.2l10.7 44.9"/>
				<path id="&lt;Path&gt;" class="s97" d="m63.4 574.6c0 0-6.8-26.1 2.1-27.9 8.9-1.8 13.1 27.9 13.1 27.9 0 0 3.3 18.5-3.3 18.8-6.5 0.3-11.9-18.8-11.9-18.8z"/>
				<path id="&lt;Path&gt;" class="s97" d="m81.9 567.8c0 0-6.8-26.2 2.1-28 8.9-1.8 13.1 28 13.1 28 0 0 3.3 18.4-3.3 18.7-6.5 0.3-11.9-18.7-11.9-18.7z"/>
			</g>
			<path id="&lt;Path&gt;" class="s1" d="m-12.7 728.1c0 0-40.4 8.4-39.3-7.6 1.2-16 34.5-7.7 34.5-7.7z"/>
			<path id="&lt;Path&gt;" class="s98" d="m19.4 693.6c-0.1-0.2 1.8-2.3 2-2.5 1.5-2 2.8-4.1 4-6.3 1.3-2.6 2.4-5.4 2.7-8.3 0.4-2.9-0.1-6-1.6-8.5-1.5-2.4-3.8-4.2-6.3-5.6-2.6-1.4-5.8-2.9-8.8-2.9-2.1-0.1-4.1 0.6-5.9 1.5-3.1 1.5-5.7 3.9-6.9 7-0.5 1.2-0.8 2.5-0.9 3.8q-0.1 1.1 0 2.2 0 0.6 0.1 1.2c0 0.2 0 1.1 0.1 1.2q-13.7-13.3-27.4-26.7c-7.4-7.1-22.7-7.5-22.5 5.5 0.2 18 17.4 21.6 17.4 21.6l-2.4 3-5.1-1.7-8.2 15.5c0 0 11.4 10.5 14.4 11.8 3 1.2 2.3 22.9 27.6 23.3 25.3 0.4 32.4-24.6 27.7-35.1z"/>
			<path id="&lt;Path&gt;" class="s91" d="m28.1 672.2l8.5 2.4-9.4 6 0.7-3q0.4-1.4 0.3-2.7z"/>
			<path id="&lt;Path&gt;" class="s1" d="m19.9 673.4c0 1.7-1.4 3-3 3-1.6 0-2.9-1.3-2.9-3 0-1.6 1.3-2.9 2.9-2.9 1.6 0 3 1.3 3 2.9z"/>
			<path id="&lt;Path&gt;" class="s6" d="m-37 679.8c0 0-10.8 18 12.9 22.9"/>
			<path id="&lt;Path&gt;" class="s98" d="m6.6 699c0 0-0.7 4.5 2.8 4.9 3.5 0.4 4.6-3.6 4.6-3.6"/>
			<path id="&lt;Path&gt;" class="s98" d="m-13.6 706.9c0 0-0.7 4.5 2.8 5 3.5 0.4 4.5-3.7 4.5-3.7"/>
			<path id="&lt;Path&gt;" class="s98" d="m-1.9 716.1c0 0-0.7 4.5 2.8 4.9 3.5 0.4 4.5-3.6 4.5-3.6"/>
			<path id="&lt;Path&gt;" class="s99" d="m12.5 765.3h184.1l-42.1-80z"/>
			<path id="&lt;Path&gt;" class="s100" d="m154.5 685.3l9.8 18.6-116.4 61.4h-35.4z"/>
			<path id="&lt;Path&gt;" class="s1" d="m149 703.9c0 2.7-2.1 4.8-4.8 4.8-2.6 0-4.7-2.1-4.7-4.8 0-2.6 2.1-4.7 4.7-4.7 2.7 0 4.8 2.1 4.8 4.7z"/>
			<path id="&lt;Path&gt;" class="s1" d="m125.8 716.1c0 2.6-2.1 4.7-4.8 4.7-2.6 0-4.8-2.1-4.8-4.7 0-2.7 2.2-4.8 4.8-4.8 2.7 0 4.8 2.1 4.8 4.8z"/>
			<path id="&lt;Path&gt;" class="s1" d="m101.6 728.1c0 2.7-2.1 4.8-4.7 4.8-2.7 0-4.8-2.1-4.8-4.8 0-2.6 2.1-4.8 4.8-4.8 2.6 0 4.7 2.2 4.7 4.8z"/>
			<path id="&lt;Path&gt;" class="s1" d="m77.9 741.5c0 2.7-2.1 4.8-4.8 4.8-2.6 0-4.7-2.1-4.7-4.8 0-2.6 2.1-4.7 4.7-4.7 2.7 0 4.8 2.1 4.8 4.7z"/>
			<path id="&lt;Path&gt;" class="s1" d="m52.6 756.1c0 2.7-2.1 4.8-4.7 4.8-2.7 0-4.8-2.1-4.8-4.8 0-2.6 2.1-4.7 4.8-4.7 2.6 0 4.7 2.1 4.7 4.7z"/>
			<path id="&lt;Path&gt;" class="s101" d="m355.5 626.3l4.9 21.8 25.8-10.9-7.5-32-26.3 6.7z"/>
			<g id="&lt;Group&gt;">
				<path id="&lt;Path&gt;" class="s102" d="m355.5 672.1l-3.1-42.6c0 0 1.1-2.9 3.1-3.2 1.9-0.4 0.9 3.3 0.9 3.3 0 0 1.6 3.6 7.3 0.1 5.6-3.4 19.8-7.7 19.8-7.7 0 0-2.7-2.3-1.8-6.9 0.3-1.2 9.9 2.9 9.9 2.9 0 0 7.6 2.3 2.9 11.2 0 0 1.4 6.1-1.9 10.2 0 0.1 0.9 2.3 1 2.5 0.9 5.6-3.1 8.2-9.1 9.2-3.5 0.6-9.1 2.7-12.5 3.6 0.2 2 2.7 13.4 5.6 12.8 0 0-22.1 4.6-22.1 4.6z"/>
				<path id="&lt;Path&gt;" class="s102" d="m187.6 509.1c0 0 3.6-35.5 3.6-35.5 0.9-8.1 0-17.6 2.9-25.3 2.5-6.7 8.7-9.1 14.2-12.8 3.1-2 11.3-7.7 12.3-0.7 0.9 6.8 0 9.2 0 9.2 0 0 7-1.8 7.3 4.6 0.7 13.8-9.3 18.3-14.8 29-2.1 3.9-3.3 43.4-0.5 44.9 0 0-25-13.4-25-13.4z"/>
				<g id="&lt;Group&gt;">
					<path id="&lt;Path&gt;" class="s1" d="m276.3 738.2c0 0 73.4-48 88.4-41.4 15 6.5-40.4 69.1-40.4 69.1h-40.9z"/>
					<g id="&lt;Group&gt;">
						<path id="&lt;Path&gt;" class="s103" d="m169.8 668.3l9.6-90 36.5-37.6-2.6 50.6c0 0 1.5 30.5 18.5 19l34 29 6 5.9c0 0 37.1 24.9 49.8 39.9 12.6 14.9 36.6 37.3 36.6 37.3l-2.8-50.9c0 0 20.7-7.4 21.7-6.3 0.9 1.2 17.2 70.5 17.2 70.5 0 0 8 28.9-6.4 29.2-14.4 0.3-31.4 0-31.4 0 0 0-53.9-17.5-70.7-49.4 0 0-5.8 16.7 3.7 32.4 9.6 15.7-6.4 17.1-6.4 17.1h-37.9z"/>
						<g id="&lt;Group&gt;">
							<path id="&lt;Path&gt;" class="s102" d="m265.8 639.7c0.2-0.8 2.9-33.1 2.9-39q2.5 0.4 4.9 0.8 1.8 0.3 3.5 0.6c1.6 0.3 3.2 0.8 4.8 0.6 0.7-0.1 1.4-0.4 1.8-1 0.5-0.8 0.3-1.8 0-2.7-0.2-0.7-0.5-1.4-0.6-2.2 0-0.8 0.2-1.5 0.4-2.3q0.3-2 0.6-3.9 0.5-2.6 0.9-5.2c0 0 7.7-2.9 6.5-6.2-1.2-3.2-3.5-6.1-5.5-8.7 1.8-3.4 5.7-9.6 3.9-13.5l-15.1-9.4-14.6 7.4-6.7 26.7-19.8 21-2 7.9z"/>
							<path id="&lt;Path&gt;" class="s1" d="m232.8 605.1c0 0 29.6-6.1 28.8-24.6 0 0-9.1-12.8 3.7-20.1 0 0 7.8 0.1 7.7 8.6 0 0 5.4-1.8 5.4-16.5 0 0 18.9 13 26.1-1.4 6.6-13.1 2.7-25.8-5-37.2-1.9-2.7-3.8-5.5-6.5-7.3-5-3.2-10.7-0.4-15.2 2.2-6.5 3.7-8.4 1.4-14.8-1.7-2.8-1.4-5.9-1.7-8.9-1.9-5.6-0.5-11.3-0.7-16.8 0.3-8.7 1.7-15.9 7.1-19.7 15.2l-4.9-0.6c0 0-0.8-15.8-18.7-17.4 0 0-7-1-12.2 2.6 0 0-3.6 3.6-6.7-0.1-2.8-3.2-11.9-0.1-15.2 0.7-13.7 3.1-22 15.9-27.7 27.9-3.1 6.7 0 13.4-7.6 18.2-2.3 1.5-5.1 2.3-7.4 3.9-9.9 7.1-9.3 22.6-6.7 32.8 6.4 25.9 28.3 32.5 28.3 32.5 0 0 32.3 9.5 46.8-23.1 14.4-32.6 15.8-35.6 15.8-35.6 0 0 11.7-28.6 8.8 0 0 0-4 9.8 22.6 42.6z"/>
						</g>
						<g id="&lt;Group&gt;">
							<g id="&lt;Group&gt;">
								<path id="&lt;Path&gt;" class="s1" d="m187.2 645.1c0 0 19.7-32.8 29.9-38l11.1 5.1-22.8 30.9z"/>
								<path id="&lt;Path&gt;" class="s1" d="m274.7 647.1l16.9 11.7c0 0-29.7 28.6-32.6 52.5 0 0-11.3-31.3-7-35 4.3-3.8 22.7-29.2 22.7-29.2z"/>
								<g id="&lt;Group&gt;">
									<path id="&lt;Path&gt;" class="s104" d="m162.6 708c0.6-4.8 1-9.6 0.9-14.5-0.1-7.2 0.5-12.5 3.1-18.9 2.2-5.6 4.9-10.9 8.2-15.9 7.9-12 19.6-21.4 34-21.2 14.9 0.3 27.6 9.2 36.9 20.7 3.6 4.5 6.7 9.3 9.4 14.4 2.8 5.1 4 9.5 4.3 15.4 1.1 23.9-1.5 48-7.7 71-1 3.7-0.9 5.6-4.4 6-1.6 0.1-3.3 0-4.9 0q-7.3 0-14.6 0-33.7 0-67.4 0-1.9 0-3.7 0c-0.5 0 1.2-25.2 1.3-26.8 1-10.2 3.3-20.1 4.6-30.2z"/>
									<path id="&lt;Path&gt;" class="s104" d="m163.5 693.5c0 0 1.3 21.9 17.3 25 15.9 3.1 28.4 4.7 40.9 0 12.4-4.7 30.7-40.3 36.4-38.8"/>
									<path id="&lt;Path&gt;" class="s104" d="m192 679.6l-4.2 18.3 20.3 3.4 2.7-18.6z"/>
									<path id="&lt;Path&gt;" class="s104" d="m221.7 718.5h36.4"/>
									<path id="&lt;Path&gt;" class="s104" d="m158 738.2c0 0 34.4 26.8 55.5 26.8"/>
									<path id="&lt;Path&gt;" class="s105" d="m180.9 718.1c-1.2 5.7 1.2 11 5.4 11.9 4.2 0.9 8.6-2.9 9.8-8.6 1.2-5.7-1.2-11-5.4-11.9-4.2-0.9-8.6 3-9.8 8.6z"/>
									<path id="&lt;Path&gt;" class="s105" d="m230.1 712.1c0 0 25.2-5.1 24.5-30.7"/>
								</g>
							</g>
							<path id="&lt;Path&gt;" class="s106" d="m244.9 711.3h20.2c0 0-2.6 21.8-10.1 22-6.8 0.2-10.1-22-10.1-22z"/>
							<path id="&lt;Path&gt;" class="s106" d="m261.1 749.9c0 0-1.1 8.7-3.7 15.1h-12.6c-2.6-6.4-3.9-15.1-3.9-15.1z"/>
						</g>
					</g>
				</g>
			</g>
			<path id="&lt;Path&gt;" class="s6" d="m212 433c0 0-6.2 8.1-5.4 11.7"/>
			<path id="&lt;Path&gt;" class="s1" d="m220.6 444l-3.4 3c0 0 6.3-3 7.8-2.9 1.5 0.2-4.4-0.1-4.4-0.1z"/>
			<path id="&lt;Path&gt;" class="s1" d=""/>
			<path id="&lt;Path&gt;" class="s102" d="m392.6 639.5l-10.3 2.1"/>
			<path id="&lt;Path&gt;" class="s102" d="m394.5 629.2l-11.4 1.9"/>
			<path id="&lt;Path&gt;" class="s1" d="m376 653.5l-2.8 6.7-1.2-5.5z"/>
			<path id="&lt;Path&gt;" class="s107" d="m335.5 616.2l81.5-20.1c0 0 3.2-44-29.2-64.8l-62.8 62.5z"/>
			<path id="&lt;Path&gt;" class="s107" d="m376 543c0 0 27.6 28.2 25.3 57"/>
			<path id="&lt;Path&gt;" class="s107" d="m356.4 562.5c0 0 18.8 23.7 14.6 44.6"/>
			<path id="&lt;Path&gt;" class="s107" d="m337.6 581.3c0 0 14.1 17.5 10.5 31.8"/>
			<path id="&lt;Path&gt;" class="s108" d="m387.8 531.3c0 0 32.2 18.8 29.2 64.8 0 0 3.2 8.4 5.5-2.5 2.3-10.9 0.8-41.9-31.4-66.8 0 0-9.3-2.9-3.3 4.5z"/>
			<path id="&lt;Path&gt;" class="s108" d="m284.9 562.7l4.8 0.3"/>
			<path id="&lt;Path&gt;" class="s1" d="m288.2 566.3h-5.1l2.9 4.2z"/>
			<path id="&lt;Path&gt;" class="s6" d="m284.5 588.6l-6 0.6 4.6 6.4z"/>
			<path id="&lt;Path&gt;" class="s109" d="m391.1 526.8c0.2 0.2 22.7-12.1 24.4-13 14.2-6.8 28.9-15.1 44-19.6 14.7-4.4 30.9-5.3 46.2-5.6 30.4-0.6 61 2.9 91.1-2.7 13.8-2.6 27.2-7 39.5-13.7 32.4-17.4 62.9-42.5 86.5-70.8l117.2-0.5c0 0-0.8 130.2-0.8 130.4 0-7.3-61.8-11.3-67-11.2-17.8 0.3-36.2 3.7-51.7 13.1-25.9 15.8-33.8 47.9-61.5 62.1-28.2 14.5-63.1 16-93.9 10.8-22.5-3.7-39.4-15.1-60.2-22.7-11.9-4.3-24.6-6-37.2-5.1-6.5 0.5-44.9 7.2-45.2 15.3 0 0 1.5-39.3-31.4-66.8z"/>
			<path id="&lt;Path&gt;" class="s91" d="m487.2 490.1c0 17.9-20.4 32.4-45.6 32.4-25.2 0-45.6-14.5-45.6-32.4 0-17.9 20.4-32.4 45.6-32.4 25.2 0 45.6 14.5 45.6 32.4z"/>
			<path id="&lt;Path&gt;" class="s110" d="m592.3 477.2c2-3 5-17.1 5-17.1l3 17.1 14 8-16.5 3-1.5 16.1-4-17.1-13.1-5z"/>
			<path id="&lt;Path&gt;" class="s110" d="m486.2 576.3c2-3 5-17 5-17l3 17 14.1 8-16.6 3-1.5 16.1-4-17.1-13-5z"/>
			<path id="&lt;Path&gt;" class="s110" d="m375.5 442c2-3 5-17 5-17l3 17 14 8-16.5 3.1-1.5 16-4-17-13.1-5.1z"/>
			<path id="&lt;Path&gt;" class="s91" d="m734.1 554.7c0 13-10.5 23.4-23.4 23.4-12.9 0-23.4-10.4-23.4-23.4 0-12.9 10.5-23.4 23.4-23.4 12.9 0 23.4 10.5 23.4 23.4z"/>
			<path id="&lt;Path&gt;" class="s111" d="m441.6 471.3c0 3.1-4.1 5.7-9.2 5.7-5.1 0-9.2-2.6-9.2-5.7 0-3.2 4.1-5.7 9.2-5.7 5.1 0 9.2 2.5 9.2 5.7z"/>
			<path id="&lt;Path&gt;" class="s111" d="m728.5 551.9c0 6.1-1.1 11.1-2.5 11.1-1.4 0-2.6-5-2.6-11.1 0-6.2 1.2-11.2 2.6-11.2 1.4 0 2.5 5 2.5 11.2z"/>
			<path id="&lt;Path&gt;" class="s111" d="m-67.7 424.3c0 3.5-4.3 6.3-9.7 6.3-5.3 0-9.6-2.8-9.6-6.3 0-3.5 4.3-6.3 9.6-6.3 5.4 0 9.7 2.8 9.7 6.3z"/>
			<path id="&lt;Path&gt;" class="s111" d="m-27.4 443.9c0 2.8-3.2 5.1-7.2 5.1-4 0-7.3-2.3-7.3-5.1 0-2.8 3.3-5 7.3-5 4 0 7.2 2.2 7.2 5z"/>
			<path id="&lt;Path&gt;" class="s111" d="m-194 718.8c0 12.6 5.7 22.7 12.8 22.7 7 0 12.7-10.1 12.7-22.7 0-12.5-5.7-22.6-12.7-22.6-7.1 0-12.8 10.1-12.8 22.6z"/>
			<path id="&lt;Path&gt;" class="s111" d="m-113 705.4c0 3.4-2.8 6.2-6.2 6.2-3.5 0-6.3-2.8-6.3-6.2 0-3.5 2.8-6.2 6.3-6.2 3.4 0 6.2 2.7 6.2 6.2z"/>
			<path id="&lt;Path&gt;" class="s89" d="m-240.9 494.9c0 0 109.7 56.1 0 161.9z"/>
		</g>
	</g>
</svg>