<?xml version="1.0" encoding="iso-8859-1"?>
<!-- Generator: Adobe Illustrator 23.0.3, SVG Export Plug-In . SVG Version: 6.00 Build 0)  -->
<svg version="1.1" id="Layer_1" xmlns="http://www.w3.org/2000/svg" xmlns:xlink="http://www.w3.org/1999/xlink" x="0px" y="0px"
	 viewBox="0 0 48 48" style="enable-background:new 0 0 48 48;" xml:space="preserve">
<radialGradient id="SVGID_1_" cx="-243.0691" cy="1056.7765" r="24.277" gradientTransform="matrix(1 0.007 -0.0067 0.9552 269.5955 -984.739)" gradientUnits="userSpaceOnUse">
	<stop  offset="0" style="stop-color:#FFE16E"/>
	<stop  offset="0.629" style="stop-color:#FFD226"/>
	<stop  offset="0.75" style="stop-color:#FDCD23"/>
	<stop  offset="0.9" style="stop-color:#F6BD1B"/>
	<stop  offset="1" style="stop-color:#F0AF13"/>
</radialGradient>
<path style="fill:url(#SVGID_1_);" d="M26.93,2.191v3.128c0,1.834,0.778,3.569,2.113,4.826c0.614,0.578,1.181,1.237,1.681,1.968
	c0.1,0.146,0.177,0.3,0.27,0.449l1.913,2.729l0.014-0.02l2.391,3.437l0.281,0.264c1.01,0.947,2.243,1.63,3.59,1.992l2.938,0.786
	c0.576,0.151,0.967,0.669,0.955,1.251c-0.277,3.73-6.903,4.476-13.512,1.462v0.012c-0.37-0.161-0.612,0.05-0.676,0.804
	c0,0.005-0.001,0.011-0.001,0.016c-0.024,0.807-0.538,17.842-0.542,18.004c0.028,0.94-0.175,1.779-0.537,2.444
	c-0.411,0.755-1.001,1.177-1.658,1.188c-0.658,0.011-1.262-0.391-1.699-1.132c-0.384-0.652-0.604-1.512-0.619-2.407l-0.717-14.056
	c-0.009,0-0.017,0-0.035,0c-0.27,1.379-1.479,2.421-2.937,2.421c-1.657,0-3-1.343-3-3c0,1.657-1.343,3-3,3
	c-1.455,0-2.661-1.037-2.935-2.411c-0.246,1.409-1.468,2.483-2.948,2.483c-1.657,0-3.287-1.438-3.287-3.095
	c0-0.003-0.322-14.022,0.747-16.705c0.374-0.939,1.028-1.77,1.837-2.458C9.043,8.302,9.93,6.468,9.93,4.512V2.191
	c0-0.697,3.806-1.261,8.5-1.261C23.124,0.93,26.93,1.494,26.93,2.191z"/>
<g style="opacity:0.62;">
	
		<linearGradient id="SVGID_2_" gradientUnits="userSpaceOnUse" x1="-761.8551" y1="1932.3352" x2="-763.3451" y2="1928.1362" gradientTransform="matrix(-0.9849 0.1731 0.1731 0.9849 -1068.2792 -1742.1395)">
		<stop  offset="0" style="stop-color:#FCC822;stop-opacity:0.6"/>
		<stop  offset="0.999" style="stop-color:#FFD32B"/>
		<stop  offset="1" style="stop-color:#FFD32B"/>
	</linearGradient>
	<path style="opacity:0.091;fill:url(#SVGID_2_);enable-background:new    ;" d="M17.027,28.89l-1.276-2.988
		c0.014-0.777,0.656-1.396,1.433-1.381c0.777,0.014,1.396,0.656,1.381,1.433c-0.002,0.111-0.019,0.225-0.045,0.328l-1.205,2.648
		c-0.02,0.078-0.1,0.125-0.178,0.105C17.069,29.017,17.025,28.956,17.027,28.89z"/>
	
		<linearGradient id="SVGID_3_" gradientUnits="userSpaceOnUse" x1="-761.8546" y1="1932.3392" x2="-763.3295" y2="1928.1692" gradientTransform="matrix(-0.9849 0.1731 0.1731 0.9849 -1068.2792 -1742.1395)">
		<stop  offset="0" style="stop-color:#FBC622;stop-opacity:0.64"/>
		<stop  offset="0.999" style="stop-color:#FFD32B"/>
		<stop  offset="1" style="stop-color:#FFD32B"/>
	</linearGradient>
	<path style="opacity:0.182;fill:url(#SVGID_3_);enable-background:new    ;" d="M17.037,28.899l-1.174-3.065
		c0.015-0.72,0.611-1.292,1.331-1.276c0.72,0.015,1.292,0.611,1.276,1.331c-0.002,0.1-0.017,0.204-0.041,0.297l-1.126,2.75
		c-0.019,0.073-0.093,0.116-0.165,0.098C17.077,29.017,17.036,28.961,17.037,28.899z"/>
	
		<linearGradient id="SVGID_4_" gradientUnits="userSpaceOnUse" x1="-761.8545" y1="1932.3433" x2="-763.3145" y2="1928.2032" gradientTransform="matrix(-0.9849 0.1731 0.1731 0.9849 -1068.2792 -1742.1395)">
		<stop  offset="0" style="stop-color:#FBC322;stop-opacity:0.68"/>
		<stop  offset="0.999" style="stop-color:#FFD32B"/>
		<stop  offset="1" style="stop-color:#FFD32B"/>
	</linearGradient>
	<path style="opacity:0.273;fill:url(#SVGID_4_);enable-background:new    ;" d="M17.047,28.909l-1.072-3.143
		c0.016-0.663,0.566-1.187,1.229-1.172c0.663,0.016,1.185,0.566,1.172,1.229c-0.002,0.09-0.015,0.183-0.036,0.266l-1.047,2.852
		c-0.017,0.067-0.085,0.107-0.152,0.09C17.084,29.018,17.046,28.966,17.047,28.909z"/>
	
		<linearGradient id="SVGID_5_" gradientUnits="userSpaceOnUse" x1="-761.8559" y1="1932.3478" x2="-763.3009" y2="1928.2368" gradientTransform="matrix(-0.9849 0.1731 0.1731 0.9849 -1068.2792 -1742.1395)">
		<stop  offset="0" style="stop-color:#FAC122;stop-opacity:0.72"/>
		<stop  offset="0.999" style="stop-color:#FFD32B"/>
		<stop  offset="1" style="stop-color:#FFD32B"/>
	</linearGradient>
	<path style="opacity:0.364;fill:url(#SVGID_5_);enable-background:new    ;" d="M17.058,28.918l-0.969-3.22
		c0.017-0.606,0.521-1.083,1.127-1.067c0.606,0.017,1.081,0.521,1.067,1.127c-0.002,0.079-0.014,0.162-0.032,0.236l-0.967,2.954
		c-0.015,0.061-0.077,0.098-0.138,0.083C17.091,29.019,17.056,28.971,17.058,28.918z"/>
	
		<linearGradient id="SVGID_6_" gradientUnits="userSpaceOnUse" x1="-761.8541" y1="1932.3512" x2="-763.2855" y2="1928.2693" gradientTransform="matrix(-0.9849 0.1731 0.1731 0.9849 -1068.2792 -1742.1395)">
		<stop  offset="0" style="stop-color:#FABE22;stop-opacity:0.76"/>
		<stop  offset="0.999" style="stop-color:#FFD32B"/>
		<stop  offset="1" style="stop-color:#FFD32B"/>
	</linearGradient>
	<path style="opacity:0.455;fill:url(#SVGID_6_);enable-background:new    ;" d="M17.068,28.928L16.2,25.631
		c0.018-0.549,0.477-0.979,1.025-0.962c0.549,0.018,0.976,0.476,0.962,1.025c-0.002,0.069-0.012,0.141-0.028,0.205l-0.888,3.056
		c-0.014,0.055-0.07,0.089-0.125,0.076C17.098,29.02,17.066,28.976,17.068,28.928z"/>
	
		<linearGradient id="SVGID_7_" gradientUnits="userSpaceOnUse" x1="-761.8553" y1="1932.3547" x2="-763.2704" y2="1928.3063" gradientTransform="matrix(-0.9849 0.1731 0.1731 0.9849 -1068.2792 -1742.1395)">
		<stop  offset="0" style="stop-color:#F9BC21;stop-opacity:0.8"/>
		<stop  offset="0.999" style="stop-color:#FFD32B"/>
		<stop  offset="1" style="stop-color:#FFD32B"/>
	</linearGradient>
	<path style="opacity:0.545;fill:url(#SVGID_7_);enable-background:new    ;" d="M17.078,28.938l-0.765-3.374
		c0.018-0.492,0.432-0.875,0.923-0.857c0.492,0.018,0.871,0.432,0.857,0.923c-0.002,0.059-0.01,0.12-0.024,0.174l-0.809,3.158
		c-0.012,0.05-0.062,0.08-0.112,0.069C17.105,29.021,17.076,28.981,17.078,28.938z"/>
	
		<linearGradient id="SVGID_8_" gradientUnits="userSpaceOnUse" x1="-761.8552" y1="1932.3585" x2="-763.2562" y2="1928.3375" gradientTransform="matrix(-0.9849 0.1731 0.1731 0.9849 -1068.2792 -1742.1395)">
		<stop  offset="0" style="stop-color:#F9B921;stop-opacity:0.84"/>
		<stop  offset="0.999" style="stop-color:#FFD32B"/>
		<stop  offset="1" style="stop-color:#FFD32B"/>
	</linearGradient>
	<path style="opacity:0.636;fill:url(#SVGID_8_);enable-background:new    ;" d="M17.088,28.947l-0.663-3.451
		c0.019-0.434,0.387-0.771,0.821-0.752s0.767,0.387,0.752,0.821c-0.002,0.048-0.009,0.098-0.02,0.143l-0.729,3.26
		c-0.01,0.044-0.054,0.071-0.098,0.061C17.113,29.022,17.087,28.986,17.088,28.947z"/>
	
		<linearGradient id="SVGID_9_" gradientUnits="userSpaceOnUse" x1="-761.8567" y1="1932.3628" x2="-763.2427" y2="1928.3718" gradientTransform="matrix(-0.9849 0.1731 0.1731 0.9849 -1068.2792 -1742.1395)">
		<stop  offset="0" style="stop-color:#F8B721;stop-opacity:0.88"/>
		<stop  offset="0.999" style="stop-color:#FFD32B"/>
		<stop  offset="1" style="stop-color:#FFD32B"/>
	</linearGradient>
	<path style="opacity:0.727;fill:url(#SVGID_9_);enable-background:new    ;" d="M17.099,28.957l-0.561-3.528
		c0.02-0.377,0.342-0.667,0.719-0.647c0.377,0.02,0.662,0.342,0.647,0.719c-0.002,0.038-0.007,0.077-0.015,0.113l-0.65,3.362
		c-0.009,0.038-0.047,0.063-0.085,0.054C17.12,29.022,17.097,28.991,17.099,28.957z"/>
	
		<linearGradient id="SVGID_10_" gradientUnits="userSpaceOnUse" x1="-761.8577" y1="1932.3662" x2="-763.2297" y2="1928.4052" gradientTransform="matrix(-0.9849 0.1731 0.1731 0.9849 -1068.2792 -1742.1395)">
		<stop  offset="0" style="stop-color:#F8B421;stop-opacity:0.92"/>
		<stop  offset="0.999" style="stop-color:#FFD32B"/>
		<stop  offset="1" style="stop-color:#FFD32B"/>
	</linearGradient>
	<path style="opacity:0.818;fill:url(#SVGID_10_);enable-background:new    ;" d="M17.109,28.966l-0.458-3.605
		c0.021-0.32,0.297-0.563,0.617-0.542s0.558,0.297,0.542,0.617c-0.001,0.027-0.005,0.056-0.011,0.082l-0.57,3.464
		c-0.007,0.033-0.039,0.054-0.072,0.047C17.127,29.023,17.107,28.996,17.109,28.966z"/>
	
		<linearGradient id="SVGID_11_" gradientUnits="userSpaceOnUse" x1="-761.8947" y1="1932.3829" x2="-763.2527" y2="1928.4519" gradientTransform="matrix(-0.9849 0.1731 0.1731 0.9849 -1068.2792 -1742.1395)">
		<stop  offset="0" style="stop-color:#F7B221;stop-opacity:0.96"/>
		<stop  offset="0.999" style="stop-color:#FFD32B"/>
		<stop  offset="1" style="stop-color:#FFD32B"/>
	</linearGradient>
	<path style="opacity:0.909;fill:url(#SVGID_11_);enable-background:new    ;" d="M17.119,28.976l-0.356-3.682
		c0.022-0.263,0.252-0.459,0.516-0.437c0.263,0.022,0.454,0.252,0.437,0.515c-0.001,0.017-0.003,0.035-0.007,0.051l-0.491,3.566
		c-0.005,0.027-0.031,0.045-0.058,0.039C17.134,29.024,17.117,29.001,17.119,28.976z"/>
	
		<linearGradient id="SVGID_12_" gradientUnits="userSpaceOnUse" x1="-761.9391" y1="1932.4009" x2="-763.2812" y2="1928.4999" gradientTransform="matrix(-0.9849 0.1731 0.1731 0.9849 -1068.2792 -1742.1395)">
		<stop  offset="0" style="stop-color:#F7AF21"/>
		<stop  offset="1" style="stop-color:#FFD32B"/>
	</linearGradient>
	<path style="fill:url(#SVGID_12_);" d="M17.129,28.986l-0.254-3.759c0.022-0.206,0.208-0.355,0.414-0.332
		c0.206,0.022,0.355,0.208,0.332,0.414c-0.001,0.007-0.002,0.014-0.003,0.021l-0.412,3.668c-0.004,0.021-0.024,0.036-0.045,0.032
		C17.141,29.025,17.127,29.006,17.129,28.986z"/>
</g>
<g style="opacity:0.58;">
	
		<linearGradient id="SVGID_13_" gradientUnits="userSpaceOnUse" x1="-767.6318" y1="1933.6631" x2="-769.1228" y2="1929.4641" gradientTransform="matrix(-0.9849 0.1731 0.1731 0.9849 -1068.2792 -1742.1395)">
		<stop  offset="0" style="stop-color:#FCC822;stop-opacity:0.6"/>
		<stop  offset="0.999" style="stop-color:#FFD32B"/>
		<stop  offset="1" style="stop-color:#FFD32B"/>
	</linearGradient>
	<path style="opacity:0.091;fill:url(#SVGID_13_);enable-background:new    ;" d="M22.947,29.198l-1.276-2.988
		c0.014-0.777,0.656-1.396,1.433-1.381c0.777,0.014,1.396,0.656,1.381,1.433c-0.002,0.111-0.019,0.225-0.045,0.328l-1.205,2.648
		c-0.02,0.078-0.1,0.125-0.178,0.105C22.99,29.325,22.946,29.264,22.947,29.198z"/>
	
		<linearGradient id="SVGID_14_" gradientUnits="userSpaceOnUse" x1="-767.6313" y1="1933.6671" x2="-769.1074" y2="1929.4971" gradientTransform="matrix(-0.9849 0.1731 0.1731 0.9849 -1068.2792 -1742.1395)">
		<stop  offset="0" style="stop-color:#FBC622;stop-opacity:0.64"/>
		<stop  offset="0.999" style="stop-color:#FFD32B"/>
		<stop  offset="1" style="stop-color:#FFD32B"/>
	</linearGradient>
	<path style="opacity:0.182;fill:url(#SVGID_14_);enable-background:new    ;" d="M22.957,29.208l-1.174-3.065
		c0.015-0.72,0.611-1.292,1.331-1.276c0.72,0.015,1.292,0.611,1.276,1.331c-0.002,0.1-0.017,0.204-0.041,0.297l-1.126,2.75
		c-0.019,0.073-0.093,0.116-0.165,0.098C22.997,29.326,22.956,29.269,22.957,29.208z"/>
	
		<linearGradient id="SVGID_15_" gradientUnits="userSpaceOnUse" x1="-767.6311" y1="1933.671" x2="-769.0921" y2="1929.531" gradientTransform="matrix(-0.9849 0.1731 0.1731 0.9849 -1068.2792 -1742.1395)">
		<stop  offset="0" style="stop-color:#FBC322;stop-opacity:0.68"/>
		<stop  offset="0.999" style="stop-color:#FFD32B"/>
		<stop  offset="1" style="stop-color:#FFD32B"/>
	</linearGradient>
	<path style="opacity:0.273;fill:url(#SVGID_15_);enable-background:new    ;" d="M22.967,29.217l-1.072-3.143
		c0.016-0.663,0.566-1.187,1.229-1.172c0.663,0.016,1.185,0.566,1.172,1.229c-0.002,0.09-0.015,0.183-0.036,0.266l-1.047,2.852
		c-0.017,0.067-0.085,0.107-0.152,0.09C23.004,29.327,22.966,29.274,22.967,29.217z"/>
	
		<linearGradient id="SVGID_16_" gradientUnits="userSpaceOnUse" x1="-767.6327" y1="1933.6758" x2="-769.0787" y2="1929.5647" gradientTransform="matrix(-0.9849 0.1731 0.1731 0.9849 -1068.2792 -1742.1395)">
		<stop  offset="0" style="stop-color:#FAC122;stop-opacity:0.72"/>
		<stop  offset="0.999" style="stop-color:#FFD32B"/>
		<stop  offset="1" style="stop-color:#FFD32B"/>
	</linearGradient>
	<path style="opacity:0.364;fill:url(#SVGID_16_);enable-background:new    ;" d="M22.978,29.227l-0.969-3.22
		c0.017-0.606,0.521-1.083,1.127-1.067c0.606,0.017,1.081,0.521,1.067,1.127c-0.002,0.079-0.014,0.162-0.032,0.236l-0.967,2.954
		c-0.015,0.061-0.077,0.098-0.138,0.083C23.011,29.328,22.976,29.279,22.978,29.227z"/>
	
		<linearGradient id="SVGID_17_" gradientUnits="userSpaceOnUse" x1="-767.6332" y1="1933.6787" x2="-769.0641" y2="1929.5964" gradientTransform="matrix(-0.9849 0.1731 0.1731 0.9849 -1068.2792 -1742.1395)">
		<stop  offset="0" style="stop-color:#FABE22;stop-opacity:0.76"/>
		<stop  offset="0.999" style="stop-color:#FFD32B"/>
		<stop  offset="1" style="stop-color:#FFD32B"/>
	</linearGradient>
	<path style="opacity:0.455;fill:url(#SVGID_17_);enable-background:new    ;" d="M22.988,29.236l-0.867-3.297
		c0.018-0.549,0.477-0.979,1.025-0.962c0.549,0.018,0.976,0.476,0.962,1.025c-0.002,0.069-0.012,0.141-0.028,0.205l-0.888,3.056
		c-0.014,0.055-0.07,0.089-0.125,0.076C23.018,29.328,22.986,29.284,22.988,29.236z"/>
	
		<linearGradient id="SVGID_18_" gradientUnits="userSpaceOnUse" x1="-767.6328" y1="1933.6826" x2="-769.0479" y2="1929.6342" gradientTransform="matrix(-0.9849 0.1731 0.1731 0.9849 -1068.2792 -1742.1395)">
		<stop  offset="0" style="stop-color:#F9BC21;stop-opacity:0.8"/>
		<stop  offset="0.999" style="stop-color:#FFD32B"/>
		<stop  offset="1" style="stop-color:#FFD32B"/>
	</linearGradient>
	<path style="opacity:0.545;fill:url(#SVGID_18_);enable-background:new    ;" d="M22.998,29.246l-0.765-3.374
		c0.018-0.492,0.432-0.875,0.923-0.857c0.492,0.018,0.871,0.432,0.857,0.923c-0.002,0.059-0.01,0.12-0.024,0.174L23.18,29.27
		c-0.012,0.05-0.062,0.08-0.112,0.069C23.026,29.329,22.997,29.289,22.998,29.246z"/>
	
		<linearGradient id="SVGID_19_" gradientUnits="userSpaceOnUse" x1="-767.6337" y1="1933.6866" x2="-769.0347" y2="1929.6656" gradientTransform="matrix(-0.9849 0.1731 0.1731 0.9849 -1068.2792 -1742.1395)">
		<stop  offset="0" style="stop-color:#F9B921;stop-opacity:0.84"/>
		<stop  offset="0.999" style="stop-color:#FFD32B"/>
		<stop  offset="1" style="stop-color:#FFD32B"/>
	</linearGradient>
	<path style="opacity:0.636;fill:url(#SVGID_19_);enable-background:new    ;" d="M23.009,29.256l-0.663-3.451
		c0.019-0.434,0.387-0.771,0.821-0.752s0.767,0.387,0.752,0.821c-0.002,0.048-0.009,0.098-0.02,0.143l-0.729,3.26
		c-0.01,0.044-0.054,0.071-0.098,0.061C23.033,29.33,23.007,29.294,23.009,29.256z"/>
	
		<linearGradient id="SVGID_20_" gradientUnits="userSpaceOnUse" x1="-767.6334" y1="1933.6896" x2="-769.0203" y2="1929.6996" gradientTransform="matrix(-0.9849 0.1731 0.1731 0.9849 -1068.2792 -1742.1395)">
		<stop  offset="0" style="stop-color:#F8B721;stop-opacity:0.88"/>
		<stop  offset="0.999" style="stop-color:#FFD32B"/>
		<stop  offset="1" style="stop-color:#FFD32B"/>
	</linearGradient>
	<path style="opacity:0.727;fill:url(#SVGID_20_);enable-background:new    ;" d="M23.019,29.265l-0.561-3.528
		c0.02-0.377,0.342-0.667,0.719-0.647c0.377,0.02,0.662,0.342,0.647,0.719c-0.002,0.038-0.007,0.077-0.015,0.113l-0.65,3.362
		c-0.009,0.038-0.047,0.063-0.085,0.054C23.04,29.331,23.017,29.299,23.019,29.265z"/>
	
		<linearGradient id="SVGID_21_" gradientUnits="userSpaceOnUse" x1="-767.6353" y1="1933.6941" x2="-769.0073" y2="1929.733" gradientTransform="matrix(-0.9849 0.1731 0.1731 0.9849 -1068.2792 -1742.1395)">
		<stop  offset="0" style="stop-color:#F8B421;stop-opacity:0.92"/>
		<stop  offset="0.999" style="stop-color:#FFD32B"/>
		<stop  offset="1" style="stop-color:#FFD32B"/>
	</linearGradient>
	<path style="opacity:0.818;fill:url(#SVGID_21_);enable-background:new    ;" d="M23.029,29.275l-0.458-3.605
		c0.021-0.32,0.297-0.563,0.617-0.542s0.558,0.297,0.542,0.617c-0.001,0.027-0.005,0.056-0.011,0.082l-0.57,3.464
		c-0.007,0.033-0.039,0.054-0.072,0.047C23.047,29.332,23.027,29.304,23.029,29.275z"/>
	
		<linearGradient id="SVGID_22_" gradientUnits="userSpaceOnUse" x1="-767.673" y1="1933.7101" x2="-769.03" y2="1929.7791" gradientTransform="matrix(-0.9849 0.1731 0.1731 0.9849 -1068.2792 -1742.1395)">
		<stop  offset="0" style="stop-color:#F7B221;stop-opacity:0.96"/>
		<stop  offset="0.999" style="stop-color:#FFD32B"/>
		<stop  offset="1" style="stop-color:#FFD32B"/>
	</linearGradient>
	<path style="opacity:0.909;fill:url(#SVGID_22_);enable-background:new    ;" d="M23.039,29.285l-0.356-3.682
		c0.022-0.263,0.252-0.459,0.516-0.437c0.263,0.022,0.454,0.252,0.437,0.515c-0.001,0.017-0.003,0.035-0.007,0.051l-0.491,3.566
		c-0.005,0.027-0.031,0.045-0.058,0.039C23.054,29.333,23.037,29.31,23.039,29.285z"/>
	
		<linearGradient id="SVGID_23_" gradientUnits="userSpaceOnUse" x1="-767.7172" y1="1933.7291" x2="-769.0601" y2="1929.8271" gradientTransform="matrix(-0.9849 0.1731 0.1731 0.9849 -1068.2792 -1742.1395)">
		<stop  offset="0" style="stop-color:#F7AF21"/>
		<stop  offset="1" style="stop-color:#FFD32B"/>
	</linearGradient>
	<path style="fill:url(#SVGID_23_);" d="M23.05,29.294l-0.254-3.759c0.022-0.206,0.208-0.355,0.414-0.332
		c0.206,0.022,0.355,0.208,0.332,0.414c-0.001,0.007-0.002,0.014-0.003,0.021l-0.412,3.668c-0.004,0.021-0.024,0.036-0.045,0.032
		C23.062,29.333,23.047,29.315,23.05,29.294z"/>
</g>
<g style="opacity:0.82;">
	
		<linearGradient id="SVGID_24_" gradientUnits="userSpaceOnUse" x1="-755.965" y1="1931.6418" x2="-757.455" y2="1927.4419" gradientTransform="matrix(-0.9849 0.1731 0.1731 0.9849 -1068.2792 -1742.1395)">
		<stop  offset="0" style="stop-color:#FAC722;stop-opacity:0.6"/>
		<stop  offset="0.999" style="stop-color:#FDCD23"/>
		<stop  offset="1" style="stop-color:#FDCD23"/>
	</linearGradient>
	<path style="opacity:0.091;fill:url(#SVGID_24_);enable-background:new    ;" d="M11.106,29.225L9.83,26.236
		c0.014-0.777,0.656-1.396,1.433-1.381c0.777,0.014,1.396,0.656,1.381,1.433c-0.002,0.111-0.019,0.225-0.045,0.328l-1.205,2.648
		c-0.02,0.078-0.1,0.125-0.178,0.105C11.149,29.352,11.105,29.291,11.106,29.225z"/>
	
		<linearGradient id="SVGID_25_" gradientUnits="userSpaceOnUse" x1="-755.9656" y1="1931.6451" x2="-757.4406" y2="1927.4752" gradientTransform="matrix(-0.9849 0.1731 0.1731 0.9849 -1068.2792 -1742.1395)">
		<stop  offset="0" style="stop-color:#F8C322;stop-opacity:0.64"/>
		<stop  offset="0.999" style="stop-color:#FDCD23"/>
		<stop  offset="1" style="stop-color:#FDCD23"/>
	</linearGradient>
	<path style="opacity:0.182;fill:url(#SVGID_25_);enable-background:new    ;" d="M11.117,29.234l-1.174-3.065
		c0.015-0.72,0.611-1.292,1.331-1.276c0.72,0.015,1.292,0.611,1.276,1.331c-0.002,0.1-0.017,0.204-0.041,0.297l-1.126,2.75
		c-0.019,0.073-0.093,0.116-0.165,0.098C11.156,29.353,11.115,29.296,11.117,29.234z"/>
	
		<linearGradient id="SVGID_26_" gradientUnits="userSpaceOnUse" x1="-755.9655" y1="1931.6493" x2="-757.4255" y2="1927.5093" gradientTransform="matrix(-0.9849 0.1731 0.1731 0.9849 -1068.2792 -1742.1395)">
		<stop  offset="0" style="stop-color:#F7BF22;stop-opacity:0.68"/>
		<stop  offset="0.999" style="stop-color:#FDCD23"/>
		<stop  offset="1" style="stop-color:#FDCD23"/>
	</linearGradient>
	<path style="opacity:0.273;fill:url(#SVGID_26_);enable-background:new    ;" d="M11.127,29.244l-1.072-3.143
		c0.016-0.663,0.566-1.187,1.229-1.172c0.663,0.016,1.185,0.566,1.172,1.229c-0.002,0.09-0.015,0.183-0.036,0.266l-1.047,2.852
		c-0.017,0.067-0.085,0.107-0.152,0.09C11.164,29.353,11.126,29.301,11.127,29.244z"/>
	
		<linearGradient id="SVGID_27_" gradientUnits="userSpaceOnUse" x1="-755.9653" y1="1931.6532" x2="-757.4113" y2="1927.5422" gradientTransform="matrix(-0.9849 0.1731 0.1731 0.9849 -1068.2792 -1742.1395)">
		<stop  offset="0" style="stop-color:#F5BB22;stop-opacity:0.72"/>
		<stop  offset="0.999" style="stop-color:#FDCD23"/>
		<stop  offset="1" style="stop-color:#FDCD23"/>
	</linearGradient>
	<path style="opacity:0.364;fill:url(#SVGID_27_);enable-background:new    ;" d="M11.137,29.253l-0.969-3.22
		c0.017-0.606,0.521-1.083,1.127-1.067c0.606,0.017,1.081,0.521,1.067,1.127c-0.002,0.079-0.014,0.162-0.032,0.236l-0.967,2.954
		c-0.015,0.061-0.077,0.098-0.138,0.083C11.171,29.354,11.136,29.306,11.137,29.253z"/>
	
		<linearGradient id="SVGID_28_" gradientUnits="userSpaceOnUse" x1="-755.9661" y1="1931.6576" x2="-757.3975" y2="1927.5757" gradientTransform="matrix(-0.9849 0.1731 0.1731 0.9849 -1068.2792 -1742.1395)">
		<stop  offset="0" style="stop-color:#F3B722;stop-opacity:0.76"/>
		<stop  offset="0.999" style="stop-color:#FDCD23"/>
		<stop  offset="1" style="stop-color:#FDCD23"/>
	</linearGradient>
	<path style="opacity:0.455;fill:url(#SVGID_28_);enable-background:new    ;" d="M11.148,29.263l-0.867-3.297
		c0.018-0.549,0.477-0.979,1.025-0.962c0.549,0.018,0.976,0.476,0.962,1.025c-0.002,0.069-0.012,0.141-0.028,0.205l-0.888,3.056
		c-0.014,0.055-0.07,0.089-0.125,0.076C11.178,29.355,11.146,29.311,11.148,29.263z"/>
	
		<linearGradient id="SVGID_29_" gradientUnits="userSpaceOnUse" x1="-755.9656" y1="1931.6605" x2="-757.3816" y2="1927.6124" gradientTransform="matrix(-0.9849 0.1731 0.1731 0.9849 -1068.2792 -1742.1395)">
		<stop  offset="0" style="stop-color:#F1B421;stop-opacity:0.8"/>
		<stop  offset="0.999" style="stop-color:#FDCD23"/>
		<stop  offset="1" style="stop-color:#FDCD23"/>
	</linearGradient>
	<path style="opacity:0.545;fill:url(#SVGID_29_);enable-background:new    ;" d="M11.158,29.273l-0.765-3.374
		c0.018-0.492,0.432-0.875,0.923-0.857c0.492,0.018,0.871,0.432,0.857,0.923c-0.002,0.059-0.01,0.12-0.024,0.174l-0.809,3.158
		c-0.012,0.05-0.062,0.08-0.112,0.069C11.185,29.356,11.156,29.316,11.158,29.273z"/>
	
		<linearGradient id="SVGID_30_" gradientUnits="userSpaceOnUse" x1="-755.9662" y1="1931.6644" x2="-757.3672" y2="1927.6434" gradientTransform="matrix(-0.9849 0.1731 0.1731 0.9849 -1068.2792 -1742.1395)">
		<stop  offset="0" style="stop-color:#EFB021;stop-opacity:0.84"/>
		<stop  offset="0.999" style="stop-color:#FDCD23"/>
		<stop  offset="1" style="stop-color:#FDCD23"/>
	</linearGradient>
	<path style="opacity:0.636;fill:url(#SVGID_30_);enable-background:new    ;" d="M11.168,29.282l-0.663-3.451
		c0.019-0.434,0.387-0.771,0.821-0.752s0.767,0.387,0.752,0.821c-0.002,0.048-0.009,0.098-0.02,0.143l-0.729,3.26
		c-0.01,0.044-0.054,0.071-0.098,0.061C11.192,29.357,11.166,29.321,11.168,29.282z"/>
	
		<linearGradient id="SVGID_31_" gradientUnits="userSpaceOnUse" x1="-755.9669" y1="1931.6685" x2="-757.3529" y2="1927.6775" gradientTransform="matrix(-0.9849 0.1731 0.1731 0.9849 -1068.2792 -1742.1395)">
		<stop  offset="0" style="stop-color:#EDAC21;stop-opacity:0.88"/>
		<stop  offset="0.999" style="stop-color:#FDCD23"/>
		<stop  offset="1" style="stop-color:#FDCD23"/>
	</linearGradient>
	<path style="opacity:0.727;fill:url(#SVGID_31_);enable-background:new    ;" d="M11.178,29.292l-0.561-3.528
		c0.02-0.377,0.342-0.667,0.719-0.647s0.662,0.342,0.647,0.719c-0.002,0.038-0.007,0.077-0.015,0.113l-0.65,3.362
		c-0.009,0.038-0.047,0.063-0.085,0.054C11.2,29.358,11.176,29.326,11.178,29.292z"/>
	
		<linearGradient id="SVGID_32_" gradientUnits="userSpaceOnUse" x1="-755.9698" y1="1931.6722" x2="-757.3408" y2="1927.7112" gradientTransform="matrix(-0.9849 0.1731 0.1731 0.9849 -1068.2792 -1742.1395)">
		<stop  offset="0" style="stop-color:#ECA821;stop-opacity:0.92"/>
		<stop  offset="0.999" style="stop-color:#FDCD23"/>
		<stop  offset="1" style="stop-color:#FDCD23"/>
	</linearGradient>
	<path style="opacity:0.818;fill:url(#SVGID_32_);enable-background:new    ;" d="M11.189,29.302l-0.458-3.605
		c0.021-0.32,0.297-0.563,0.617-0.542s0.558,0.297,0.542,0.617c-0.001,0.027-0.005,0.056-0.011,0.082l-0.57,3.464
		c-0.007,0.033-0.039,0.054-0.072,0.047C11.207,29.358,11.187,29.331,11.189,29.302z"/>
	
		<linearGradient id="SVGID_33_" gradientUnits="userSpaceOnUse" x1="-756.0059" y1="1931.688" x2="-757.3639" y2="1927.7579" gradientTransform="matrix(-0.9849 0.1731 0.1731 0.9849 -1068.2792 -1742.1395)">
		<stop  offset="0" style="stop-color:#EAA421;stop-opacity:0.96"/>
		<stop  offset="0.999" style="stop-color:#FDCD23"/>
		<stop  offset="1" style="stop-color:#FDCD23"/>
	</linearGradient>
	<path style="opacity:0.909;fill:url(#SVGID_33_);enable-background:new    ;" d="M11.199,29.311l-0.356-3.682
		c0.022-0.263,0.252-0.459,0.516-0.437c0.263,0.022,0.454,0.252,0.437,0.515c-0.001,0.017-0.003,0.035-0.007,0.051l-0.491,3.566
		c-0.005,0.027-0.031,0.045-0.058,0.039C11.214,29.359,11.197,29.336,11.199,29.311z"/>
	
		<linearGradient id="SVGID_34_" gradientUnits="userSpaceOnUse" x1="-756.0502" y1="1931.7069" x2="-757.3922" y2="1927.8059" gradientTransform="matrix(-0.9849 0.1731 0.1731 0.9849 -1068.2792 -1742.1395)">
		<stop  offset="0" style="stop-color:#E8A021"/>
		<stop  offset="1" style="stop-color:#FDCD23"/>
	</linearGradient>
	<path style="fill:url(#SVGID_34_);" d="M11.209,29.321l-0.254-3.759c0.022-0.206,0.208-0.355,0.414-0.332
		c0.206,0.022,0.355,0.208,0.332,0.414c-0.001,0.007-0.002,0.014-0.003,0.021l-0.412,3.668c-0.004,0.021-0.024,0.036-0.045,0.032
		C11.221,29.36,11.207,29.341,11.209,29.321z"/>
</g>
<radialGradient id="SVGID_35_" cx="-1600.7729" cy="1120.5195" r="5.058" gradientTransform="matrix(0 -1 1.1761 0 -1297.3595 -1574.0701)" gradientUnits="userSpaceOnUse">
	<stop  offset="0.224" style="stop-color:#FFD73F;stop-opacity:0"/>
	<stop  offset="0.999" style="stop-color:#F0AF13"/>
</radialGradient>
<path style="opacity:0.6;fill:url(#SVGID_35_);enable-background:new    ;" d="M19.97,27.706c1.418-0.051,2.564-1.08,2.829-2.414
	c0.168,1.642,0.339,3.316,0.339,3.33c0.059,1.656-1.235,3.046-2.891,3.105s-3.046-1.235-3.105-2.891
	c-0.002-0.048-0.09-2.535-0.09-2.535l-0.015-0.63C17.452,26.891,18.615,27.754,19.97,27.706z"/>
<radialGradient id="SVGID_36_" cx="-1600.7729" cy="1114.5295" r="5.058" gradientTransform="matrix(0 -1 1.1761 0 -1296.3046 -1574.0701)" gradientUnits="userSpaceOnUse">
	<stop  offset="0.224" style="stop-color:#FFD73F;stop-opacity:0"/>
	<stop  offset="0.999" style="stop-color:#F0AF13"/>
</radialGradient>
<path style="opacity:0.6;fill:url(#SVGID_36_);enable-background:new    ;" d="M13.979,27.706c1.418-0.051,2.564-1.08,2.829-2.414
	c0.168,1.642,0.339,3.316,0.339,3.33c0.059,1.656-1.235,3.046-2.891,3.105s-3.046-1.235-3.105-2.891
	c-0.002-0.048-0.09-2.535-0.09-2.535l-0.015-0.63C11.461,26.891,12.625,27.754,13.979,27.706z"/>
<radialGradient id="SVGID_37_" cx="-1600.847" cy="1108.6085" r="5.058" gradientTransform="matrix(0 -1 1.1761 0 -1295.2625 -1574.0701)" gradientUnits="userSpaceOnUse">
	<stop  offset="0.224" style="stop-color:#FFD73F;stop-opacity:0"/>
	<stop  offset="0.999" style="stop-color:#F0AF13"/>
</radialGradient>
<path style="opacity:0.6;fill:url(#SVGID_37_);enable-background:new    ;" d="M8.059,27.78c1.418-0.051,2.564-1.08,2.829-2.414
	c0.168,1.642,0.339,3.316,0.339,3.33c0.059,1.656-1.235,3.046-2.891,3.105S5.29,30.566,5.231,28.91
	c-0.002-0.048-0.09-2.535-0.09-2.535l-0.015-0.63C5.541,26.965,6.705,27.829,8.059,27.78z"/>
<linearGradient id="SVGID_38_" gradientUnits="userSpaceOnUse" x1="-1608.2469" y1="1236.1005" x2="-1601.8101" y2="1236.1005" gradientTransform="matrix(0 -1 1 0 -1216.0701 -1574.0701)">
	<stop  offset="0.249" style="stop-color:#FFF7E6"/>
	<stop  offset="1" style="stop-color:#FFFFFF;stop-opacity:0"/>
</linearGradient>
<path style="opacity:0.17;fill:url(#SVGID_38_);enable-background:new    ;" d="M19.912,26.786c1.418-0.051,2.564-1.08,2.829-2.414
	c0.168,1.642,0.339,3.316,0.339,3.33c0.059,1.656-1.235,3.046-2.891,3.105s-3.046-1.235-3.105-2.891
	c-0.002-0.048-0.09-2.535-0.09-2.535l-0.015-0.63C17.394,25.971,18.558,26.834,19.912,26.786z"/>
<linearGradient id="SVGID_39_" gradientUnits="userSpaceOnUse" x1="-1607.752" y1="1230.1105" x2="-1601.3151" y2="1230.1105" gradientTransform="matrix(0 -1 1 0 -1216.0701 -1574.0701)">
	<stop  offset="0.249" style="stop-color:#FFF7E6"/>
	<stop  offset="1" style="stop-color:#FFFFFF;stop-opacity:0"/>
</linearGradient>
<path style="opacity:0.17;fill:url(#SVGID_39_);enable-background:new    ;" d="M13.922,26.786c1.418-0.051,2.564-1.08,2.829-2.414
	c0.168,1.642,0.339,3.316,0.339,3.33c0.059,1.656-1.235,3.046-2.891,3.105s-3.046-1.235-3.105-2.891
	c-0.002-0.048-0.09-2.535-0.09-2.535l-0.015-0.63C11.404,25.971,12.567,26.834,13.922,26.786z"/>
<linearGradient id="SVGID_40_" gradientUnits="userSpaceOnUse" x1="-1608.699" y1="1224.1895" x2="-1602.2621" y2="1224.1895" gradientTransform="matrix(0 -1 1 0 -1216.0701 -1574.0701)">
	<stop  offset="0.249" style="stop-color:#FFF7E6"/>
	<stop  offset="1" style="stop-color:#FFFFFF;stop-opacity:0"/>
</linearGradient>
<path style="opacity:0.17;fill:url(#SVGID_40_);enable-background:new    ;" d="M8.001,26.86c1.418-0.051,2.564-1.08,2.829-2.414
	c0.168,1.642,0.339,3.316,0.339,3.33c0.059,1.656-1.235,3.046-2.891,3.105s-3.046-1.235-3.105-2.891
	c-0.002-0.048-0.09-2.535-0.09-2.535l-0.015-0.63C5.484,26.045,6.647,26.909,8.001,26.86z"/>
</svg>