<svg xmlns="http://www.w3.org/2000/svg" xmlns:xlink="http://www.w3.org/1999/xlink" viewBox="0 0 48 48" width="48px" height="48px"><defs><style>.cls-1{fill:#137c68;}.cls-2{fill:url(#radial-gradient);}.cls-3{fill:url(#linear-gradient);}.cls-10,.cls-11,.cls-12,.cls-13,.cls-14,.cls-18,.cls-20,.cls-22,.cls-24,.cls-26,.cls-4,.cls-7,.cls-8,.cls-9{opacity:0.6;}.cls-4{fill:url(#linear-gradient-2);}.cls-5{opacity:0.3;}.cls-6{fill:#fee19b;fill-rule:evenodd;}.cls-7{fill:url(#linear-gradient-3);}.cls-8{fill:url(#linear-gradient-4);}.cls-9{fill:url(#linear-gradient-5);}.cls-10{fill:url(#linear-gradient-6);}.cls-11{fill:url(#linear-gradient-7);}.cls-12{fill:url(#linear-gradient-8);}.cls-13{fill:url(#linear-gradient-9);}.cls-14{fill:url(#linear-gradient-10);}.cls-15{fill:url(#radial-gradient-2);}.cls-16{fill:#a4e0d5;}.cls-17{fill:url(#linear-gradient-11);}.cls-18{fill:url(#radial-gradient-3);}.cls-19{fill:url(#radial-gradient-4);}.cls-20{fill:url(#linear-gradient-12);}.cls-21{fill:url(#radial-gradient-5);}.cls-22{fill:url(#linear-gradient-13);}.cls-23{fill:url(#radial-gradient-6);}.cls-24{fill:url(#linear-gradient-14);}.cls-25{fill:url(#radial-gradient-7);}.cls-26{fill:url(#radial-gradient-8);}.cls-27{fill:url(#linear-gradient-15);}.cls-28{fill:url(#linear-gradient-16);}.cls-29{fill:url(#linear-gradient-17);}.cls-30{fill:url(#linear-gradient-18);}.cls-31{fill:url(#linear-gradient-19);}.cls-32{fill:url(#linear-gradient-20);}.cls-33{fill:url(#linear-gradient-21);}.cls-34{fill:url(#linear-gradient-22);}.cls-35{fill:url(#linear-gradient-23);}.cls-36{fill:url(#linear-gradient-24);}.cls-37{fill:url(#linear-gradient-25);}.cls-38{fill:url(#linear-gradient-26);}.cls-39{fill:url(#linear-gradient-27);}.cls-40{fill:url(#linear-gradient-28);}</style><radialGradient id="radial-gradient" cx="23.99" cy="18.84" r="19.66" gradientTransform="translate(0 8.09) scale(1 0.54)" gradientUnits="userSpaceOnUse"><stop offset="0" stop-color="#e3c880"/><stop offset="0.17" stop-color="#e3c57b"/><stop offset="0.35" stop-color="#e1be6e"/><stop offset="0.55" stop-color="#dfb157"/><stop offset="0.75" stop-color="#dc9e38"/><stop offset="0.96" stop-color="#d88710"/><stop offset="1" stop-color="#d78207"/></radialGradient><linearGradient id="linear-gradient" x1="8.11" y1="34.58" x2="39.87" y2="34.58" gradientUnits="userSpaceOnUse"><stop offset="0.01" stop-color="#a4e0d5"/><stop offset="0.5" stop-color="#00bdb4"/><stop offset="1" stop-color="#00a489"/></linearGradient><linearGradient id="linear-gradient-2" x1="15.51" y1="34.19" x2="12.57" y2="34.58" gradientUnits="userSpaceOnUse"><stop offset="0" stop-color="#168c76"/><stop offset="1" stop-color="#168c76" stop-opacity="0"/></linearGradient><linearGradient id="linear-gradient-3" x1="19.65" y1="35.64" x2="15.33" y2="35.79" gradientUnits="userSpaceOnUse"><stop offset="0" stop-color="#168c76"/><stop offset="0.48" stop-color="#168c76" stop-opacity="0.5"/><stop offset="1" stop-color="#168c76" stop-opacity="0"/></linearGradient><linearGradient id="linear-gradient-4" x1="13.18" y1="33.13" x2="4.46" y2="33.13" gradientUnits="userSpaceOnUse"><stop offset="0" stop-color="#168c76"/><stop offset="0.03" stop-color="#168c76" stop-opacity="0.84"/><stop offset="0.08" stop-color="#168c76" stop-opacity="0.62"/><stop offset="0.14" stop-color="#168c76" stop-opacity="0.42"/><stop offset="0.2" stop-color="#168c76" stop-opacity="0.27"/><stop offset="0.27" stop-color="#168c76" stop-opacity="0.15"/><stop offset="0.37" stop-color="#168c76" stop-opacity="0.06"/><stop offset="0.5" stop-color="#168c76" stop-opacity="0.01"/><stop offset="0.85" stop-color="#168c76" stop-opacity="0"/></linearGradient><linearGradient id="linear-gradient-5" x1="22.17" y1="36.35" x2="19.78" y2="36.4" xlink:href="#linear-gradient-2"/><linearGradient id="linear-gradient-6" x1="26.02" y1="36.62" x2="23.62" y2="36.57" gradientUnits="userSpaceOnUse"><stop offset="0" stop-color="#137c68"/><stop offset="1" stop-color="#137c68" stop-opacity="0"/></linearGradient><linearGradient id="linear-gradient-7" x1="36.1" y1="34.55" x2="34.93" y2="34.35" xlink:href="#linear-gradient-2"/><linearGradient id="linear-gradient-8" x1="29.95" y1="36.35" x2="27.8" y2="36.4" xlink:href="#linear-gradient-2"/><linearGradient id="linear-gradient-9" x1="34.93" y1="33.12" x2="39.87" y2="33.12" xlink:href="#linear-gradient-2"/><linearGradient id="linear-gradient-10" x1="33.2" y1="35.81" x2="31.51" y2="35.71" xlink:href="#linear-gradient-2"/><radialGradient id="radial-gradient-2" cx="24.22" cy="27.85" r="22.06" gradientTransform="translate(0 -1.07) scale(1 1.02)" gradientUnits="userSpaceOnUse"><stop offset="0" stop-color="#9c4428" stop-opacity="0.7"/><stop offset="0.21" stop-color="#9c4428" stop-opacity="0.46"/><stop offset="0.42" stop-color="#9c4428" stop-opacity="0.26"/><stop offset="0.63" stop-color="#9c4428" stop-opacity="0.12"/><stop offset="0.82" stop-color="#9c4428" stop-opacity="0.03"/><stop offset="1" stop-color="#9c4428" stop-opacity="0"/></radialGradient><linearGradient id="linear-gradient-11" x1="5.85" y1="22.14" x2="36.74" y2="22.14" gradientUnits="userSpaceOnUse"><stop offset="0" stop-color="#9c4428" stop-opacity="0"/><stop offset="0.18" stop-color="#9c4428" stop-opacity="0.03"/><stop offset="0.37" stop-color="#9c4428" stop-opacity="0.12"/><stop offset="0.58" stop-color="#9c4428" stop-opacity="0.26"/><stop offset="0.79" stop-color="#9c4428" stop-opacity="0.46"/><stop offset="1" stop-color="#9c4428" stop-opacity="0.7"/></linearGradient><radialGradient id="radial-gradient-3" cx="23.61" cy="23.89" r="21.83" gradientTransform="translate(0 -4.12) scale(1 1.15)" gradientUnits="userSpaceOnUse"><stop offset="0" stop-color="#034538" stop-opacity="0"/><stop offset="0.38" stop-color="#034538" stop-opacity="0.03"/><stop offset="0.58" stop-color="#034538" stop-opacity="0.15"/><stop offset="0.74" stop-color="#034538" stop-opacity="0.34"/><stop offset="0.87" stop-color="#034538" stop-opacity="0.62"/><stop offset="0.99" stop-color="#034538" stop-opacity="0.97"/><stop offset="1" stop-color="#034538"/></radialGradient><radialGradient id="radial-gradient-4" cx="16.43" cy="17.96" r="22.53" gradientTransform="translate(0 7.72) scale(1 0.53)" gradientUnits="userSpaceOnUse"><stop offset="0" stop-color="#ffcfe1"/><stop offset="0.51" stop-color="#febcd1"/><stop offset="1" stop-color="#ff819d"/></radialGradient><linearGradient id="linear-gradient-12" x1="13.05" y1="16.7" x2="37.9" y2="16.7" gradientUnits="userSpaceOnUse"><stop offset="0" stop-color="#ff1925"/><stop offset="0.79" stop-color="#ff1925" stop-opacity="0.21"/><stop offset="1" stop-color="#ff1925" stop-opacity="0"/></linearGradient><radialGradient id="radial-gradient-5" cx="17.89" cy="11.62" r="19.14" gradientTransform="translate(0 3.45) scale(1 0.63)" xlink:href="#radial-gradient-4"/><linearGradient id="linear-gradient-13" x1="18.17" y1="11.76" x2="35.22" y2="11.76" xlink:href="#linear-gradient-12"/><radialGradient id="radial-gradient-6" cx="20.84" cy="6.11" r="12.01" gradientTransform="translate(0 -1.07) scale(1 1.02)" xlink:href="#radial-gradient-4"/><linearGradient id="linear-gradient-14" x1="23.08" y1="8.11" x2="31.29" y2="8.11" xlink:href="#linear-gradient-12"/><radialGradient id="radial-gradient-7" cx="20.98" cy="-2.32" r="7.13" gradientTransform="matrix(0.88, -0.49, 1.09, 2.06, 5.04, 11.54)" gradientUnits="userSpaceOnUse"><stop offset="0.34" stop-color="#ffcfe1"/><stop offset="0.68" stop-color="#febcd1"/><stop offset="1" stop-color="#ff819d"/></radialGradient><radialGradient id="radial-gradient-8" cx="24.54" cy="11.79" r="22.43" gradientTransform="translate(0 2.93) scale(1 0.68)" gradientUnits="userSpaceOnUse"><stop offset="0" stop-color="#e3454c" stop-opacity="0"/><stop offset="0.27" stop-color="#e3454c" stop-opacity="0.01"/><stop offset="0.45" stop-color="#e3454c" stop-opacity="0.05"/><stop offset="0.6" stop-color="#e3454c" stop-opacity="0.12"/><stop offset="0.74" stop-color="#e3454c" stop-opacity="0.21"/><stop offset="0.87" stop-color="#e3454c" stop-opacity="0.33"/><stop offset="0.99" stop-color="#e3454c" stop-opacity="0.48"/><stop offset="1" stop-color="#e3454c" stop-opacity="0.5"/></radialGradient><linearGradient id="linear-gradient-15" x1="11.06" y1="13.88" x2="14.46" y2="20.82" gradientUnits="userSpaceOnUse"><stop offset="0" stop-color="#fff" stop-opacity="0.5"/><stop offset="1" stop-color="#fff" stop-opacity="0"/></linearGradient><linearGradient id="linear-gradient-16" x1="14.08" y1="5.14" x2="17.44" y2="16.12" xlink:href="#linear-gradient-15"/><linearGradient id="linear-gradient-17" x1="18.99" y1="3.32" x2="22.04" y2="12.41" xlink:href="#linear-gradient-15"/><linearGradient id="linear-gradient-18" x1="23.83" y1="0.07" x2="24.8" y2="6.95" gradientUnits="userSpaceOnUse"><stop offset="0" stop-color="#fff" stop-opacity="0.8"/><stop offset="1" stop-color="#fff" stop-opacity="0"/></linearGradient><linearGradient id="linear-gradient-19" x1="19.07" y1="6.8" x2="21.29" y2="6.8" gradientUnits="userSpaceOnUse"><stop offset="0" stop-color="#ed562b"/><stop offset="0.5" stop-color="#c3000b"/><stop offset="1" stop-color="#ab090b"/></linearGradient><linearGradient id="linear-gradient-20" x1="20.19" y1="14.68" x2="22.47" y2="14.68" gradientTransform="translate(51.51 -2.41) rotate(124.8)" xlink:href="#linear-gradient-19"/><linearGradient id="linear-gradient-21" x1="35.68" y1="14.49" x2="37.96" y2="14.49" gradientTransform="translate(6.63 53.23) rotate(-92.12)" xlink:href="#linear-gradient-19"/><linearGradient id="linear-gradient-22" x1="16.34" y1="21.85" x2="19.4" y2="21.85" xlink:href="#linear-gradient-19"/><linearGradient id="linear-gradient-23" x1="8.44" y1="20.42" x2="11.53" y2="20.42" gradientTransform="matrix(0.61, 0.79, -0.79, 0.61, 21.4, -3.15)" xlink:href="#linear-gradient-19"/><linearGradient id="linear-gradient-24" x1="20.62" y1="11.06" x2="23.74" y2="11.06" gradientTransform="translate(34.97 -2.34) rotate(82.03)" xlink:href="#linear-gradient-19"/><linearGradient id="linear-gradient-25" x1="16.33" y1="11.96" x2="18.92" y2="11.96" gradientTransform="translate(-2.9 24.53) rotate(-72.34)" xlink:href="#linear-gradient-19"/><linearGradient id="linear-gradient-26" x1="12.9" y1="35.17" x2="15.49" y2="35.17" gradientTransform="translate(-2.9 24.53) rotate(-72.34)" xlink:href="#linear-gradient-19"/><linearGradient id="linear-gradient-27" x1="11.72" y1="28.56" x2="14.33" y2="28.56" gradientTransform="translate(50.54 -10.04) rotate(59.57)" xlink:href="#linear-gradient-19"/><linearGradient id="linear-gradient-28" x1="13.07" y1="22.8" x2="15.62" y2="22.8" gradientTransform="matrix(0.79, -0.61, 0.61, 0.79, 0.56, 3.81)" xlink:href="#linear-gradient-19"/></defs><title>emj_cupcake-emoji</title><path class="cls-1" d="M39.87,23.15c.05-.32-.05-1.36-1.52-1.36v3.67l1.38-1.83Z"/><path class="cls-1" d="M38.66,21.87c.05-.32-.05-1.36-1.52-1.36v3.67l1.38-1.83Z"/><path class="cls-1" d="M9.27,21.87c-.05-.32.05-1.36,1.52-1.36v3.67L9.42,22.35Z"/><path class="cls-1" d="M8.11,23.15c-.1-.52.3-1.36,1.55-1.36v3.67A4.09,4.09,0,0,1,8.11,23.15Z"/><path class="cls-2" d="M39.54,23.63c0,3-7,5.5-15.55,5.5S8.44,26.67,8.44,23.63c0-1,.73-1.9,2-2.69,2.65-1.69,7.73-2.81,13.55-2.81,6.6,0,12.25,1.46,14.49,3.51A2.76,2.76,0,0,1,39.54,23.63Z"/><path class="cls-3" d="M39.87,23.15l-2.73,12.5L36,41.11C36,43.81,30.59,46,24,46s-12-2.19-12-4.89L10.6,35.25,8.11,23.15c.24.6,1.24.7,1.88,1.19s.78,1.35,1.49,1.65,1.49-.2,2.22,0,1.15,1.06,1.87,1.21,1.48-.48,2.2-.38,1.29.89,2,1,1.44-.62,2.14-.6S23.3,28,24,28s1.39-.75,2.08-.78,1.46.66,2.14.6,1.33-.87,2-1,1.52.5,2.19.37,1.22-1,1.87-1.2,1.61.24,2.21,0,1-1.27,1.48-1.65S39.63,23.75,39.87,23.15Z"/><path class="cls-4" d="M11.48,26c-.72-.31-1-1.27-1.49-1.65l-.11-.07,3.21,18.84a9.09,9.09,0,0,0,3,1.67L13.58,26C12.87,25.86,12,26.24,11.48,26Z"/><g class="cls-5"><path class="cls-6" d="M27,22.49c.37,0,.28.31,0,.3S27.06,22.66,27,22.49Z"/><path class="cls-6" d="M30.29,24.75c.64.07.34.9-.62.6C29.69,25,30.48,25.17,30.29,24.75Z"/><path class="cls-6" d="M29.46,24c.28,0,.22.19.28.31C29.45,24.27,29.52,24.09,29.46,24Z"/><path class="cls-6" d="M29.11,24.88c.28,0,.22.19.28.31C29.1,25.18,29.17,25,29.11,24.88Z"/><path class="cls-6" d="M29.15,24.27l0,.3h-.59l0-.3Z"/><path class="cls-6" d="M10,22.29l0,.3H9.36l0-.3Z"/><path class="cls-6" d="M27.89,25.62c1,.24-1.17.36,0,0Z"/><path class="cls-6" d="M10.85,21.4c1,.24-1.17.36,0,0Z"/><path class="cls-6" d="M35.94,24.38c.87.24-.26.68-.92.59C34.91,24.2,36.06,25,35.94,24.38Z"/><path class="cls-6" d="M28.57,27.17c-.18.31-.48.32-.89.14l0-.3A2.26,2.26,0,0,0,28.57,27.17Z"/><path class="cls-6" d="M25.53,26.18c-.44.88-1.35-.57,0,0Z"/><path class="cls-6" d="M37.44,21.67c.89.76-1.09-.47,0,0Z"/><path class="cls-6" d="M26.63,24.35l0,.3c-.54-.29-.74,0-1.47,0-.07-.35.86-.16.91-.44C26.29,24.22,26.34,24.34,26.63,24.35Z"/><path class="cls-6" d="M35.51,21c-.07.38-1,0-1.17,0,.08-.16.59-.09.61-.29C35.25,20.71,35.12,21,35.51,21Z"/><path class="cls-6" d="M37,21c.89.76-1.09-.47,0,0Z"/><path class="cls-6" d="M23.69,27.08c.37,0,.28.31,0,.3S23.71,27.25,23.69,27.08Z"/><path class="cls-6" d="M35.69,20.57c.89.76-1.09-.47,0,0Z"/><path class="cls-6" d="M21.84,26.37c.12.33-.44.28-.9.29.06-.12.3-.15.31-.3Z"/><path class="cls-6" d="M20.94,25.41c-.12.2-.53.23-.61.45C19.6,25.78,20.35,25.27,20.94,25.41Z"/><path class="cls-6" d="M14.58,24.74c-.11.31-.61.4-.92.59C12.94,25.17,13.94,24.67,14.58,24.74Z"/><path class="cls-6" d="M20.06,26.16c.68.52-1-.38,0,0Z"/><path class="cls-6" d="M19,26.17c.29,0,.22.19.27.31C19,26.48,19,26.29,19,26.17Z"/><path class="cls-6" d="M10.49,22c.29,0,.22.19.27.31C10.48,22.29,10.54,22.11,10.49,22Z"/><path class="cls-6" d="M17.6,25.91c.28,0,.22.19.28.31C17.59,26.21,17.66,26,17.6,25.91Z"/><path class="cls-6" d="M16.79,24.68c.29,0,.22.19.28.31C16.78,25,16.85,24.8,16.79,24.68Z"/><path class="cls-6" d="M16.44,25.59c.29,0,.22.19.27.31C16.43,25.89,16.5,25.71,16.44,25.59Z"/><path class="cls-6" d="M16.7,26.2l0,.3h-.59l0-.3Z"/><path class="cls-6" d="M15.89,25c.34,0,.23.28.27.46C15.81,25.4,15.93,25.15,15.89,25Z"/><path class="cls-6" d="M15.5,26.64c1.15.19-1.17.16,0,0Z"/><path class="cls-6" d="M15.35,24.2c.37,0,.28.31,0,.3S15.37,24.37,15.35,24.2Z"/><path class="cls-6" d="M13.81,24.82c.37,0,.28.31,0,.3S13.83,25,13.81,24.82Z"/><path class="cls-6" d="M33.62,21.25c.82.31-1.15.4-1.5.58-.32,0-.18-.31-.57-.31C31.69,21.35,33.12,21.61,33.62,21.25Z"/><path class="cls-6" d="M27,26.06c-.7-.41.9-.87,0,0Z"/><path class="cls-6" d="M22.44,23.56c0,.29-1,.09-.91.44C20.91,23.94,21.87,23.47,22.44,23.56Z"/><path class="cls-6" d="M21,23.38c-.61.07-.59-.6-.28-.16C21.31,23.06,21.33,23.07,21,23.38Z"/><path class="cls-6" d="M20.56,25.5c-.33-.23-1.21-.2-1.14-.63C19.75,25.11,20.63,25.08,20.56,25.5Z"/><path class="cls-6" d="M12.75,23c-1-.14.23-.78-1.12-.93C11.18,21.68,13.37,22.28,12.75,23Z"/><path class="cls-6" d="M27.9,24.22c.78.48-1.16-.18,0,0Z"/><path class="cls-6" d="M28.29,23.08c.27.14-.07.34-.32.26S28.13,23.23,28.29,23.08Z"/><path class="cls-6" d="M31.91,19.73c.79.48-1.16-.18,0,0Z"/><path class="cls-6" d="M22.72,21.45c-.9.53-1.36-.61,0,0Z"/><path class="cls-6" d="M23.84,24.66c.23.08,0,.22-.07.34C23.53,24.92,23.77,24.78,23.84,24.66Z"/><path class="cls-6" d="M26.92,20.29c.56.16-.46.49-.56.72C26.08,20.75,26.29,20.35,26.92,20.29Z"/><path class="cls-6" d="M19.32,22.41c.78.48-1.16-.18,0,0Z"/><path class="cls-6" d="M19.47,21.73c.56.64-1-.09,0,0Z"/><path class="cls-6" d="M13.53,20.33c.56.64-1-.09,0,0Z"/><path class="cls-6" d="M18.26,19.81c.54.11-.37.7-.73.3l.32-.25A.35.35,0,0,0,18.26,19.81Z"/><path class="cls-6" d="M14.33,21.85c.26.12-.09.3-.24.47C13.83,22.19,14.18,22,14.33,21.85Z"/><path class="cls-6" d="M16.88,22.67c-1.34.22-.34-.67,0,0Z"/><path class="cls-6" d="M26.73,26.81c.78.48-1.16-.18,0,0Z"/><path class="cls-6" d="M38.44,22.69c.8.39-1.16-.18,0,0Z"/><path class="cls-6" d="M30.58,25c.23.08,0,.22-.08.34C30.27,25.24,30.51,25.11,30.58,25Z"/><path class="cls-6" d="M34.9,24.06c.56.64-1-.09,0,0Z"/><path class="cls-6" d="M16.79,26.55c-.8.52-1.26-.62,0,0Z"/><path class="cls-6" d="M26.21,25.67c.79.48-1.16-.18,0,0Z"/><path class="cls-6" d="M38.07,23.47c-.29-.59,1.46-.26,0,0Z"/><path class="cls-6" d="M36.49,21.39c.16.19-.11.19-.23.25C36.1,21.45,36.37,21.45,36.49,21.39Z"/><path class="cls-6" d="M27.88,24.07c.56.64-1-.09,0,0Z"/><path class="cls-6" d="M34.39,25.37c.56.64-1-.09,0,0Z"/><path class="cls-6" d="M29.82,26.47c-1.27.64-.58-.85,0,0Z"/><path class="cls-6" d="M22.7,26c.27.14-.07.34-.32.25S22.55,26.11,22.7,26Z"/><path class="cls-6" d="M13.74,21.69l-.32.25c-.6-.12-.24-.34,0-.55C13.58,21.49,13.49,21.61,13.74,21.69Z"/><path class="cls-6" d="M33.44,22.79c-.1.23-1.35,0-.73.3-1.44,0,.14-.68.23-1C33.87,22.23,32.75,22.6,33.44,22.79Z"/><path class="cls-6" d="M20.08,26.81c.78.48-1.16-.18,0,0Z"/><path class="cls-6" d="M12.5,20.65c.68.52-1-.38,0,0Z"/><path class="cls-6" d="M11.41,20.66c.29,0,.22.19.27.31C11.4,21,11.47,20.78,11.41,20.66Z"/><path class="cls-6" d="M12.52,21.29c.78.48-1.16-.18,0,0Z"/><path class="cls-6" d="M19.27,21.34c-.92-.16-.51-.46-.91-.67C18.92,20.44,20,21.06,19.27,21.34Z"/><path class="cls-6" d="M21.94,24.61c.43.62-1.65-.12,0,0Z"/><path class="cls-6" d="M23.07,23.72c-1.34.22-.34-.67,0,0Z"/><path class="cls-6" d="M22.81,23.09c.58.46-1.36,0,0,0Z"/><path class="cls-6" d="M21.76,23.64c.27.14-.07.34-.32.25S21.61,23.79,21.76,23.64Z"/><path class="cls-6" d="M17.23,19.15c.23.08,0,.22-.08.34C16.92,19.41,17.16,19.27,17.23,19.15Z"/><path class="cls-6" d="M16.57,20.86c-.17.05-1.23.28-.64.51-.48.21-1.29-.38-1.63.18-.44-.29.75-.87,1.29-.47.14-.2-.48-.31-.82-.46C15.22,20.3,15.92,20.64,16.57,20.86Z"/><path class="cls-6" d="M16.6,26.07c.06.63-.44-.59,0,0Z"/><path class="cls-6" d="M18.28,24.46c.51.64-1.31-.13-1.54.39C15.83,24.15,17.66,24.48,18.28,24.46Z"/><path class="cls-6" d="M19.15,19.1c.42.69-1.29.18,0,0Z"/><path class="cls-6" d="M15,26.25c.27.14-.07.34-.32.25S14.82,26.4,15,26.25Z"/><path class="cls-6" d="M17.53,23.66c.79.48-1.16-.18,0,0Z"/><path class="cls-6" d="M22,22.77c-.18-.54,1.64-.5,0,0Z"/><path class="cls-6" d="M35.85,22.24c-.27.12-.84.18-.65,0-.38-.07-.6.25-.89.43-.22-.2-.11-.43.15-.68C35,22.2,35.29,21.9,35.85,22.24Z"/><path class="cls-6" d="M32.43,26.35c.76.48-2.14.31-1.14-.21A.85.85,0,0,0,32.43,26.35Z"/><path class="cls-6" d="M33.32,25.64c-.44.66-1.69-.68-2,.22-.65-.22-1.46-.43-1.56-.71C30.93,25.31,32.11,25.45,33.32,25.64Z"/><path class="cls-6" d="M32.37,24.16c-.62-.85.31-.21.62-.54q-.8.45.28.66c-.29.16-.79-.2-1.06,0C32,24.17,32.23,24.11,32.37,24.16Z"/><path class="cls-6" d="M12.86,24c1.1-.19-.73.27-.08.34-.23.13-.34,0-.25-.08a.35.35,0,0,0-.41,0C11.47,23.91,12.72,24.15,12.86,24Z"/><path class="cls-6" d="M36.33,20.58c1.07.53-1.08-.46,0,0Z"/><path class="cls-6" d="M12.28,23.41a18.39,18.39,0,0,0-2.36-.07A3.54,3.54,0,0,1,12.28,23.41Z"/><path class="cls-6" d="M30.9,22.26c-.08-.51-1.3-.38-.75-.8C30.43,21.72,31.48,21.9,30.9,22.26Z"/><path class="cls-6" d="M29.19,20.17c.48-.22.7.5,1.31.63-.28.06-1.88-.17-.73.3-.63.42-.65-.24-1.06,0C28.27,21,30.19,20.5,29.19,20.17Z"/><path class="cls-6" d="M24.07,25.15c.26.12-.09.3-.24.47-.12-.15-.25-.3-.49-.17C22.72,25.14,24,25.38,24.07,25.15Z"/><path class="cls-6" d="M26.87,23.31a7.25,7.25,0,0,1-2.12,0c0-.18-.4-.32,0-.55C24.85,23.5,25.8,23,26.87,23.31Z"/><path class="cls-6" d="M27.51,22c1.15.19-1.17.16,0,0Z"/><path class="cls-6" d="M32.83,20.15c.64.07.34.9-.62.6C32.23,20.45,33,20.57,32.83,20.15Z"/><path class="cls-6" d="M29.86,19.38c-.21,0-.24-.11-.26-.2l.21.05A.47.47,0,0,0,29.86,19.38Z"/><path class="cls-6" d="M25.44,22.13c.28,0,.22.19.28.31C25.43,22.43,25.5,22.25,25.44,22.13Z"/><path class="cls-6" d="M25.48,21.52l0,.3h-.59l0-.3Z"/><path class="cls-6" d="M21.4,21v.14a1.08,1.08,0,0,0-.31-.12Z"/><path class="cls-6" d="M16.9,22.76l-.13-.07a4.09,4.09,0,0,0-.53-.16h0l.24-.16h0c.23.07.4.15.42.31A.14.14,0,0,1,16.9,22.76Z"/><path class="cls-6" d="M24.24,21.47c.78.48-1.16-.18,0,0Z"/><path class="cls-6" d="M20.22,18.44c.23.08,0,.22-.07.34C19.91,18.7,20.15,18.56,20.22,18.44Z"/><path class="cls-6" d="M29.6,22.9a.66.66,0,0,1-.16.07,1.41,1.41,0,0,0-.47.15.32.32,0,0,1-.11-.34,1.1,1.1,0,0,1,.16-.25A6.49,6.49,0,0,1,29.6,22.9Z"/><path class="cls-6" d="M28.86,20.72c-.06.14-.39.08-.63.09C28.29,20.67,28.62,20.73,28.86,20.72Z"/><path class="cls-6" d="M24.21,21.33c.56.64-1-.09,0,0Z"/><path class="cls-6" d="M15.71,19.36c.56.64-1-.09,0,0Z"/><path class="cls-6" d="M23.27,20.41c-1.27.64-.58-.85,0,0Z"/><path class="cls-6" d="M20.7,19.55c-.13,0-.15.05.08.17h-.34c-.53-.06-.15-.34.21-.63.24-.06.5-.11.74-.14,0,.17-.34.37.11.5C21.45,19.57,20.91,19.52,20.7,19.55Z"/><path class="cls-6" d="M34.21,23.11c.43.62-1.65-.12,0,0Z"/><path class="cls-6" d="M27.92,19.1c-.44.66-1.69-.68-2,.22-.65-.22-1.46-.43-1.56-.71C25.52,18.76,26.71,18.91,27.92,19.1Z"/><path class="cls-6" d="M25.75,19.86c-.62-.85.31-.21.62-.54q-.8.45.28.66c-.29.16-.79-.2-1.06,0C25.35,19.87,25.62,19.81,25.75,19.86Z"/><path class="cls-6" d="M23.53,18.45c.48-.22.7.5,1.31.63-.28.06-1.88-.17-.73.3-.63.42-.65-.24-1.06,0C22.62,19.25,24.54,18.78,23.53,18.45Z"/><path class="cls-6" d="M36.78,22.83c.26.12-.09.3-.24.47-.12-.15-.25-.3-.49-.17C35.43,22.81,36.67,23.05,36.78,22.83Z"/><path class="cls-6" d="M16.12,23.54c-.53,0-1,.13-1.54.09a2.56,2.56,0,0,1-.58-.08h0c0-.14-.23-.25-.15-.4l.16-.08a.4.4,0,0,0,.23.29,1.6,1.6,0,0,0,.61.07A3.83,3.83,0,0,1,16.12,23.54Z"/><path class="cls-6" d="M18.15,26.23c-.39.27-.41-.38-1.23-.42C17.75,25.61,17.94,25.89,18.15,26.23Z"/><path class="cls-6" d="M12.73,25.12c.32.15-1,.56-1.62.18C11.63,25.19,12.2,25.22,12.73,25.12Z"/></g><path class="cls-7" d="M15.57,27.21c-.72-.15-1.23-1-1.87-1.21h-.13L16.1,44.78a18.82,18.82,0,0,0,2.76.74L17.75,26.83C17,26.75,16.23,27.33,15.57,27.21Z"/><path class="cls-8" d="M8.11,23.15l2.49,12.1L12,41.11a2.76,2.76,0,0,0,1.05,2L9.88,24.26C9.24,23.84,8.34,23.72,8.11,23.15Z"/><path class="cls-9" d="M19.78,27.79c-.72-.06-1.34-.87-2-1h0l1.11,18.69a25.94,25.94,0,0,0,3.53.43l-.56-18.76C21.15,27.23,20.43,27.84,19.78,27.79Z"/><path class="cls-10" d="M24,28c-.71,0-1.39-.75-2.08-.78h-.09L22.38,46c.53,0,1.06,0,1.61,0s1.27,0,1.88-.07l.2-18.74C25.38,27.24,24.7,28,24,28Z"/><path class="cls-11" d="M38,24.34c-.5.38-.77,1.35-1.48,1.65-.53.23-1.28-.08-1.95,0L32.5,44.54a8.22,8.22,0,0,0,2.42-1.46l3.15-18.81Z"/><path class="cls-12" d="M28.23,27.79c-.68.06-1.44-.62-2.14-.6h0l-.2,18.74a25.63,25.63,0,0,0,3.38-.44l.92-18.65C29.51,27,28.91,27.73,28.23,27.79Z"/><path class="cls-13" d="M38.08,24.28,34.93,43.08a2.74,2.74,0,0,0,1-2l1.2-5.45,2.73-12.5C39.65,23.72,38.72,23.85,38.08,24.28Z"/><path class="cls-14" d="M34.29,26c-.65.18-1.16,1.06-1.87,1.2s-1.48-.46-2.19-.37l-.07,0L29.25,45.5a17.67,17.67,0,0,0,3.25-1L34.55,26A1.45,1.45,0,0,0,34.29,26Z"/><path class="cls-15" d="M10,24.41c.51.38.78,1.35,1.49,1.65s1.49-.2,2.22,0,1.15,1.06,1.87,1.21,1.48-.48,2.2-.38,1.29.89,2,1,1.44-.62,2.14-.6S23.3,28,24,28s1.39-.75,2.08-.78,1.46.66,2.14.6,1.33-.87,2-1,1.52.5,2.19.37,1.22-1,1.87-1.2,1.61.24,2.21,0,1-1.27,1.48-1.65,1.42-.56,1.77-1l.12-.65c-.24.6-1.24.71-1.89,1.19s-.77,1.35-1.48,1.65-1.49-.2-2.21,0-1.16,1.06-1.87,1.2-1.48-.46-2.19-.37-1.3.89-2,1-1.44-.62-2.14-.6-1.38.78-2.08.78-1.39-.75-2.08-.78-1.46.66-2.14.6-1.34-.87-2-1-1.53.5-2.2.38-1.23-1-1.87-1.21-1.63.26-2.22,0S10.5,24.33,10,24s-1.64-.59-1.88-1.19l.12.65C8.58,23.86,9.43,24,10,24.41Z"/><path class="cls-16" d="M10,24.8c.51.38.78,1.35,1.49,1.65s1.49-.2,2.22,0,1.15,1.06,1.87,1.21,1.48-.48,2.2-.38,1.29.89,2,1,1.44-.62,2.14-.6,1.38.78,2.08.78,1.39-.75,2.08-.78,1.46.66,2.14.6,1.33-.87,2-1,1.52.5,2.19.37,1.22-1,1.87-1.2,1.61.24,2.21,0,1-1.27,1.48-1.65,1.42-.56,1.77-1l.12-.65c-.24.6-1.24.71-1.89,1.19S37.22,25.68,36.5,26s-1.49-.2-2.21,0-1.16,1.06-1.87,1.2-1.48-.46-2.19-.37-1.3.89-2,1-1.44-.62-2.14-.6S24.71,28,24,28s-1.39-.75-2.08-.78-1.46.66-2.14.6-1.34-.87-2-1-1.53.5-2.2.38-1.23-1-1.87-1.21-1.63.26-2.22,0-1-1.27-1.49-1.65-1.64-.59-1.88-1.19l.12.65C8.58,24.24,9.43,24.36,10,24.8Z"/><ellipse class="cls-16" cx="22.15" cy="36.8" rx="0.09" ry="9.16" transform="translate(-0.92 0.57) rotate(-1.44)"/><ellipse class="cls-16" cx="18.32" cy="36.41" rx="0.09" ry="9.13" transform="translate(-2.13 1.15) rotate(-3.4)"/><ellipse class="cls-16" cx="25.98" cy="36.79" rx="9.14" ry="0.09" transform="translate(-11.11 62.34) rotate(-89.34)"/><ellipse class="cls-16" cx="14.9" cy="35.62" rx="0.09" ry="9.24" transform="translate(-4.49 2.23) rotate(-7.45)"/><ellipse class="cls-16" cx="11.54" cy="33.95" rx="0.09" ry="9.29" transform="matrix(0.99, -0.17, 0.17, 0.99, -5.5, 2.4)"/><path class="cls-17" d="M38.49,21.63a4.23,4.23,0,0,1-1.35,1.94A8.68,8.68,0,0,1,34,25a33.58,33.58,0,0,1-10.24,1.11c-.94,0-2,0-3-.06a17.52,17.52,0,0,1-6.55-1.14,7.29,7.29,0,0,1-3.77-4c2.65-1.69,7.73-2.81,13.55-2.81C30.59,18.12,36.24,19.58,38.49,21.63Z"/><ellipse class="cls-16" cx="29.74" cy="36.39" rx="9.12" ry="0.09" transform="translate(-8.2 64.13) rotate(-86.91)"/><ellipse class="cls-16" cx="33.53" cy="35.48" rx="9.12" ry="0.09" transform="translate(-5.5 64.8) rotate(-83.54)"/><path class="cls-18" d="M39.71,23.49l0,0a2.31,2.31,0,0,1-.4.23,7,7,0,0,0-1.19.59c-.5.38-.77,1.35-1.48,1.65a1.2,1.2,0,0,1-.5.08h0A5.91,5.91,0,0,0,34.4,26c-.65.18-1.16,1.06-1.87,1.2s-1.48-.46-2.19-.37a2.86,2.86,0,0,0-1.1.55,4.15,4.15,0,0,1-.4.24h0a1.39,1.39,0,0,1-.48.15c-.68.06-1.44-.62-2.14-.6h0a2.73,2.73,0,0,0-1.05.42,4.65,4.65,0,0,1-.49.24h0a1.4,1.4,0,0,1-.52.11c-.71,0-1.39-.75-2.08-.78a3,3,0,0,0-1.21.37,4.08,4.08,0,0,1-.41.16h0a1.32,1.32,0,0,1-.47.06c-.72-.06-1.34-.87-2-1h0c-.71-.08-1.51.5-2.18.38s-1.23-1-1.87-1.21h-.13c-.7-.13-1.53.25-2.09,0-.72-.31-1-1.27-1.49-1.65a6.36,6.36,0,0,0-1.2-.61,2.27,2.27,0,0,1-.38-.22l0,0a.83.83,0,0,1-.27-.34l2.49,12.1,1.44,5.86a2.07,2.07,0,0,0,.07.52l0,.07a2.4,2.4,0,0,0,.18.44l0,0a3.63,3.63,0,0,0,.76.93h0a5.82,5.82,0,0,0,.57.46l0,0q.3.21.65.4l.06,0q.35.19.75.37l0,0q.42.19.89.36h0A23.9,23.9,0,0,0,24.1,46c.64,0,1.27,0,1.88-.07h0a25.62,25.62,0,0,0,3.38-.44h0c.6-.12,1.16-.26,1.7-.42l.07,0a10.09,10.09,0,0,0,3.9-2h0a3.59,3.59,0,0,0,.74-.93l0,0a2.39,2.39,0,0,0,.17-.44l0-.07a2.07,2.07,0,0,0,.07-.52l1.2-5.45L40,23.15A.85.85,0,0,1,39.71,23.49Z"/><path class="cls-19" d="M38.43,19.81a3.92,3.92,0,0,1-1.52,3,8.69,8.69,0,0,1-3.11,1.46,33.59,33.59,0,0,1-10.24,1.11c-.94,0-2,0-3-.06A17.52,17.52,0,0,1,14,24.19,7,7,0,0,1,9.86,17,6.24,6.24,0,0,1,13,12.53a8.25,8.25,0,0,1,3.89-1.1A20.79,20.79,0,0,1,24.18,13l8.66,3c1.49.51,4,.88,5.06,2.3A2.4,2.4,0,0,1,38.43,19.81Z"/><path class="cls-20" d="M37.9,18.31A16.35,16.35,0,0,1,27.29,22c-7.12,0-13-4.07-14.24-9.44a8.25,8.25,0,0,1,3.89-1.1A20.79,20.79,0,0,1,24.18,13l8.66,3C34.34,16.52,36.84,16.89,37.9,18.31Z"/><path class="cls-21" d="M34.56,18.65a12,12,0,0,1-5.35,1.94,26.13,26.13,0,0,1-8.22-1c-2.85-.8-6-2-7.68-5.28-1.3-2.57-.61-6.25,2.18-7.44a5.61,5.61,0,0,1,2.73-.4,8.52,8.52,0,0,1,2.62.61,27.38,27.38,0,0,1,4.74,2.8,14.56,14.56,0,0,0,5,2.35c1.18.24,2.42.22,3.58.56a4,4,0,0,1,1.11.51,2.81,2.81,0,0,1,1.39,1.9C36.84,16.63,35.76,17.92,34.56,18.65Z"/><path class="cls-22" d="M35.22,13.34A9.54,9.54,0,0,1,18.17,7.58a10.63,10.63,0,0,1,.06-1.08,8.52,8.52,0,0,1,2.62.61,27.38,27.38,0,0,1,4.74,2.8,14.56,14.56,0,0,0,5,2.35c1.18.24,2.42.22,3.58.56A4,4,0,0,1,35.22,13.34Z"/><path class="cls-23" d="M32.78,13.74a4.56,4.56,0,0,1-2,1.41,9.73,9.73,0,0,1-8.12-.42c-2-1-4.32-2.95-4.89-5.58-.45-2,.36-4.46,2-5.09,1.24-.49,2.55.11,3.74.78l.28.15,7.5,4.23.14.09a3.54,3.54,0,0,1,1.84,1.83A3,3,0,0,1,32.78,13.74Z"/><path class="cls-24" d="M31.29,9.23a4.42,4.42,0,0,1-3.76,2.13A4.5,4.5,0,0,1,23.08,6.8a4.58,4.58,0,0,1,.43-1.94l.28.15Z"/><path class="cls-25" d="M23.41,2.28c.29-.68.82-1.37,1.45-1.27a1.86,1.86,0,0,1,1,.79l2.75,3.41a7.23,7.23,0,0,1,1,1.53,2.9,2.9,0,0,1,.22,1.9,2.47,2.47,0,0,1-1.6,1.61,4.11,4.11,0,0,1-4.54-1.5C22.43,7.14,22.6,4.17,23.41,2.28Z"/><path class="cls-26" d="M37.89,18.31a4.18,4.18,0,0,0-1.72-1.23,2.67,2.67,0,0,0,.42-1.84,2.81,2.81,0,0,0-1.39-1.9,4,4,0,0,0-1.11-.51,7.29,7.29,0,0,0-.82-.18,2.6,2.6,0,0,0,0-1.49,3.54,3.54,0,0,0-1.84-1.83l-.14-.09-1.39-.78a3,3,0,0,0-.25-1.71,7.23,7.23,0,0,0-1-1.53L25.85,1.8a1.86,1.86,0,0,0-1-.79c-.63-.1-1.16.59-1.45,1.27a8.13,8.13,0,0,0-.57,2.22,3.77,3.77,0,0,0-3.07-.43,3.48,3.48,0,0,0-1.9,2.42,5.53,5.53,0,0,0-2.37.42c-2.23.95-3.1,3.49-2.7,5.78A6.18,6.18,0,0,0,9.84,17,7,7,0,0,0,14,24.19a17.52,17.52,0,0,0,6.55,1.14c1.05,0,2.08,0,3,.06a33.59,33.59,0,0,0,10.24-1.11,8.69,8.69,0,0,0,3.11-1.46,3.92,3.92,0,0,0,1.52-3A2.4,2.4,0,0,0,37.89,18.31Z"/><path class="cls-27" d="M11.67,20.22a5.89,5.89,0,0,0,5,2.77c.41,0,.91-.14,1-.55a1,1,0,0,0-.26-.74l-4.52-6.53a2.25,2.25,0,0,0-.61-.66C11,13.75,10.83,16,10.79,16.74A6.12,6.12,0,0,0,11.67,20.22Z"/><path class="cls-28" d="M14.68,14.85a6.7,6.7,0,0,1-1.13-4.36,3.6,3.6,0,0,1,.66-1.9A1.81,1.81,0,0,1,16,7.86c.9.2,1.38,1.18,1.73,2.05l1.88,4.59A4.77,4.77,0,0,1,20,15.92a1.61,1.61,0,0,1-.47,1.35c-.68.58-1.85,0-2.51-.36A6.47,6.47,0,0,1,14.68,14.85Z"/><path class="cls-29" d="M18.75,8.94a4,4,0,0,1-.16-2.48,1.91,1.91,0,0,1,1.84-1.41,2,2,0,0,1,1.39.9,6.11,6.11,0,0,1,.7,1.58l1,3a4.32,4.32,0,0,1,.29,1.26c0,1.7-1.6,1.58-2.53.8A8.22,8.22,0,0,1,18.75,8.94Z"/><path class="cls-30" d="M23.52,4.73a4.74,4.74,0,0,0,.74,2.71c.22.33.58.64.89.46s.34-.72.32-1.15l-.16-3.57c0-.82-.5-1.58-1.08-.81A4.42,4.42,0,0,0,23.52,4.73Z"/><path class="cls-31" d="M19.67,8.49h-.05a.61.61,0,0,1-.55-.66,4,4,0,0,1,1.21-2.55.59.59,0,0,1,.85,0,.62.62,0,0,1,0,.87,2.76,2.76,0,0,0-.83,1.75A.61.61,0,0,1,19.67,8.49Z"/><path class="cls-32" d="M26.22,5.34l0,0a.59.59,0,0,1,.85-.08,4,4,0,0,1,1.36,2.48.61.61,0,0,1-.51.69.6.6,0,0,1-.68-.52,2.75,2.75,0,0,0-.93-1.7A.62.62,0,0,1,26.22,5.34Z"/><path class="cls-33" d="M21.42,16.36a.52.52,0,0,1,0,.05.61.61,0,0,1-.63.58,3.85,3.85,0,0,1-2.54-1.15.62.62,0,0,1,0-.87.59.59,0,0,1,.85,0,2.65,2.65,0,0,0,1.75.79A.61.61,0,0,1,21.42,16.36Z"/><path class="cls-34" d="M16.94,23a.59.59,0,0,1-.45-.21.62.62,0,0,1,0-.87,6,6,0,0,1,2.07-1.24.6.6,0,0,1,.76.38.62.62,0,0,1-.37.78,4.84,4.84,0,0,0-1.65,1A.59.59,0,0,1,16.94,23Z"/><path class="cls-35" d="M9.94,17.24a.62.62,0,0,1-.12-.49.6.6,0,0,1,.7-.49,6,6,0,0,1,2.22.91.62.62,0,0,1,.17.85.59.59,0,0,1-.83.18,4.8,4.8,0,0,0-1.78-.73A.6.6,0,0,1,9.94,17.24Z"/><path class="cls-36" d="M25.82,20.38a.62.62,0,0,1,.14-.48.59.59,0,0,1,.85-.07,6.19,6.19,0,0,1,1.48,1.92.62.62,0,0,1-.26.83.59.59,0,0,1-.81-.27A5,5,0,0,0,26,20.76.62.62,0,0,1,25.82,20.38Z"/><path class="cls-37" d="M15.38,11.14a.61.61,0,0,1-.16.26,3.44,3.44,0,0,1-2.36,1,.61.61,0,0,1,0-1.23,2.23,2.23,0,0,0,1.53-.64.59.59,0,0,1,.85,0A.63.63,0,0,1,15.38,11.14Z"/><path class="cls-38" d="M36.46,21.45a.61.61,0,0,1-.16.26,3.44,3.44,0,0,1-2.36,1,.61.61,0,0,1,0-1.23,2.23,2.23,0,0,0,1.53-.64.59.59,0,0,1,.85,0A.63.63,0,0,1,36.46,21.45Z"/><path class="cls-39" d="M31.63,17a.62.62,0,0,1-.08-.29,3.6,3.6,0,0,1,.86-2.45.59.59,0,0,1,.85-.06.63.63,0,0,1,.05.87,2.34,2.34,0,0,0-.56,1.6.61.61,0,0,1-.58.64A.6.6,0,0,1,31.63,17Z"/><path class="cls-40" d="M27.21,13.91a.59.59,0,0,1-.27.12,3.41,3.41,0,0,1-2.48-.57.62.62,0,0,1-.16-.85.59.59,0,0,1,.84-.16,2.22,2.22,0,0,0,1.62.37.6.6,0,0,1,.69.51A.62.62,0,0,1,27.21,13.91Z"/></svg>