<svg height="1500" viewBox="0 0 1500 1500" width="1500" xmlns="http://www.w3.org/2000/svg"><path d="M257.489 542.347h985.021v506.232c0 14.982-12.145 27.126-27.127 27.126H284.616c-14.982 0-27.127-12.145-27.127-27.126z" fill="#fff"/><path d="M1215.384 1077.048H284.616c-15.698 0-28.469-12.771-28.469-28.469V541.005h987.706v507.574c0 15.698-12.771 28.469-28.469 28.469zM258.832 543.689v504.891c0 14.218 11.567 25.785 25.784 25.785h930.768c14.217 0 25.784-11.567 25.784-25.785V543.689z" fill="#231f20"/><path d="M284.616 424.294h930.768c14.982 0 27.127 12.145 27.127 27.127v90.926H257.489v-90.926c0-14.982 12.145-27.127 27.127-27.127z" fill="#231f20"/><path d="M1243.853 543.689H256.147v-92.268c0-15.698 12.771-28.469 28.469-28.469h930.768c15.698 0 28.469 12.771 28.469 28.469zm-985.021-2.684h982.336v-89.584c0-14.218-11.567-25.785-25.784-25.785H284.616c-14.217 0-25.784 11.567-25.784 25.785z" fill="#231f20"/><circle cx="328.455" cy="483.321" fill="#fff" r="18.65"/><path d="M328.455 503.313c-11.024 0-19.992-8.968-19.992-19.992s8.968-19.992 19.992-19.992 19.993 8.968 19.993 19.992-8.969 19.992-19.993 19.992zm0-37.301c-9.543 0-17.308 7.765-17.308 17.309s7.764 17.309 17.308 17.309 17.308-7.765 17.308-17.309-7.764-17.309-17.308-17.309z" fill="#fff"/><circle cx="392.904" cy="483.321" fill="#fff" r="18.65"/><path d="M392.904 503.313c-11.024 0-19.993-8.968-19.993-19.992s8.969-19.992 19.993-19.992 19.993 8.968 19.993 19.992-8.969 19.992-19.993 19.992zm0-37.301c-9.544 0-17.308 7.765-17.308 17.309s7.764 17.309 17.308 17.309 17.308-7.765 17.308-17.309-7.764-17.309-17.308-17.309z" fill="#fff"/><circle cx="457.353" cy="483.321" fill="#fff" r="18.65"/><path d="M457.353 503.313c-11.024 0-19.993-8.968-19.993-19.992s8.969-19.992 19.993-19.992 19.993 8.968 19.993 19.992-8.969 19.992-19.993 19.992zm0-37.301c-9.544 0-17.308 7.765-17.308 17.309s7.764 17.309 17.308 17.309 17.308-7.765 17.308-17.309-7.764-17.309-17.308-17.309z" fill="#fff"/><path d="M1226.224 1074.791a1.342 1.342 0 0 1-1.342-1.342V542.347a1.342 1.342 0 0 1 2.684 0v531.103a1.34 1.34 0 0 1-1.342 1.341z" fill="#231f20"/><path d="M1234.368 798.994a8.143 8.143 0 0 0-8.143 8.143v178.065a8.143 8.143 0 0 0 16.286 0V807.137a8.143 8.143 0 0 0-8.143-8.143z" fill="#231f20"/><path d="M1234.368 994.687c-5.23 0-9.485-4.255-9.485-9.484V807.137c0-5.229 4.255-9.484 9.485-9.484s9.485 4.255 9.485 9.484v178.065c0 5.23-4.255 9.485-9.485 9.485zm0-194.351a6.809 6.809 0 0 0-6.801 6.801v178.065c0 3.75 3.051 6.801 6.801 6.801s6.801-3.051 6.801-6.801V807.137c-.001-3.75-3.051-6.801-6.801-6.801zM218.51 355.852l5.299 13.77 13.77 5.299-13.77 5.299-5.299 13.771-5.304-13.766-13.766-5.304 13.771-5.299zm1071.593 822.96 5.299 13.771 13.771 5.298-13.771 5.299-5.299 13.771-5.304-13.765-13.765-5.305 13.77-5.298zm-930.814 8.72 5.299 13.771 13.77 5.299-13.77 5.299-5.299 13.77-5.305-13.765-13.765-5.304 13.771-5.299zm709.096-913.203 5.299 13.77 13.771 5.299-13.771 5.299-5.299 13.771-5.304-13.766-13.765-5.304 13.771-5.299z" fill="#231f20"/><path d="M582.553 726.341h437.384V951.47H582.553z" fill="#fff"/><path d="M1019.936 952.812H582.553a1.342 1.342 0 0 1-1.342-1.342V726.341c0-.741.601-1.342 1.342-1.342h437.384c.741 0 1.342.601 1.342 1.342V951.47c0 .741-.601 1.342-1.343 1.342zm-436.041-2.684h434.699V727.683H583.895z" fill="#231f20"/><path d="M795.792 720.888h10.905v10.905h-10.905zm0 225.129h10.905v10.905h-10.905zm229.598-112.564v10.905h-10.906v-10.905zm-437.385-.001v10.905H577.1v-10.905z" fill="#231f20"/><path d="M1010.227 716.631h19.42v19.42h-19.42z" fill="#fff"/><path d="M1029.646 737.392h-19.419a1.342 1.342 0 0 1-1.342-1.342v-19.419c0-.741.601-1.342 1.342-1.342h19.419c.741 0 1.342.601 1.342 1.342v19.419c0 .741-.601 1.342-1.342 1.342zm-18.077-2.684h16.735v-16.735h-16.735z" fill="#231f20"/><path d="M1010.687 941.76h19.42v19.42h-19.42z" fill="#fff"/><path d="M1030.106 962.521h-19.419a1.342 1.342 0 0 1-1.342-1.342V941.76c0-.741.601-1.342 1.342-1.342h19.419c.741 0 1.342.601 1.342 1.342v19.419c0 .741-.601 1.342-1.342 1.342zm-18.077-2.684h16.735v-16.735h-16.735z" fill="#231f20"/><path d="M572.843 716.631h19.42v19.42h-19.42z" fill="#fff"/><path d="M592.263 737.392h-19.42a1.342 1.342 0 0 1-1.342-1.342v-19.419c0-.741.601-1.342 1.342-1.342h19.42c.741 0 1.342.601 1.342 1.342v19.419c0 .741-.601 1.342-1.342 1.342zm-18.078-2.684h16.735v-16.735h-16.735z" fill="#231f20"/><path d="M572.843 941.76h19.42v19.42h-19.42z" fill="#fff"/><path d="M592.263 962.521h-19.42a1.342 1.342 0 0 1-1.342-1.342V941.76c0-.741.601-1.342 1.342-1.342h19.42c.741 0 1.342.601 1.342 1.342v19.419c0 .741-.601 1.342-1.342 1.342zm-18.078-2.684h16.735v-16.735h-16.735zm442.593 3.648c-3.53-9.602 5.803-18.934 15.404-15.404l75.184 27.638 74.737 27.474c9.674 3.556 10.66 16.85 1.615 21.794l-58.215 31.82-31.82 58.215c-4.944 9.045-18.238 8.059-21.794-1.615l-27.474-74.737z" fill="#231f20"/><path d="M653.574 1042.574H522.437a4.48 4.48 0 0 0-4.481 4.481v97.17a4.48 4.48 0 0 0 4.481 4.481h131.137a4.48 4.48 0 0 0 4.481-4.481v-97.17a4.48 4.48 0 0 0-4.481-4.481z" fill="#fff"/><path d="M653.574 1150.049H522.437a5.83 5.83 0 0 1-5.824-5.823v-97.171a5.83 5.83 0 0 1 5.824-5.823h131.137a5.83 5.83 0 0 1 5.824 5.823v97.171a5.83 5.83 0 0 1-5.824 5.823zm-131.137-106.134a3.143 3.143 0 0 0-3.139 3.14v97.171a3.143 3.143 0 0 0 3.139 3.14h131.137a3.143 3.143 0 0 0 3.139-3.14v-97.171a3.143 3.143 0 0 0-3.139-3.14z" fill="#231f20"/><path d="M549.062 1073.207h56.845v56.845h-56.845z" fill="#231f20"/><path d="M605.907 1131.395h-56.845a1.342 1.342 0 0 1-1.342-1.342v-56.846c0-.741.601-1.342 1.342-1.342h56.845c.741 0 1.342.601 1.342 1.342v56.846c0 .741-.601 1.342-1.342 1.342zm-55.503-2.684h54.161v-54.162h-54.161z" fill="#231f20"/><path d="M537.082 1061.228h56.845v56.845h-56.845z" fill="#fff"/><path d="M593.927 1119.415h-56.845a1.342 1.342 0 0 1-1.342-1.342v-56.846c0-.741.601-1.342 1.342-1.342h56.845c.741 0 1.342.601 1.342 1.342v56.846c0 .742-.601 1.342-1.342 1.342zm-55.503-2.683h54.161v-54.162h-54.161zm82.933-55.504h17.571v17.571h-17.571z" fill="#231f20"/><path d="M638.929 1080.141h-17.571a1.342 1.342 0 0 1-1.342-1.342v-17.571c0-.741.601-1.342 1.342-1.342h17.571c.741 0 1.342.601 1.342 1.342v17.571c0 .741-.601 1.342-1.342 1.342zm-16.229-2.684h14.887v-14.888H622.7zm-1.343 9.397h17.571v17.571h-17.571z" fill="#231f20"/><path d="M638.929 1105.768h-17.571a1.342 1.342 0 0 1-1.342-1.342v-17.571c0-.741.601-1.342 1.342-1.342h17.571c.741 0 1.342.601 1.342 1.342v17.571c0 .741-.601 1.342-1.342 1.342zm-16.229-2.684h14.887v-14.888H622.7zm-1.343 9.397h17.571v17.571h-17.571z" fill="#231f20"/><path d="M638.929 1131.395h-17.571a1.342 1.342 0 0 1-1.342-1.342v-17.571c0-.741.601-1.342 1.342-1.342h17.571c.741 0 1.342.601 1.342 1.342v17.571c0 .741-.601 1.342-1.342 1.342zm-16.229-2.684h14.887v-14.888H622.7z" fill="#231f20"/><path d="M178.038 813.046h49.931a4.48 4.48 0 0 1 4.481 4.481v295.431a4.48 4.48 0 0 1-4.481 4.481h-49.931a4.48 4.48 0 0 1-4.481-4.481V817.527a4.48 4.48 0 0 1 4.481-4.481z" fill="#fff"/><path d="M227.969 1118.781h-49.931a5.83 5.83 0 0 1-5.824-5.823V817.527a5.83 5.83 0 0 1 5.824-5.823h49.931a5.83 5.83 0 0 1 5.824 5.823v295.431a5.83 5.83 0 0 1-5.824 5.823zm-49.931-304.393a3.143 3.143 0 0 0-3.139 3.14v295.431a3.143 3.143 0 0 0 3.139 3.14h49.931a3.143 3.143 0 0 0 3.139-3.14V817.527a3.143 3.143 0 0 0-3.139-3.14h-49.931z" fill="#231f20"/><path d="M188.679 826.601h29.831v29.831h-29.831z" fill="#fff"/><path d="M218.51 857.774h-29.831a1.342 1.342 0 0 1-1.342-1.342v-29.831c0-.741.601-1.342 1.342-1.342h29.831c.741 0 1.342.601 1.342 1.342v29.831c0 .741-.601 1.342-1.342 1.342zm-28.489-2.684h27.146v-27.147h-27.146zm-1.342 12.435h29.831v29.831h-29.831z" fill="#231f20"/><path d="M218.51 898.697h-29.831a1.342 1.342 0 0 1-1.342-1.342v-29.83c0-.741.601-1.342 1.342-1.342h29.831c.741 0 1.342.601 1.342 1.342v29.83c0 .742-.601 1.342-1.342 1.342zm-28.489-2.683h27.146v-27.146h-27.146z" fill="#231f20"/><path d="M188.679 908.449h29.831v29.831h-29.831z" fill="#fff"/><path d="M218.51 939.622h-29.831a1.342 1.342 0 0 1-1.342-1.342v-29.831c0-.741.601-1.342 1.342-1.342h29.831c.741 0 1.342.601 1.342 1.342v29.831c0 .742-.601 1.342-1.342 1.342zm-28.489-2.683h27.146v-27.147h-27.146zm-1.342 12.435h29.831v29.831h-29.831z" fill="#231f20"/><path d="M218.51 980.547h-29.831a1.342 1.342 0 0 1-1.342-1.342v-29.831c0-.741.601-1.342 1.342-1.342h29.831c.741 0 1.342.601 1.342 1.342v29.831c0 .741-.601 1.342-1.342 1.342zm-28.489-2.684h27.146v-27.147h-27.146zm-1.342 12.435h29.831v29.831h-29.831z" fill="#231f20"/><path d="M218.51 1021.471h-29.831a1.342 1.342 0 0 1-1.342-1.342v-29.831c0-.741.601-1.342 1.342-1.342h29.831c.741 0 1.342.601 1.342 1.342v29.831c0 .741-.601 1.342-1.342 1.342zm-28.489-2.684h27.146V991.64h-27.146z" fill="#231f20"/><path d="M188.679 1031.223h29.831v29.831h-29.831z" fill="#fff"/><path d="M218.51 1062.396h-29.831a1.342 1.342 0 0 1-1.342-1.342v-29.831c0-.741.601-1.342 1.342-1.342h29.831c.741 0 1.342.601 1.342 1.342v29.831c0 .741-.601 1.342-1.342 1.342zm-28.489-2.684h27.146v-27.147h-27.146zm-1.342 12.435h29.831v29.831h-29.831z" fill="#231f20"/><path d="M218.51 1103.32h-29.831a1.342 1.342 0 0 1-1.342-1.342v-29.831c0-.741.601-1.342 1.342-1.342h29.831c.741 0 1.342.601 1.342 1.342v29.831c0 .742-.601 1.342-1.342 1.342zm-28.489-2.683h27.146v-27.147h-27.146z" fill="#231f20"/><path d="M1326.443 466.466v187.191a4.48 4.48 0 0 1-4.481 4.481h-220.224a4.48 4.48 0 0 1-4.481-4.481V466.466a4.48 4.48 0 0 1 4.481-4.481h220.224a4.48 4.48 0 0 1 4.481 4.481z" fill="#fff"/><path d="M1321.962 659.481h-220.224a5.83 5.83 0 0 1-5.824-5.823V466.466a5.83 5.83 0 0 1 5.824-5.823h220.224a5.83 5.83 0 0 1 5.824 5.823v187.191a5.831 5.831 0 0 1-5.824 5.824zm-220.224-196.155a3.143 3.143 0 0 0-3.139 3.14v187.191a3.143 3.143 0 0 0 3.139 3.14h220.224a3.143 3.143 0 0 0 3.139-3.14V466.466a3.143 3.143 0 0 0-3.139-3.14z" fill="#231f20"/><path d="M1312.943 612.725v29.831H1142.55v-29.83z" fill="#fff"/><path d="M1312.943 643.898h-170.394a1.342 1.342 0 0 1-1.342-1.342v-29.831c0-.741.601-1.342 1.342-1.342h170.394c.741 0 1.342.601 1.342 1.342v29.831c0 .741-.601 1.342-1.342 1.342zm-169.052-2.684H1311.6v-27.147h-167.709z" fill="#231f20"/><circle cx="1295.825" cy="627.05" fill="#fff" r="5.721"/><path d="M1295.825 634.112c-3.895 0-7.063-3.168-7.063-7.062 0-3.896 3.168-7.063 7.063-7.063s7.063 3.168 7.063 7.063c0 3.894-3.168 7.062-7.063 7.062zm0-11.442a4.384 4.384 0 0 0-4.379 4.38c0 2.414 1.964 4.379 4.379 4.379s4.379-1.965 4.379-4.379a4.386 4.386 0 0 0-4.379-4.38zm-153.276-9.945v29.83h-29.831v-29.83z" fill="#231f20"/><path d="M1142.549 643.898h-29.831a1.342 1.342 0 0 1-1.342-1.342v-29.831c0-.741.601-1.342 1.342-1.342h29.831c.741 0 1.342.601 1.342 1.342v29.831c0 .741-.601 1.342-1.342 1.342zm-28.489-2.684h27.146v-27.147h-27.146z" fill="#231f20"/><path d="M1312.943 567.772v29.831h-170.394v-29.83z" fill="#fff"/><path d="M1312.943 598.944h-170.394a1.342 1.342 0 0 1-1.342-1.342v-29.831c0-.741.601-1.342 1.342-1.342h170.394c.741 0 1.342.601 1.342 1.342v29.831c0 .742-.601 1.342-1.342 1.342zm-169.052-2.683H1311.6v-27.147h-167.709z" fill="#231f20"/><circle cx="1295.825" cy="582.097" fill="#fff" r="5.721"/><path d="M1295.825 589.16c-3.895 0-7.063-3.168-7.063-7.063s3.168-7.062 7.063-7.062 7.063 3.168 7.063 7.062a7.07 7.07 0 0 1-7.063 7.063zm0-11.442a4.384 4.384 0 0 0-4.379 4.379c0 2.415 1.964 4.38 4.379 4.38s4.379-1.965 4.379-4.38a4.385 4.385 0 0 0-4.379-4.379zm-153.276-9.946v29.83h-29.831v-29.83z" fill="#231f20"/><path d="M1142.549 598.944h-29.831a1.342 1.342 0 0 1-1.342-1.342v-29.831c0-.741.601-1.342 1.342-1.342h29.831c.741 0 1.342.601 1.342 1.342v29.831c0 .742-.601 1.342-1.342 1.342zm-28.489-2.683h27.146v-27.147h-27.146z" fill="#231f20"/><path d="M1312.943 522.82v29.83h-170.394v-29.83z" fill="#fff"/><path d="M1312.943 553.992h-170.394a1.342 1.342 0 0 1-1.342-1.342v-29.831c0-.741.601-1.342 1.342-1.342h170.394c.741 0 1.342.601 1.342 1.342v29.831c0 .742-.601 1.342-1.342 1.342zm-169.052-2.683H1311.6v-27.147h-167.709z" fill="#231f20"/><circle cx="1295.825" cy="537.144" fill="#fff" r="5.721"/><path d="M1295.825 544.207c-3.895 0-7.063-3.168-7.063-7.062 0-3.896 3.168-7.063 7.063-7.063s7.063 3.168 7.063 7.063c0 3.894-3.168 7.062-7.063 7.062zm0-11.442a4.384 4.384 0 0 0-4.379 4.38c0 2.414 1.964 4.379 4.379 4.379s4.379-1.965 4.379-4.379a4.386 4.386 0 0 0-4.379-4.38zm-153.275-9.945v29.83h-29.832v-29.83z" fill="#231f20"/><path d="M1142.549 553.992h-29.831a1.342 1.342 0 0 1-1.342-1.342v-29.831c0-.741.601-1.342 1.342-1.342h29.831c.741 0 1.342.601 1.342 1.342v29.831c0 .742-.601 1.342-1.342 1.342zm-28.489-2.683h27.146v-27.147h-27.146z" fill="#231f20"/><path d="M1312.943 477.867v29.831h-170.394v-29.831z" fill="#fff"/><path d="M1312.943 509.039h-170.394a1.342 1.342 0 0 1-1.342-1.342v-29.831c0-.741.601-1.342 1.342-1.342h170.394c.741 0 1.342.601 1.342 1.342v29.831c0 .742-.601 1.342-1.342 1.342zm-169.052-2.683H1311.6v-27.147h-167.709z" fill="#231f20"/><circle cx="1295.825" cy="492.192" fill="#fff" r="5.721"/><path d="M1295.825 499.255c-3.895 0-7.063-3.168-7.063-7.063s3.168-7.062 7.063-7.062 7.063 3.168 7.063 7.062a7.07 7.07 0 0 1-7.063 7.063zm0-11.442a4.384 4.384 0 0 0-4.379 4.379c0 2.415 1.964 4.38 4.379 4.38s4.379-1.965 4.379-4.38a4.385 4.385 0 0 0-4.379-4.379zm-153.275-9.947v29.831h-29.831v-29.83z" fill="#231f20"/><path d="M1142.549 509.039h-29.831a1.342 1.342 0 0 1-1.342-1.342v-29.831c0-.741.601-1.342 1.342-1.342h29.831c.741 0 1.342.601 1.342 1.342v29.831c0 .742-.601 1.342-1.342 1.342zm-28.489-2.683h27.146v-27.147h-27.146z" fill="#231f20"/><path d="M674.481 312.468H864.26a3.954 3.954 0 0 1 3.954 3.954V506.2a3.954 3.954 0 0 1-3.954 3.954H674.481a3.954 3.954 0 0 1-3.954-3.954V316.421a3.954 3.954 0 0 1 3.954-3.953z" fill="#fff"/><path d="M864.26 511.495H674.481a5.301 5.301 0 0 1-5.296-5.295V316.421a5.301 5.301 0 0 1 5.296-5.295H864.26a5.301 5.301 0 0 1 5.296 5.295V506.2a5.302 5.302 0 0 1-5.296 5.295zM674.481 313.81a2.615 2.615 0 0 0-2.612 2.611V506.2a2.614 2.614 0 0 0 2.612 2.611H864.26a2.614 2.614 0 0 0 2.611-2.611V316.421a2.614 2.614 0 0 0-2.611-2.611z" fill="#231f20"/><path d="M856.267 497.632H682.473a1.342 1.342 0 0 1-1.342-1.342V326.331c0-.741.601-1.342 1.342-1.342h173.794c.741 0 1.342.601 1.342 1.342V496.29a1.34 1.34 0 0 1-1.342 1.342zm-172.451-2.684h171.109V327.673H683.816z" fill="#231f20"/><path d="M788.559 431.418h-38.378a1.342 1.342 0 0 1-1.342-1.342v-37.531c0-.741.601-1.342 1.342-1.342h38.378c.741 0 1.342.601 1.342 1.342v37.531a1.34 1.34 0 0 1-1.342 1.342zm-37.035-2.684h35.693v-34.848h-35.693z" fill="#231f20"/><path d="M823.546 465.633H715.194a1.342 1.342 0 0 1-1.342-1.342V358.33c0-.741.601-1.342 1.342-1.342h108.352c.741 0 1.342.601 1.342 1.342v105.961c0 .741-.601 1.342-1.342 1.342zm-107.01-2.684h105.667V359.672H716.536z" fill="#231f20"/><path d="M682.473 497.632a1.341 1.341 0 0 1-.938-2.301l67.708-66.214a1.343 1.343 0 0 1 1.877 1.919l-67.708 66.214a1.34 1.34 0 0 1-.939.382zm67.708-103.745c-.338 0-.677-.127-.938-.382l-67.708-66.214a1.341 1.341 0 1 1 1.877-1.919l67.708 66.214a1.341 1.341 0 0 1-.939 2.301zm38.378 0a1.341 1.341 0 0 1-.938-2.301l67.708-66.214a1.343 1.343 0 0 1 1.877 1.919l-67.708 66.214a1.34 1.34 0 0 1-.939.382zm67.708 103.745c-.338 0-.677-.127-.938-.382l-67.708-66.214a1.341 1.341 0 1 1 1.877-1.919l67.708 66.214a1.341 1.341 0 0 1-.939 2.301z" fill="#231f20"/><path d="M297.472 578.717h186.516a3.613 3.613 0 0 1 3.613 3.613v193.9a3.613 3.613 0 0 1-3.613 3.613H297.472a3.613 3.613 0 0 1-3.613-3.613v-193.9a3.613 3.613 0 0 1 3.613-3.613z" fill="#fff"/><g fill="#231f20"><path d="M483.988 781.184H297.472a4.96 4.96 0 0 1-4.955-4.954v-193.9a4.96 4.96 0 0 1 4.955-4.954h186.516a4.96 4.96 0 0 1 4.955 4.954v193.9a4.96 4.96 0 0 1-4.955 4.954zM297.472 580.059a2.273 2.273 0 0 0-2.27 2.271v193.9a2.273 2.273 0 0 0 2.27 2.271h186.516a2.274 2.274 0 0 0 2.271-2.271v-193.9a2.274 2.274 0 0 0-2.271-2.271z"/><path d="M328.073 767.669h-19.94a2.1 2.1 0 0 1-2.1-2.1v-18.775c0-1.16.94-2.1 2.1-2.1h19.94c1.16 0 2.1.94 2.1 2.1v18.775a2.1 2.1 0 0 1-2.1 2.1z"/><path d="M328.073 769.011h-19.94a3.446 3.446 0 0 1-3.442-3.442v-18.774a3.446 3.446 0 0 1 3.442-3.442h19.94a3.446 3.446 0 0 1 3.442 3.442v18.774a3.446 3.446 0 0 1-3.442 3.442zm-19.94-22.976a.76.76 0 0 0-.758.759v18.774c0 .418.34.759.758.759h19.94a.76.76 0 0 0 .758-.759v-18.774a.76.76 0 0 0-.758-.759zm56.254 21.634h-19.94a2.1 2.1 0 0 1-2.1-2.1v-18.775c0-1.16.94-2.1 2.1-2.1h19.94c1.16 0 2.1.94 2.1 2.1v18.775a2.1 2.1 0 0 1-2.1 2.1z"/><path d="M364.387 769.011h-19.94a3.446 3.446 0 0 1-3.442-3.442v-18.774a3.446 3.446 0 0 1 3.442-3.442h19.94a3.446 3.446 0 0 1 3.442 3.442v18.774a3.446 3.446 0 0 1-3.442 3.442zm-19.94-22.976a.76.76 0 0 0-.758.759v18.774c0 .418.34.759.758.759h19.94a.76.76 0 0 0 .758-.759v-18.774a.76.76 0 0 0-.758-.759zm56.253 21.634h-19.94a2.1 2.1 0 0 1-2.1-2.1v-18.775c0-1.16.94-2.1 2.1-2.1h19.94c1.16 0 2.1.94 2.1 2.1v18.775a2.1 2.1 0 0 1-2.1 2.1z"/><path d="M400.701 769.011h-19.94a3.446 3.446 0 0 1-3.442-3.442v-18.774a3.446 3.446 0 0 1 3.442-3.442h19.94a3.446 3.446 0 0 1 3.442 3.442v18.774a3.447 3.447 0 0 1-3.442 3.442zm-19.941-22.976a.76.76 0 0 0-.758.759v18.774c0 .418.34.759.758.759h19.94a.76.76 0 0 0 .757-.759v-18.774a.76.76 0 0 0-.757-.759zm56.254 21.634h-19.94a2.1 2.1 0 0 1-2.1-2.1v-18.775c0-1.16.94-2.1 2.1-2.1h19.94c1.16 0 2.1.94 2.1 2.1v18.775a2.1 2.1 0 0 1-2.1 2.1z"/><path d="M437.014 769.011h-19.94a3.446 3.446 0 0 1-3.442-3.442v-18.774a3.446 3.446 0 0 1 3.442-3.442h19.94a3.446 3.446 0 0 1 3.442 3.442v18.774a3.446 3.446 0 0 1-3.442 3.442zm-19.94-22.976a.76.76 0 0 0-.757.759v18.774c0 .418.34.759.757.759h19.94a.76.76 0 0 0 .758-.759v-18.774a.76.76 0 0 0-.758-.759zm56.254 21.634h-19.94a2.1 2.1 0 0 1-2.1-2.1v-18.775c0-1.16.94-2.1 2.1-2.1h19.94c1.16 0 2.1.94 2.1 2.1v18.775a2.1 2.1 0 0 1-2.1 2.1z"/><path d="M473.327 769.011h-19.94a3.446 3.446 0 0 1-3.442-3.442v-18.774a3.446 3.446 0 0 1 3.442-3.442h19.94a3.446 3.446 0 0 1 3.442 3.442v18.774a3.445 3.445 0 0 1-3.442 3.442zm-19.939-22.976a.76.76 0 0 0-.758.759v18.774c0 .418.34.759.758.759h19.94a.76.76 0 0 0 .758-.759v-18.774a.76.76 0 0 0-.758-.759zm22.04-17.933H306.033a1.342 1.342 0 0 1 0-2.684h169.395a1.342 1.342 0 0 1 0 2.684zm0-13.186H306.033a1.342 1.342 0 0 1 0-2.684h169.395a1.342 1.342 0 0 1 0 2.684z"/><path d="M427.044 719.49a1.342 1.342 0 0 1-1.342-1.342v-9.149a1.342 1.342 0 0 1 2.684 0v9.149c0 .742-.601 1.342-1.342 1.342zm-72.627 13.186a1.342 1.342 0 0 1-1.342-1.342v-9.149a1.342 1.342 0 0 1 2.684 0v9.149c0 .741-.601 1.342-1.342 1.342z"/></g><path d="M474.639 591.322H307.433a1.4 1.4 0 0 0-1.4 1.4v101.801a1.4 1.4 0 0 0 1.4 1.4h167.206a1.4 1.4 0 0 0 1.4-1.4V592.722a1.4 1.4 0 0 0-1.4-1.4z" fill="#fff"/><path d="M474.639 697.265H307.433a2.744 2.744 0 0 1-2.742-2.741V592.722a2.744 2.744 0 0 1 2.742-2.741h167.206a2.744 2.744 0 0 1 2.742 2.741v101.802a2.745 2.745 0 0 1-2.742 2.741zM307.433 592.664l-.058 101.859 167.264.058.058-101.859-.058-.058z" fill="#231f20"/></svg>